<svg width="500" height="500" viewBox="0 0 500 500" fill="none" xmlns="http://www.w3.org/2000/svg">
  <path fill="#fff" d="M0 0h500v500H0z"/>
  <path d="M60.268 222.334h21.724v-43.308h35.32v-19.364h-35.32v-28.845h37.963v-19.425H60.268zm261.52-50.388a552 552 0 0 0-1.957 9.037 788 788 0 0 0-2.037 10.852c-.605 3.59-1.09 6.657-1.432 9.178-.202-1.876-.525-4.075-.989-6.596a259 259 0 0 0-1.351-7.887 242 242 0 0 0-1.513-7.443c-.444-2.32-.847-4.176-1.21-5.547l-16.057-62.148h-22.087l-16.056 62.148c-.404 1.412-.848 3.267-1.352 5.547a239 239 0 0 0-1.513 7.443 703 703 0 0 0-1.291 7.806 298 298 0 0 0-.988 6.677c-.202-1.876-.525-4.075-.989-6.596a190 190 0 0 0-1.432-7.968 242 242 0 0 0-1.573-7.967c-.504-2.522-.948-4.7-1.352-6.536l-14.099-60.554h-22.995l28.118 110.942h26.546l14.846-58.134c.302-1.21.706-2.985 1.21-5.305a292 292 0 0 0 1.513-7.503 243 243 0 0 0 1.432-7.585q.666-3.57.908-5.688c.141 1.412.423 3.348.827 5.769.443 2.38.948 4.942 1.512 7.665.545 2.683 1.09 5.164 1.574 7.443q.757 3.42 1.21 5.083l14.927 58.275h26.606l28.058-110.962h-22.995zm114.431 5.124c-2.178-3.974-5.305-7.423-9.38-10.328-4.014-2.965-8.855-5.789-14.543-8.492-4.68-2.239-8.593-4.216-11.74-5.89q-4.66-2.511-7.019-5.204c-1.533-1.836-2.28-4.075-2.28-6.738 0-2.239.545-4.215 1.594-5.89 1.069-1.734 2.642-3.066 4.72-3.973 2.078-.968 4.599-1.453 7.544-1.453 4.216 0 11.134.263 15.209 1.453 2.925.807 4.74 1.452 7.443 2.521 2.683 1.251 5.043 2.562 6.778 3.792v-23.539c-5.467-2.643-14.06-3.954-25.9-3.954h-2.743c-7.726 0-14.423 1.271-20.111 3.833-5.628 2.501-10.812 5.547-13.858 10.287a32 32 0 0 0-2.44 4.579c-1.735 3.449-2.602 7.403-2.602 11.84v.726c0 5.104 1.29 9.441 3.025 13.112 1.775 3.63 4.902 7.302 7.645 9.863 2.743 2.542 5.628 4.72 8.694 6.496a131 131 0 0 0 8.452 4.437c4.115 1.997 7.806 3.853 11.053 5.588 3.309 1.734 5.89 3.59 7.766 5.587s2.824 4.377 2.824 7.181c0 2.299-.524 4.337-1.593 6.112s-2.804 3.187-5.184 4.216c-2.34 1.028-5.426 1.533-9.299 1.533-5.588 0-11.236-.948-16.924-2.824-5.688-1.896-11.175-3.994-16.459-6.354v22.367l.161.103c1.593 1.009 3.651 1.876 6.233 2.643s5.305 1.412 8.189 1.977c1.836.363 3.651.625 5.447.867.06 0 .121.02.181.04.101 0 .222 0 .323.041.847.121 1.714.242 2.562.322 2.783.263 5.103.404 6.999.404.282 0 .867.02 1.15 0-.202 0 .201 0 0 0 6.939 0 13.333-.847 18.618-2.522.302-.08.585-.201.887-.282l.908-.302c2.945-.989 5.708-2.239 8.169-3.772 3.974-2.441 7.06-5.568 9.38-9.481 2.32-3.893 3.449-8.653 3.449-14.281v-1.957c0-5.87-1.089-10.751-3.267-14.684zm-276.003-2.199h34.453v-19.445h-34.453v-24.549h37.902v-19.424h-59.969v110.881h62.309v-18.638h-40.242zm33.081 166.479h34.432v-19.425h-34.432v-24.569h37.882v-19.425H171.21v110.881h62.308v-18.618h-40.221zm-58.618-10.913.303 10.166c.141 3.389.282 6.778.444 10.167.141 3.388.262 6.797.363 10.247h-.504l-46.434-83.086H60.268v110.942H80.52V336.67c-.141-3.55-.303-7.06-.444-10.55-.141-3.55-.303-7.08-.444-10.63s-.323-7.06-.504-10.549h.666l46.494 83.932h28.805V277.931H134.7v52.506zm107.13-52.506v19.587h29.732v91.355h23.237v-91.355h29.733v-19.587z" fill="#212721"/>
</svg>
