<svg width="912" height="493" viewBox="0 0 912 493" fill="none" xmlns="http://www.w3.org/2000/svg">
<path d="M911.68 0.959961H0.320312V492.48H911.68V0.959961Z" fill="white"/>
<path d="M911.499 173.077C911.981 144.581 911.009 116.079 908.587 87.682C906.433 70.86 899.825 54.9175 889.444 41.4972C879.063 28.0768 865.286 17.6647 849.533 11.3346C831.506 4.25834 812.274 0.746344 792.906 0.993444C772.779 0.562044 752.781 4.30334 734.175 11.9809C718.642 18.5105 705.141 29.0701 695.07 42.5653C684.999 56.0605 678.726 72 676.901 88.732C675.067 105.321 674.123 133.436 674.069 173.077V240.699C673.562 269.22 674.507 297.749 676.901 326.175C679.044 342.99 685.649 358.927 696.032 372.336C706.415 385.746 720.198 396.139 735.955 402.441C754.035 409.651 773.357 413.247 792.825 413.025C812.923 413.422 832.887 409.681 851.475 402.037C867.406 395.341 881.218 384.451 891.437 370.529C901.16 357.216 907.214 341.587 908.992 325.205C911.252 297.097 912.089 268.892 911.499 240.699V173.077ZM808.923 292.485C809.617 307.279 808.64 322.103 806.011 336.678C805.224 339.556 803.447 342.066 800.991 343.765C798.535 345.465 795.557 346.245 792.582 345.969C789.803 346.314 786.989 345.701 784.606 344.232C782.223 342.763 780.414 340.525 779.477 337.89C776.874 323.883 775.923 309.621 776.646 295.394V110.868C776.646 90.509 778.102 78.552 780.933 74.109C782.284 72.094 784.133 70.462 786.302 69.372C788.471 68.282 790.885 67.771 793.31 67.888C796.003 67.647 798.699 68.311 800.97 69.775C803.242 71.239 804.959 73.418 805.849 75.967C808.573 87.526 809.609 99.417 808.923 111.272V292.485Z" fill="#5480D6"/>
<path d="M633.486 113.305C633.486 81.852 630.379 59.6096 624.166 46.5763C615.898 31.6833 602.495 20.217 586.395 14.2624C564.631 4.98251 541.093 0.463007 517.395 1.01371C495.711 0.438307 474.156 4.48881 454.199 12.8891C438.258 19.4186 424.93 30.9424 416.265 45.6877C408.089 59.6635 404.574 81.798 404.574 112.093C403.949 129.684 406.723 147.231 412.749 163.795C417.182 175.798 424.31 186.652 433.597 195.543C449.887 208.967 467.066 221.301 485.02 232.462C502.401 242.791 518.696 254.807 533.664 268.331C540.123 275.44 543.311 290.708 543.311 313.974C543.879 322.357 542.126 330.735 538.242 338.209C536.648 340.812 534.369 342.938 531.647 344.361C528.926 345.784 525.865 346.45 522.791 346.288C520.029 346.523 517.252 346.061 514.721 344.945C512.189 343.828 509.987 342.094 508.32 339.906C504.759 330.837 503.361 321.079 504.232 311.389V262.918H407.681V288.85C406.746 312.061 409.843 335.259 416.837 357.436C424.347 374.852 438.125 388.899 455.507 396.859C477.514 408.012 501.988 413.565 526.715 413.016C549.634 413.436 572.353 408.742 593.181 399.283C609.553 392.735 623.188 380.886 631.851 365.676C638.773 352.374 642.234 331.639 642.234 303.472C642.234 264.695 636.211 236.609 624.166 219.213C612.121 201.818 582.962 179.548 536.689 152.404C520.338 142.953 510.773 134.874 507.257 128.169C503.128 118.785 501.28 108.576 501.862 98.359C501.338 90.421 503.005 82.492 506.685 75.416C508.129 72.988 510.218 70.997 512.726 69.659C515.233 68.32 518.064 67.685 520.91 67.823C523.298 67.657 525.688 68.115 527.84 69.15C529.993 70.185 531.832 71.761 533.173 73.72C536.41 82.052 537.669 91.006 536.852 99.894V129.138H633.486V113.305Z" fill="#1B4BA7"/>
<path d="M0.320312 8.87988V405.123H103.343V8.87988H0.320312Z" fill="#07142C"/>
<path d="M286.713 8.87988V187.238L229.036 8.87988H142.964V405.123H229.036V224.983L282.588 405.123H372.785V8.87988H286.713Z" fill="#07142C"/>
<path d="M10.7456 481.221C10.7456 481.376 10.6914 481.516 10.5831 481.639C10.4902 481.763 10.3277 481.864 10.0955 481.941C9.86331 482.019 9.55381 482.081 9.16681 482.127C8.77991 482.173 8.28461 482.197 7.68091 482.197C7.09271 482.197 6.59741 482.173 6.19501 482.127C5.80801 482.081 5.49851 482.019 5.26631 481.941C5.03411 481.864 4.86391 481.763 4.75551 481.639C4.66261 481.516 4.61621 481.376 4.61621 481.221V452.85C4.61621 452.695 4.66261 452.556 4.75551 452.432C4.86391 452.308 5.03411 452.207 5.26631 452.13C5.51401 452.053 5.83131 451.991 6.21821 451.944C6.60521 451.898 7.09271 451.875 7.68091 451.875C8.28461 451.875 8.77991 451.898 9.16681 451.944C9.55381 451.991 9.86331 452.053 10.0955 452.13C10.3277 452.207 10.4902 452.308 10.5831 452.432C10.6914 452.556 10.7456 452.695 10.7456 452.85V481.221Z" fill="#07142C"/>
<path d="M42.066 479.921C42.066 480.277 42.004 480.595 41.8802 480.873C41.7564 481.152 41.5861 481.384 41.3694 481.57C41.1682 481.755 40.9206 481.895 40.6265 481.988C40.3479 482.065 40.0615 482.104 39.7674 482.104H37.1671C36.6254 482.104 36.1533 482.05 35.7508 481.941C35.3639 481.833 35.0001 481.639 34.6596 481.361C34.3346 481.067 34.0173 480.68 33.7077 480.2C33.3981 479.705 33.0499 479.07 32.6629 478.296L25.1869 464.25C24.7535 463.414 24.3124 462.516 23.8635 461.556C23.4147 460.581 23.0122 459.637 22.6562 458.724H22.6098C22.6717 459.838 22.7181 460.953 22.7491 462.067C22.78 463.166 22.7955 464.304 22.7955 465.48V481.198C22.7955 481.353 22.7491 481.492 22.6562 481.616C22.5788 481.74 22.4318 481.848 22.2151 481.941C22.0139 482.019 21.7353 482.081 21.3793 482.127C21.0233 482.173 20.5667 482.197 20.0094 482.197C19.4677 482.197 19.0188 482.173 18.6628 482.127C18.3068 482.081 18.0282 482.019 17.827 481.941C17.6258 481.848 17.4865 481.74 17.4091 481.616C17.3317 481.492 17.293 481.353 17.293 481.198V454.196C17.293 453.469 17.502 452.927 17.9199 452.571C18.3533 452.2 18.8795 452.014 19.4987 452.014H22.7723C23.3605 452.014 23.8558 452.068 24.2582 452.177C24.6607 452.269 25.0167 452.432 25.3262 452.664C25.6513 452.896 25.9531 453.221 26.2317 453.639C26.5103 454.042 26.7967 454.545 27.0907 455.148L32.9415 466.13C33.282 466.796 33.6148 467.454 33.9399 468.104C34.2804 468.738 34.6054 469.381 34.915 470.031C35.2246 470.665 35.5264 471.292 35.8205 471.911C36.1146 472.53 36.4009 473.15 36.6795 473.769H36.7027C36.6563 472.685 36.6176 471.555 36.5867 470.379C36.5712 469.203 36.5634 468.08 36.5634 467.012V452.919C36.5634 452.765 36.6099 452.625 36.7027 452.502C36.7956 452.378 36.9504 452.269 37.1671 452.177C37.3838 452.084 37.6701 452.022 38.0261 451.991C38.3821 451.944 38.8387 451.921 39.396 451.921C39.9222 451.921 40.3634 451.944 40.7194 451.991C41.0754 452.022 41.3462 452.084 41.532 452.177C41.7332 452.269 41.8725 452.378 41.9499 452.502C42.0273 452.625 42.066 452.765 42.066 452.919V479.921Z" fill="#07142C"/>
<path d="M68.6266 454.521C68.6266 454.97 68.6026 455.357 68.5566 455.682C68.5256 455.992 68.4716 456.247 68.3936 456.449C68.3166 456.634 68.2156 456.774 68.0926 456.866C67.9836 456.959 67.8596 457.006 67.7206 457.006H60.1986V481.221C60.1986 481.376 60.1436 481.516 60.0356 481.639C59.9426 481.763 59.7806 481.864 59.5486 481.941C59.3156 482.019 58.9986 482.081 58.5966 482.127C58.2096 482.173 57.7216 482.197 57.1336 482.197C56.5456 482.197 56.0496 482.173 55.6476 482.127C55.2606 482.081 54.9516 482.019 54.7186 481.941C54.4866 481.864 54.3166 481.763 54.2086 481.639C54.1156 481.516 54.0686 481.376 54.0686 481.221V457.006H46.5466C46.3916 457.006 46.2596 456.959 46.1516 456.866C46.0436 456.774 45.9506 456.634 45.8736 456.449C45.7956 456.247 45.7336 455.992 45.6876 455.682C45.6566 455.357 45.6406 454.97 45.6406 454.521C45.6406 454.057 45.6566 453.662 45.6876 453.337C45.7336 453.012 45.7956 452.757 45.8736 452.571C45.9506 452.37 46.0436 452.231 46.1516 452.153C46.2596 452.06 46.3916 452.014 46.5466 452.014H67.7206C67.8596 452.014 67.9836 452.06 68.0926 452.153C68.2156 452.231 68.3166 452.37 68.3936 452.571C68.4716 452.757 68.5256 453.012 68.5566 453.337C68.6026 453.662 68.6266 454.057 68.6266 454.521Z" fill="#07142C"/>
<path d="M89.9867 479.666C89.9867 480.115 89.9627 480.494 89.9167 480.804C89.8857 481.098 89.8317 481.338 89.7537 481.523C89.6767 481.709 89.5757 481.848 89.4527 481.941C89.3437 482.019 89.2197 482.057 89.0807 482.057H73.9897C73.4787 482.057 73.0457 481.91 72.6897 481.616C72.3487 481.307 72.1787 480.811 72.1787 480.13V453.941C72.1787 453.26 72.3487 452.772 72.6897 452.478C73.0457 452.169 73.4787 452.014 73.9897 452.014H88.9877C89.1277 452.014 89.2507 452.053 89.3597 452.13C89.4677 452.207 89.5607 452.347 89.6377 452.548C89.7157 452.734 89.7697 452.981 89.8007 453.291C89.8467 453.585 89.8697 453.964 89.8697 454.429C89.8697 454.862 89.8467 455.233 89.8007 455.543C89.7697 455.837 89.7157 456.077 89.6377 456.263C89.5607 456.449 89.4677 456.588 89.3597 456.681C89.2507 456.758 89.1277 456.797 88.9877 456.797H78.2617V464.133H87.3397C87.4787 464.133 87.6027 464.18 87.7107 464.273C87.8347 464.35 87.9357 464.482 88.0127 464.667C88.0897 464.838 88.1447 465.078 88.1757 465.387C88.2217 465.681 88.2447 466.045 88.2447 466.478C88.2447 466.927 88.2217 467.299 88.1757 467.593C88.1447 467.887 88.0897 468.127 88.0127 468.313C87.9357 468.483 87.8347 468.607 87.7107 468.684C87.6027 468.761 87.4787 468.8 87.3397 468.8H78.2617V477.275H89.0807C89.2197 477.275 89.3437 477.321 89.4527 477.414C89.5757 477.491 89.6767 477.623 89.7537 477.809C89.8317 477.994 89.8857 478.242 89.9167 478.551C89.9627 478.846 89.9867 479.217 89.9867 479.666Z" fill="#07142C"/>
<path d="M117.685 481.268C117.685 481.438 117.654 481.585 117.592 481.709C117.53 481.817 117.383 481.91 117.151 481.988C116.919 482.065 116.578 482.119 116.129 482.15C115.68 482.181 115.069 482.197 114.295 482.197C113.645 482.197 113.127 482.181 112.74 482.15C112.353 482.119 112.043 482.065 111.811 481.988C111.594 481.895 111.439 481.786 111.347 481.663C111.254 481.523 111.176 481.361 111.114 481.175L108.421 474.465C108.096 473.707 107.779 473.033 107.469 472.445C107.16 471.857 106.811 471.37 106.424 470.983C106.053 470.58 105.62 470.278 105.124 470.077C104.629 469.876 104.056 469.775 103.406 469.775H101.502V481.221C101.502 481.376 101.448 481.516 101.34 481.639C101.247 481.763 101.084 481.864 100.852 481.941C100.62 482.019 100.311 482.081 99.9245 482.127C99.5375 482.173 99.0415 482.197 98.4385 482.197C97.8505 482.197 97.3545 482.173 96.9525 482.127C96.5655 482.081 96.2555 482.019 96.0235 481.941C95.7915 481.864 95.6285 481.763 95.5365 481.639C95.4435 481.516 95.3965 481.376 95.3965 481.221V453.941C95.3965 453.26 95.5665 452.772 95.9075 452.478C96.2635 452.169 96.6965 452.014 97.2075 452.014H104.985C105.774 452.014 106.424 452.029 106.935 452.06C107.446 452.091 107.91 452.13 108.328 452.177C109.536 452.347 110.619 452.641 111.579 453.059C112.554 453.477 113.374 454.026 114.04 454.707C114.721 455.373 115.239 456.17 115.595 457.099C115.951 458.012 116.129 459.064 116.129 460.256C116.129 461.262 115.998 462.183 115.735 463.019C115.487 463.839 115.116 464.575 114.62 465.225C114.125 465.875 113.514 466.44 112.786 466.92C112.059 467.399 111.23 467.786 110.302 468.08C110.751 468.297 111.169 468.56 111.556 468.87C111.958 469.179 112.329 469.559 112.67 470.007C113.026 470.441 113.359 470.944 113.668 471.517C113.978 472.074 114.28 472.708 114.574 473.42L117.104 479.341C117.337 479.929 117.491 480.362 117.569 480.641C117.646 480.904 117.685 481.113 117.685 481.268ZM109.814 460.883C109.814 459.892 109.59 459.057 109.141 458.376C108.692 457.695 107.957 457.215 106.935 456.936C106.626 456.859 106.27 456.797 105.867 456.75C105.48 456.704 104.939 456.681 104.242 456.681H101.502V465.201H104.614C105.48 465.201 106.239 465.101 106.889 464.9C107.539 464.683 108.081 464.389 108.514 464.017C108.947 463.63 109.272 463.174 109.489 462.648C109.706 462.121 109.814 461.533 109.814 460.883Z" fill="#07142C"/>
<path d="M146.962 479.921C146.962 480.277 146.9 480.595 146.776 480.873C146.652 481.152 146.482 481.384 146.266 481.57C146.064 481.755 145.817 481.895 145.523 481.988C145.244 482.065 144.958 482.104 144.664 482.104H142.063C141.521 482.104 141.049 482.05 140.647 481.941C140.26 481.833 139.896 481.639 139.556 481.361C139.231 481.067 138.913 480.68 138.604 480.2C138.294 479.705 137.946 479.07 137.559 478.296L130.083 464.25C129.65 463.414 129.208 462.516 128.76 461.556C128.311 460.581 127.908 459.637 127.552 458.724H127.506C127.568 459.838 127.614 460.953 127.645 462.067C127.676 463.166 127.692 464.304 127.692 465.48V481.198C127.692 481.353 127.645 481.492 127.552 481.616C127.475 481.74 127.328 481.848 127.111 481.941C126.91 482.019 126.631 482.081 126.275 482.127C125.919 482.173 125.463 482.197 124.906 482.197C124.364 482.197 123.915 482.173 123.559 482.127C123.203 482.081 122.924 482.019 122.723 481.941C122.522 481.848 122.383 481.74 122.305 481.616C122.228 481.492 122.189 481.353 122.189 481.198V454.196C122.189 453.469 122.398 452.927 122.816 452.571C123.249 452.2 123.776 452.014 124.395 452.014H127.668C128.257 452.014 128.752 452.068 129.154 452.177C129.557 452.269 129.913 452.432 130.222 452.664C130.547 452.896 130.849 453.221 131.128 453.639C131.406 454.042 131.693 454.545 131.987 455.148L137.838 466.13C138.178 466.796 138.511 467.454 138.836 468.104C139.176 468.738 139.502 469.381 139.811 470.031C140.121 470.665 140.422 471.292 140.717 471.911C141.011 472.53 141.297 473.15 141.576 473.769H141.599C141.552 472.685 141.514 471.555 141.483 470.379C141.467 469.203 141.46 468.08 141.46 467.012V452.919C141.46 452.765 141.506 452.625 141.599 452.502C141.692 452.378 141.846 452.269 142.063 452.177C142.28 452.084 142.566 452.022 142.922 451.991C143.278 451.944 143.735 451.921 144.292 451.921C144.818 451.921 145.259 451.944 145.615 451.991C145.971 452.022 146.242 452.084 146.428 452.177C146.629 452.269 146.769 452.378 146.846 452.502C146.923 452.625 146.962 452.765 146.962 452.919V479.921Z" fill="#07142C"/>
<path d="M178.143 479.782C178.329 480.339 178.445 480.78 178.491 481.105C178.538 481.43 178.476 481.678 178.306 481.848C178.135 482.003 177.833 482.096 177.4 482.127C176.967 482.173 176.371 482.197 175.612 482.197C174.823 482.197 174.204 482.181 173.755 482.15C173.322 482.135 172.989 482.096 172.757 482.034C172.524 481.957 172.362 481.856 172.269 481.732C172.176 481.608 172.099 481.446 172.037 481.245L170.017 475.208H158.733L156.829 481.082C156.768 481.299 156.682 481.485 156.574 481.639C156.481 481.779 156.319 481.895 156.086 481.988C155.87 482.065 155.552 482.119 155.135 482.15C154.732 482.181 154.198 482.197 153.533 482.197C152.821 482.197 152.263 482.173 151.861 482.127C151.458 482.081 151.18 481.972 151.025 481.802C150.87 481.616 150.816 481.361 150.863 481.036C150.909 480.711 151.025 480.277 151.211 479.736L160.475 453.082C160.567 452.819 160.676 452.61 160.8 452.455C160.923 452.285 161.117 452.161 161.38 452.084C161.659 451.991 162.038 451.937 162.518 451.921C162.998 451.89 163.632 451.875 164.422 451.875C165.335 451.875 166.062 451.89 166.604 451.921C167.146 451.937 167.564 451.991 167.858 452.084C168.167 452.161 168.384 452.285 168.508 452.455C168.647 452.625 168.763 452.858 168.856 453.152L178.143 479.782ZM164.352 457.749H164.329L160.08 470.518H168.601L164.352 457.749Z" fill="#07142C"/>
<path d="M198.644 454.521C198.644 454.97 198.621 455.357 198.574 455.682C198.543 455.992 198.489 456.247 198.412 456.449C198.334 456.634 198.234 456.774 198.11 456.866C198.002 456.959 197.878 457.006 197.738 457.006H190.216V481.221C190.216 481.376 190.162 481.516 190.054 481.639C189.961 481.763 189.798 481.864 189.566 481.941C189.334 482.019 189.016 482.081 188.614 482.127C188.227 482.173 187.739 482.197 187.151 482.197C186.563 482.197 186.068 482.173 185.665 482.127C185.278 482.081 184.969 482.019 184.737 481.941C184.505 481.864 184.334 481.763 184.226 481.639C184.133 481.516 184.087 481.376 184.087 481.221V457.006H176.564C176.409 457.006 176.278 456.959 176.17 456.866C176.061 456.774 175.968 456.634 175.891 456.449C175.814 456.247 175.752 455.992 175.705 455.682C175.674 455.357 175.659 454.97 175.659 454.521C175.659 454.057 175.674 453.662 175.705 453.337C175.752 453.012 175.814 452.757 175.891 452.571C175.968 452.37 176.061 452.231 176.17 452.153C176.278 452.06 176.409 452.014 176.564 452.014H197.738C197.878 452.014 198.002 452.06 198.11 452.153C198.234 452.231 198.334 452.37 198.412 452.571C198.489 452.757 198.543 453.012 198.574 453.337C198.621 453.662 198.644 454.057 198.644 454.521Z" fill="#07142C"/>
<path d="M208.326 481.221C208.326 481.376 208.271 481.516 208.163 481.639C208.07 481.763 207.908 481.864 207.676 481.941C207.443 482.019 207.134 482.081 206.747 482.127C206.36 482.173 205.865 482.197 205.261 482.197C204.673 482.197 204.177 482.173 203.775 482.127C203.388 482.081 203.078 482.019 202.846 481.941C202.614 481.864 202.444 481.763 202.336 481.639C202.243 481.516 202.196 481.376 202.196 481.221V452.85C202.196 452.695 202.243 452.556 202.336 452.432C202.444 452.308 202.614 452.207 202.846 452.13C203.094 452.053 203.411 451.991 203.798 451.944C204.185 451.898 204.673 451.875 205.261 451.875C205.865 451.875 206.36 451.898 206.747 451.944C207.134 451.991 207.443 452.053 207.676 452.13C207.908 452.207 208.07 452.308 208.163 452.432C208.271 452.556 208.326 452.695 208.326 452.85V481.221Z" fill="#07142C"/>
<path d="M241.898 466.687C241.898 469.179 241.588 471.408 240.969 473.374C240.35 475.34 239.429 477.011 238.206 478.389C236.984 479.751 235.467 480.796 233.656 481.523C231.86 482.235 229.778 482.591 227.41 482.591C225.073 482.591 223.03 482.289 221.281 481.686C219.547 481.067 218.1 480.13 216.939 478.877C215.778 477.623 214.904 476.029 214.316 474.094C213.743 472.159 213.457 469.868 213.457 467.221C213.457 464.791 213.766 462.609 214.385 460.674C215.004 458.724 215.925 457.068 217.148 455.706C218.371 454.343 219.88 453.299 221.676 452.571C223.487 451.844 225.584 451.48 227.968 451.48C230.243 451.48 232.247 451.782 233.981 452.385C235.73 452.989 237.185 453.918 238.346 455.172C239.522 456.425 240.404 458.012 240.992 459.931C241.596 461.835 241.898 464.087 241.898 466.687ZM235.49 467.012C235.49 465.434 235.366 464.002 235.118 462.717C234.871 461.417 234.445 460.31 233.841 459.397C233.253 458.468 232.464 457.756 231.473 457.261C230.483 456.75 229.244 456.495 227.759 456.495C226.257 456.495 225.003 456.781 223.997 457.354C222.991 457.911 222.179 458.662 221.56 459.606C220.94 460.55 220.499 461.657 220.236 462.926C219.988 464.18 219.865 465.511 219.865 466.92C219.865 468.56 219.988 470.038 220.236 471.354C220.484 472.654 220.902 473.769 221.49 474.697C222.078 475.626 222.867 476.338 223.858 476.833C224.849 477.313 226.095 477.553 227.596 477.553C229.097 477.553 230.351 477.275 231.357 476.717C232.363 476.16 233.176 475.402 233.795 474.442C234.414 473.482 234.848 472.368 235.095 471.099C235.358 469.814 235.49 468.452 235.49 467.012Z" fill="#07142C"/>
<path d="M271.825 479.921C271.825 480.277 271.763 480.595 271.639 480.873C271.516 481.152 271.345 481.384 271.129 481.57C270.927 481.755 270.68 481.895 270.386 481.988C270.107 482.065 269.821 482.104 269.527 482.104H266.926C266.385 482.104 265.912 482.05 265.51 481.941C265.123 481.833 264.759 481.639 264.419 481.361C264.094 481.067 263.776 480.68 263.467 480.2C263.157 479.705 262.809 479.07 262.422 478.296L254.946 464.25C254.513 463.414 254.072 462.516 253.623 461.556C253.174 460.581 252.771 459.637 252.415 458.724H252.369C252.431 459.838 252.477 460.953 252.508 462.067C252.539 463.166 252.555 464.304 252.555 465.48V481.198C252.555 481.353 252.508 481.492 252.415 481.616C252.338 481.74 252.191 481.848 251.974 481.941C251.773 482.019 251.494 482.081 251.138 482.127C250.782 482.173 250.326 482.197 249.769 482.197C249.227 482.197 248.778 482.173 248.422 482.127C248.066 482.081 247.787 482.019 247.586 481.941C247.385 481.848 247.246 481.74 247.168 481.616C247.091 481.492 247.052 481.353 247.052 481.198V454.196C247.052 453.469 247.261 452.927 247.679 452.571C248.112 452.2 248.639 452.014 249.258 452.014H252.531C253.12 452.014 253.615 452.068 254.017 452.177C254.42 452.269 254.776 452.432 255.085 452.664C255.41 452.896 255.712 453.221 255.991 453.639C256.27 454.042 256.556 454.545 256.85 455.148L262.701 466.13C263.041 466.796 263.374 467.454 263.699 468.104C264.04 468.738 264.365 469.381 264.674 470.031C264.984 470.665 265.286 471.292 265.58 471.911C265.874 472.53 266.16 473.15 266.439 473.769H266.462C266.416 472.685 266.377 471.555 266.346 470.379C266.33 469.203 266.323 468.08 266.323 467.012V452.919C266.323 452.765 266.369 452.625 266.462 452.502C266.555 452.378 266.71 452.269 266.926 452.177C267.143 452.084 267.429 452.022 267.785 451.991C268.141 451.944 268.598 451.921 269.155 451.921C269.681 451.921 270.123 451.944 270.479 451.991C270.835 452.022 271.105 452.084 271.291 452.177C271.492 452.269 271.632 452.378 271.709 452.502C271.786 452.625 271.825 452.765 271.825 452.919V479.921Z" fill="#07142C"/>
<path d="M303.006 479.782C303.192 480.339 303.308 480.78 303.354 481.105C303.401 481.43 303.339 481.678 303.169 481.848C302.998 482.003 302.697 482.096 302.263 482.127C301.83 482.173 301.234 482.197 300.475 482.197C299.686 482.197 299.067 482.181 298.618 482.15C298.185 482.135 297.852 482.096 297.62 482.034C297.388 481.957 297.225 481.856 297.132 481.732C297.039 481.608 296.962 481.446 296.9 481.245L294.88 475.208H283.596L281.693 481.082C281.631 481.299 281.546 481.485 281.437 481.639C281.344 481.779 281.182 481.895 280.95 481.988C280.733 482.065 280.416 482.119 279.998 482.15C279.595 482.181 279.061 482.197 278.396 482.197C277.684 482.197 277.126 482.173 276.724 482.127C276.322 482.081 276.043 481.972 275.888 481.802C275.733 481.616 275.679 481.361 275.726 481.036C275.772 480.711 275.888 480.277 276.074 479.736L285.338 453.082C285.431 452.819 285.539 452.61 285.663 452.455C285.787 452.285 285.98 452.161 286.243 452.084C286.522 451.991 286.901 451.937 287.381 451.921C287.861 451.89 288.495 451.875 289.285 451.875C290.198 451.875 290.925 451.89 291.467 451.921C292.009 451.937 292.427 451.991 292.721 452.084C293.03 452.161 293.247 452.285 293.371 452.455C293.51 452.625 293.626 452.858 293.719 453.152L303.006 479.782ZM289.215 457.749H289.192L284.943 470.518H293.464L289.215 457.749Z" fill="#07142C"/>
<path d="M323.739 479.503C323.739 479.968 323.716 480.362 323.67 480.687C323.639 480.997 323.584 481.26 323.507 481.477C323.43 481.678 323.329 481.825 323.205 481.918C323.097 482.011 322.965 482.057 322.811 482.057H309.043C308.532 482.057 308.098 481.91 307.742 481.616C307.402 481.307 307.232 480.811 307.232 480.13V452.85C307.232 452.695 307.278 452.556 307.371 452.432C307.479 452.308 307.65 452.207 307.882 452.13C308.114 452.053 308.424 451.991 308.81 451.944C309.213 451.898 309.708 451.875 310.296 451.875C310.9 451.875 311.395 451.898 311.782 451.944C312.169 451.991 312.479 452.053 312.711 452.13C312.943 452.207 313.106 452.308 313.199 452.432C313.307 452.556 313.361 452.695 313.361 452.85V477.019H322.811C322.965 477.019 323.097 477.066 323.205 477.158C323.329 477.236 323.43 477.375 323.507 477.576C323.584 477.762 323.639 478.017 323.67 478.343C323.716 478.652 323.739 479.039 323.739 479.503Z" fill="#07142C"/>
<path d="M362.884 479.921C362.884 480.277 362.822 480.595 362.698 480.873C362.574 481.152 362.404 481.384 362.187 481.57C361.986 481.755 361.738 481.895 361.444 481.988C361.166 482.065 360.879 482.104 360.585 482.104H357.985C357.443 482.104 356.971 482.05 356.569 481.941C356.182 481.833 355.818 481.639 355.477 481.361C355.152 481.067 354.835 480.68 354.525 480.2C354.216 479.705 353.868 479.07 353.481 478.296L346.005 464.25C345.571 463.414 345.13 462.516 344.681 461.556C344.232 460.581 343.83 459.637 343.474 458.724H343.428C343.489 459.838 343.536 460.953 343.567 462.067C343.598 463.166 343.613 464.304 343.613 465.48V481.198C343.613 481.353 343.567 481.492 343.474 481.616C343.397 481.74 343.25 481.848 343.033 481.941C342.832 482.019 342.553 482.081 342.197 482.127C341.841 482.173 341.384 482.197 340.827 482.197C340.286 482.197 339.837 482.173 339.481 482.127C339.125 482.081 338.846 482.019 338.645 481.941C338.444 481.848 338.304 481.74 338.227 481.616C338.15 481.492 338.111 481.353 338.111 481.198V454.196C338.111 453.469 338.32 452.927 338.738 452.571C339.171 452.2 339.697 452.014 340.316 452.014H343.59C344.178 452.014 344.674 452.068 345.076 452.177C345.478 452.269 345.834 452.432 346.144 452.664C346.469 452.896 346.771 453.221 347.049 453.639C347.328 454.042 347.614 454.545 347.909 455.148L353.759 466.13C354.1 466.796 354.433 467.454 354.758 468.104C355.098 468.738 355.423 469.381 355.733 470.031C356.042 470.665 356.344 471.292 356.638 471.911C356.932 472.53 357.219 473.15 357.497 473.769H357.521C357.474 472.685 357.435 471.555 357.404 470.379C357.389 469.203 357.381 468.08 357.381 467.012V452.919C357.381 452.765 357.428 452.625 357.521 452.502C357.613 452.378 357.768 452.269 357.985 452.177C358.202 452.084 358.488 452.022 358.844 451.991C359.2 451.944 359.657 451.921 360.214 451.921C360.74 451.921 361.181 451.944 361.537 451.991C361.893 452.022 362.164 452.084 362.35 452.177C362.551 452.269 362.69 452.378 362.768 452.502C362.845 452.625 362.884 452.765 362.884 452.919V479.921Z" fill="#07142C"/>
<path d="M393.554 456.681C393.554 457.13 393.531 457.517 393.484 457.842C393.453 458.167 393.399 458.43 393.322 458.631C393.26 458.817 393.175 458.948 393.066 459.026C392.973 459.103 392.857 459.142 392.718 459.142C392.517 459.142 392.192 459.002 391.743 458.724C391.294 458.445 390.698 458.143 389.955 457.818C389.212 457.493 388.322 457.191 387.285 456.913C386.264 456.634 385.072 456.495 383.71 456.495C382.255 456.495 380.939 456.75 379.763 457.261C378.586 457.756 377.58 458.468 376.745 459.397C375.909 460.31 375.266 461.417 374.817 462.717C374.369 464.002 374.144 465.426 374.144 466.989C374.144 468.707 374.369 470.224 374.817 471.54C375.282 472.84 375.924 473.931 376.745 474.813C377.565 475.696 378.548 476.361 379.693 476.81C380.854 477.259 382.131 477.483 383.524 477.483C384.205 477.483 384.878 477.406 385.544 477.251C386.21 477.097 386.829 476.864 387.401 476.555V469.59H381.713C381.434 469.59 381.218 469.419 381.063 469.079C380.908 468.723 380.831 468.127 380.831 467.291C380.831 466.858 380.846 466.494 380.877 466.2C380.924 465.906 380.986 465.674 381.063 465.503C381.14 465.318 381.233 465.186 381.342 465.109C381.45 465.016 381.574 464.969 381.713 464.969H391.859C392.107 464.969 392.323 465.016 392.509 465.109C392.71 465.186 392.881 465.31 393.02 465.48C393.175 465.65 393.291 465.859 393.368 466.107C393.446 466.339 393.484 466.61 393.484 466.92V478.877C393.484 479.341 393.399 479.751 393.229 480.107C393.074 480.448 392.741 480.718 392.231 480.92C391.735 481.121 391.116 481.33 390.373 481.547C389.63 481.763 388.856 481.949 388.051 482.104C387.262 482.259 386.457 482.375 385.637 482.452C384.832 482.529 384.019 482.568 383.199 482.568C380.8 482.568 378.648 482.228 376.745 481.547C374.856 480.85 373.254 479.852 371.939 478.551C370.623 477.236 369.617 475.642 368.92 473.769C368.224 471.88 367.875 469.744 367.875 467.361C367.875 464.9 368.247 462.694 368.99 460.744C369.733 458.778 370.785 457.114 372.147 455.752C373.51 454.374 375.15 453.322 377.07 452.594C379.004 451.867 381.156 451.503 383.524 451.503C384.824 451.503 386.008 451.596 387.076 451.782C388.144 451.952 389.073 452.169 389.862 452.432C390.667 452.68 391.333 452.95 391.859 453.245C392.385 453.539 392.749 453.794 392.95 454.011C393.167 454.227 393.322 454.537 393.415 454.939C393.508 455.326 393.554 455.907 393.554 456.681Z" fill="#07142C"/>
<path d="M426.801 466.687C426.801 469.179 426.492 471.408 425.873 473.374C425.253 475.34 424.332 477.011 423.11 478.389C421.887 479.751 420.37 480.796 418.559 481.523C416.764 482.235 414.682 482.591 412.314 482.591C409.976 482.591 407.933 482.289 406.184 481.686C404.451 481.067 403.003 480.13 401.843 478.877C400.682 477.623 399.807 476.029 399.219 474.094C398.646 472.159 398.36 469.868 398.36 467.221C398.36 464.791 398.669 462.609 399.289 460.674C399.908 458.724 400.829 457.068 402.052 455.706C403.274 454.343 404.783 453.299 406.579 452.571C408.39 451.844 410.487 451.48 412.871 451.48C415.146 451.48 417.151 451.782 418.884 452.385C420.633 452.989 422.088 453.918 423.249 455.172C424.425 456.425 425.308 458.012 425.896 459.931C426.499 461.835 426.801 464.087 426.801 466.687ZM420.393 467.012C420.393 465.434 420.269 464.002 420.022 462.717C419.774 461.417 419.348 460.31 418.745 459.397C418.157 458.468 417.367 457.756 416.377 457.261C415.386 456.75 414.148 456.495 412.662 456.495C411.16 456.495 409.907 456.781 408.901 457.354C407.895 457.911 407.082 458.662 406.463 459.606C405.844 460.55 405.403 461.657 405.139 462.926C404.892 464.18 404.768 465.511 404.768 466.92C404.768 468.56 404.892 470.038 405.139 471.354C405.387 472.654 405.805 473.769 406.393 474.697C406.981 475.626 407.771 476.338 408.761 476.833C409.752 477.313 410.998 477.553 412.499 477.553C414.001 477.553 415.254 477.275 416.261 476.717C417.267 476.16 418.079 475.402 418.698 474.442C419.317 473.482 419.751 472.368 419.999 471.099C420.262 469.814 420.393 468.452 420.393 467.012Z" fill="#07142C"/>
<path d="M460.536 473.049C460.536 474.628 460.242 476.013 459.654 477.205C459.066 478.397 458.269 479.395 457.262 480.2C456.256 480.989 455.08 481.585 453.733 481.988C452.387 482.39 450.947 482.591 449.415 482.591C448.378 482.591 447.411 482.506 446.513 482.336C445.631 482.166 444.849 481.964 444.168 481.732C443.487 481.485 442.914 481.229 442.45 480.966C442.001 480.703 441.676 480.471 441.475 480.27C441.273 480.068 441.126 479.782 441.034 479.41C440.956 479.024 440.917 478.474 440.917 477.762C440.917 477.282 440.933 476.88 440.964 476.555C440.995 476.23 441.041 475.967 441.103 475.765C441.181 475.564 441.273 475.425 441.382 475.347C441.506 475.255 441.645 475.208 441.8 475.208C442.016 475.208 442.318 475.34 442.705 475.603C443.108 475.851 443.618 476.129 444.237 476.439C444.857 476.748 445.592 477.035 446.443 477.298C447.31 477.545 448.308 477.669 449.438 477.669C450.181 477.669 450.847 477.584 451.435 477.414C452.023 477.228 452.518 476.973 452.921 476.648C453.339 476.323 453.656 475.92 453.873 475.44C454.089 474.961 454.198 474.427 454.198 473.838C454.198 473.157 454.012 472.577 453.641 472.097C453.269 471.602 452.781 471.168 452.178 470.797C451.59 470.41 450.916 470.054 450.158 469.729C449.399 469.388 448.618 469.032 447.813 468.661C447.008 468.289 446.226 467.871 445.468 467.407C444.71 466.927 444.029 466.362 443.425 465.712C442.837 465.047 442.357 464.265 441.985 463.367C441.614 462.47 441.428 461.394 441.428 460.14C441.428 458.701 441.691 457.439 442.218 456.356C442.759 455.257 443.479 454.351 444.377 453.639C445.29 452.912 446.358 452.37 447.581 452.014C448.819 451.658 450.127 451.48 451.505 451.48C452.217 451.48 452.929 451.534 453.641 451.643C454.353 451.751 455.018 451.898 455.637 452.084C456.256 452.269 456.806 452.478 457.286 452.711C457.765 452.943 458.083 453.136 458.238 453.291C458.392 453.446 458.493 453.577 458.539 453.686C458.601 453.794 458.648 453.941 458.679 454.127C458.725 454.297 458.756 454.521 458.772 454.8C458.787 455.063 458.795 455.396 458.795 455.798C458.795 456.247 458.779 456.627 458.748 456.936C458.733 457.246 458.694 457.501 458.632 457.702C458.586 457.903 458.508 458.051 458.4 458.143C458.307 458.236 458.176 458.283 458.005 458.283C457.835 458.283 457.564 458.174 457.193 457.958C456.821 457.741 456.365 457.509 455.823 457.261C455.281 456.998 454.654 456.766 453.942 456.565C453.23 456.348 452.449 456.24 451.597 456.24C450.932 456.24 450.351 456.325 449.856 456.495C449.361 456.65 448.943 456.874 448.602 457.168C448.277 457.447 448.03 457.787 447.859 458.19C447.705 458.592 447.627 459.018 447.627 459.467C447.627 460.132 447.805 460.713 448.161 461.208C448.533 461.688 449.02 462.121 449.624 462.508C450.243 462.88 450.94 463.236 451.714 463.576C452.487 463.901 453.277 464.25 454.082 464.621C454.887 464.993 455.676 465.418 456.45 465.898C457.224 466.362 457.913 466.927 458.516 467.593C459.12 468.243 459.607 469.017 459.979 469.915C460.35 470.797 460.536 471.842 460.536 473.049Z" fill="#07142C"/>
<path d="M489.21 479.782C489.395 480.339 489.511 480.78 489.558 481.105C489.604 481.43 489.542 481.678 489.372 481.848C489.202 482.003 488.9 482.096 488.467 482.127C488.033 482.173 487.437 482.197 486.679 482.197C485.89 482.197 485.27 482.181 484.822 482.15C484.388 482.135 484.055 482.096 483.823 482.034C483.591 481.957 483.428 481.856 483.336 481.732C483.243 481.608 483.165 481.446 483.103 481.245L481.084 475.208H469.8L467.896 481.082C467.834 481.299 467.749 481.485 467.641 481.639C467.548 481.779 467.385 481.895 467.153 481.988C466.936 482.065 466.619 482.119 466.201 482.15C465.799 482.181 465.265 482.197 464.599 482.197C463.887 482.197 463.33 482.173 462.927 482.127C462.525 482.081 462.246 481.972 462.092 481.802C461.937 481.616 461.883 481.361 461.929 481.036C461.976 480.711 462.092 480.277 462.277 479.736L471.541 453.082C471.634 452.819 471.742 452.61 471.866 452.455C471.99 452.285 472.183 452.161 472.447 452.084C472.725 451.991 473.104 451.937 473.584 451.921C474.064 451.89 474.699 451.875 475.488 451.875C476.401 451.875 477.129 451.89 477.671 451.921C478.212 451.937 478.63 451.991 478.924 452.084C479.234 452.161 479.451 452.285 479.574 452.455C479.714 452.625 479.83 452.858 479.923 453.152L489.21 479.782ZM475.418 457.749H475.395L471.146 470.518H479.667L475.418 457.749Z" fill="#07142C"/>
<path d="M510.291 454.521C510.291 454.986 510.268 455.381 510.221 455.706C510.19 456.015 510.128 456.263 510.036 456.449C509.958 456.634 509.865 456.774 509.757 456.866C509.649 456.959 509.525 457.006 509.385 457.006H499.565V465.085H508.782C508.921 465.085 509.045 465.124 509.153 465.201C509.262 465.279 509.355 465.41 509.432 465.596C509.525 465.782 509.587 466.03 509.618 466.339C509.664 466.649 509.687 467.036 509.687 467.5C509.687 467.964 509.664 468.351 509.618 468.661C509.587 468.97 509.525 469.226 509.432 469.427C509.355 469.628 509.262 469.775 509.153 469.868C509.045 469.946 508.921 469.984 508.782 469.984H499.565V481.175C499.565 481.345 499.518 481.492 499.425 481.616C499.332 481.74 499.162 481.848 498.914 481.941C498.682 482.019 498.373 482.081 497.986 482.127C497.599 482.173 497.103 482.197 496.5 482.197C495.912 482.197 495.416 482.173 495.014 482.127C494.627 482.081 494.317 482.019 494.085 481.941C493.853 481.848 493.683 481.74 493.574 481.616C493.482 481.492 493.435 481.345 493.435 481.175V453.941C493.435 453.26 493.605 452.772 493.946 452.478C494.302 452.169 494.735 452.014 495.246 452.014H509.385C509.525 452.014 509.649 452.06 509.757 452.153C509.865 452.231 509.958 452.37 510.036 452.571C510.128 452.757 510.19 453.012 510.221 453.337C510.268 453.662 510.291 454.057 510.291 454.521Z" fill="#07142C"/>
<path d="M533.067 479.666C533.067 480.115 533.044 480.494 532.998 480.804C532.967 481.098 532.912 481.338 532.835 481.523C532.758 481.709 532.657 481.848 532.533 481.941C532.425 482.019 532.301 482.057 532.162 482.057H517.07C516.56 482.057 516.126 481.91 515.77 481.616C515.43 481.307 515.259 480.811 515.259 480.13V453.941C515.259 453.26 515.43 452.772 515.77 452.478C516.126 452.169 516.56 452.014 517.07 452.014H532.069C532.208 452.014 532.332 452.053 532.44 452.13C532.549 452.207 532.642 452.347 532.719 452.548C532.796 452.734 532.851 452.981 532.881 453.291C532.928 453.585 532.951 453.964 532.951 454.429C532.951 454.862 532.928 455.233 532.881 455.543C532.851 455.837 532.796 456.077 532.719 456.263C532.642 456.449 532.549 456.588 532.44 456.681C532.332 456.758 532.208 456.797 532.069 456.797H521.342V464.133H530.42C530.56 464.133 530.684 464.18 530.792 464.273C530.916 464.35 531.016 464.482 531.094 464.667C531.171 464.838 531.225 465.078 531.256 465.387C531.303 465.681 531.326 466.045 531.326 466.478C531.326 466.927 531.303 467.299 531.256 467.593C531.225 467.887 531.171 468.127 531.094 468.313C531.016 468.483 530.916 468.607 530.792 468.684C530.684 468.761 530.56 468.8 530.42 468.8H521.342V477.275H532.162C532.301 477.275 532.425 477.321 532.533 477.414C532.657 477.491 532.758 477.623 532.835 477.809C532.912 477.994 532.967 478.242 532.998 478.551C533.044 478.846 533.067 479.217 533.067 479.666Z" fill="#07142C"/>
<path d="M558.467 454.521C558.467 454.97 558.444 455.357 558.397 455.682C558.366 455.992 558.312 456.247 558.235 456.449C558.157 456.634 558.057 456.774 557.933 456.866C557.825 456.959 557.701 457.006 557.562 457.006H550.039V481.221C550.039 481.376 549.985 481.516 549.877 481.639C549.784 481.763 549.621 481.864 549.389 481.941C549.157 482.019 548.84 482.081 548.437 482.127C548.05 482.173 547.563 482.197 546.974 482.197C546.386 482.197 545.891 482.173 545.489 482.127C545.102 482.081 544.792 482.019 544.56 481.941C544.328 481.864 544.157 481.763 544.049 481.639C543.956 481.516 543.91 481.376 543.91 481.221V457.006H536.387C536.233 457.006 536.101 456.959 535.993 456.866C535.884 456.774 535.791 456.634 535.714 456.449C535.637 456.247 535.575 455.992 535.528 455.682C535.497 455.357 535.482 454.97 535.482 454.521C535.482 454.057 535.497 453.662 535.528 453.337C535.575 453.012 535.637 452.757 535.714 452.571C535.791 452.37 535.884 452.231 535.993 452.153C536.101 452.06 536.233 452.014 536.387 452.014H557.562C557.701 452.014 557.825 452.06 557.933 452.153C558.057 452.231 558.157 452.37 558.235 452.571C558.312 452.757 558.366 453.012 558.397 453.337C558.444 453.662 558.467 454.057 558.467 454.521Z" fill="#07142C"/>
<path d="M574.162 470.658V481.221C574.162 481.376 574.108 481.516 573.999 481.639C573.907 481.763 573.744 481.864 573.512 481.941C573.28 482.019 572.962 482.081 572.56 482.127C572.173 482.173 571.686 482.197 571.097 482.197C570.494 482.197 569.998 482.173 569.611 482.127C569.224 482.081 568.907 482.019 568.659 481.941C568.427 481.864 568.265 481.763 568.172 481.639C568.079 481.516 568.033 481.376 568.033 481.221V470.658L559.814 454.289C559.52 453.717 559.326 453.275 559.233 452.966C559.156 452.641 559.202 452.401 559.373 452.246C559.558 452.076 559.891 451.975 560.371 451.944C560.851 451.898 561.516 451.875 562.368 451.875C563.08 451.875 563.645 451.89 564.062 451.921C564.496 451.952 564.836 452.014 565.084 452.107C565.332 452.184 565.51 452.293 565.618 452.432C565.742 452.571 565.858 452.749 565.966 452.966L569.31 460.349C569.635 461.061 569.952 461.812 570.261 462.601C570.587 463.391 570.912 464.219 571.237 465.085H571.283C571.577 464.25 571.879 463.437 572.189 462.648C572.498 461.858 572.8 461.107 573.094 460.395L576.391 453.059C576.468 452.811 576.561 452.618 576.669 452.478C576.793 452.324 576.971 452.2 577.204 452.107C577.436 452.014 577.753 451.952 578.155 451.921C578.558 451.89 579.092 451.875 579.757 451.875C580.64 451.875 581.321 451.898 581.801 451.944C582.296 451.975 582.629 452.076 582.799 452.246C582.985 452.401 583.031 452.641 582.938 452.966C582.845 453.291 582.66 453.732 582.381 454.289L574.162 470.658Z" fill="#07142C"/>
<path d="M624.521 466.687C624.521 469.179 624.211 471.408 623.592 473.374C622.973 475.34 622.052 477.011 620.829 478.389C619.606 479.751 618.089 480.796 616.278 481.523C614.483 482.235 612.401 482.591 610.033 482.591C607.696 482.591 605.653 482.289 603.904 481.686C602.17 481.067 600.723 480.13 599.562 478.877C598.401 477.623 597.526 476.029 596.938 474.094C596.366 472.159 596.079 469.868 596.079 467.221C596.079 464.791 596.389 462.609 597.008 460.674C597.627 458.724 598.548 457.068 599.771 455.706C600.994 454.343 602.503 453.299 604.298 452.571C606.109 451.844 608.206 451.48 610.59 451.48C612.865 451.48 614.87 451.782 616.603 452.385C618.352 452.989 619.807 453.918 620.968 455.172C622.145 456.425 623.027 458.012 623.615 459.931C624.219 461.835 624.521 464.087 624.521 466.687ZM618.113 467.012C618.113 465.434 617.989 464.002 617.741 462.717C617.493 461.417 617.068 460.31 616.464 459.397C615.876 458.468 615.087 457.756 614.096 457.261C613.105 456.75 611.867 456.495 610.381 456.495C608.88 456.495 607.626 456.781 606.62 457.354C605.614 457.911 604.801 458.662 604.182 459.606C603.563 460.55 603.122 461.657 602.859 462.926C602.611 464.18 602.487 465.511 602.487 466.92C602.487 468.56 602.611 470.038 602.859 471.354C603.106 472.654 603.524 473.769 604.112 474.697C604.701 475.626 605.49 476.338 606.481 476.833C607.471 477.313 608.717 477.553 610.219 477.553C611.72 477.553 612.974 477.275 613.98 476.717C614.986 476.16 615.799 475.402 616.418 474.442C617.037 473.482 617.47 472.368 617.718 471.099C617.981 469.814 618.113 468.452 618.113 467.012Z" fill="#07142C"/>
<path d="M651.964 481.268C651.964 481.438 651.933 481.585 651.871 481.709C651.809 481.817 651.662 481.91 651.429 481.988C651.197 482.065 650.857 482.119 650.408 482.15C649.959 482.181 649.348 482.197 648.574 482.197C647.924 482.197 647.405 482.181 647.018 482.15C646.631 482.119 646.322 482.065 646.089 481.988C645.873 481.895 645.718 481.786 645.625 481.663C645.532 481.523 645.455 481.361 645.393 481.175L642.7 474.465C642.375 473.707 642.057 473.033 641.748 472.445C641.438 471.857 641.09 471.37 640.703 470.983C640.332 470.58 639.898 470.278 639.403 470.077C638.908 469.876 638.335 469.775 637.685 469.775H635.781V481.221C635.781 481.376 635.727 481.516 635.618 481.639C635.526 481.763 635.363 481.864 635.131 481.941C634.899 482.019 634.589 482.081 634.202 482.127C633.815 482.173 633.32 482.197 632.716 482.197C632.128 482.197 631.633 482.173 631.23 482.127C630.843 482.081 630.534 482.019 630.302 481.941C630.069 481.864 629.907 481.763 629.814 481.639C629.721 481.516 629.675 481.376 629.675 481.221V453.941C629.675 453.26 629.845 452.772 630.186 452.478C630.542 452.169 630.975 452.014 631.486 452.014H639.264C640.053 452.014 640.703 452.029 641.214 452.06C641.725 452.091 642.189 452.13 642.607 452.177C643.814 452.347 644.898 452.641 645.857 453.059C646.832 453.477 647.653 454.026 648.318 454.707C648.999 455.373 649.518 456.17 649.874 457.099C650.23 458.012 650.408 459.064 650.408 460.256C650.408 461.262 650.276 462.183 650.013 463.019C649.766 463.839 649.394 464.575 648.899 465.225C648.403 465.875 647.792 466.44 647.065 466.92C646.337 467.399 645.509 467.786 644.58 468.08C645.029 468.297 645.447 468.56 645.834 468.87C646.237 469.179 646.608 469.559 646.949 470.007C647.305 470.441 647.637 470.944 647.947 471.517C648.256 472.074 648.558 472.708 648.852 473.42L651.383 479.341C651.615 479.929 651.77 480.362 651.847 480.641C651.925 480.904 651.964 481.113 651.964 481.268ZM644.093 460.883C644.093 459.892 643.868 459.057 643.419 458.376C642.971 457.695 642.235 457.215 641.214 456.936C640.904 456.859 640.548 456.797 640.146 456.75C639.759 456.704 639.217 456.681 638.521 456.681H635.781V465.201H638.892C639.759 465.201 640.517 465.101 641.167 464.9C641.817 464.683 642.359 464.389 642.793 464.017C643.226 463.63 643.551 463.174 643.768 462.648C643.984 462.121 644.093 461.533 644.093 460.883Z" fill="#07142C"/>
<path d="M680.196 456.681C680.196 457.13 680.173 457.517 680.126 457.842C680.095 458.167 680.041 458.43 679.964 458.631C679.902 458.817 679.817 458.948 679.708 459.026C679.615 459.103 679.499 459.142 679.36 459.142C679.159 459.142 678.834 459.002 678.385 458.724C677.936 458.445 677.34 458.143 676.597 457.818C675.854 457.493 674.964 457.191 673.927 456.913C672.906 456.634 671.714 456.495 670.352 456.495C668.897 456.495 667.581 456.75 666.405 457.261C665.228 457.756 664.222 458.468 663.386 459.397C662.551 460.31 661.908 461.417 661.459 462.717C661.011 464.002 660.786 465.426 660.786 466.989C660.786 468.707 661.011 470.224 661.459 471.54C661.924 472.84 662.566 473.931 663.386 474.813C664.207 475.696 665.19 476.361 666.335 476.81C667.496 477.259 668.773 477.483 670.166 477.483C670.847 477.483 671.52 477.406 672.186 477.251C672.851 477.097 673.471 476.864 674.043 476.555V469.59H668.355C668.076 469.59 667.86 469.419 667.705 469.079C667.55 468.723 667.473 468.127 667.473 467.291C667.473 466.858 667.488 466.494 667.519 466.2C667.566 465.906 667.627 465.674 667.705 465.503C667.782 465.318 667.875 465.186 667.983 465.109C668.092 465.016 668.216 464.969 668.355 464.969H678.501C678.749 464.969 678.965 465.016 679.151 465.109C679.352 465.186 679.523 465.31 679.662 465.48C679.817 465.65 679.933 465.859 680.01 466.107C680.087 466.339 680.126 466.61 680.126 466.92V478.877C680.126 479.341 680.041 479.751 679.871 480.107C679.716 480.448 679.383 480.718 678.872 480.92C678.377 481.121 677.758 481.33 677.015 481.547C676.272 481.763 675.498 481.949 674.693 482.104C673.904 482.259 673.099 482.375 672.279 482.452C671.474 482.529 670.661 482.568 669.841 482.568C667.442 482.568 665.29 482.228 663.386 481.547C661.498 480.85 659.896 479.852 658.58 478.551C657.265 477.236 656.259 475.642 655.562 473.769C654.866 471.88 654.517 469.744 654.517 467.361C654.517 464.9 654.889 462.694 655.632 460.744C656.375 458.778 657.427 457.114 658.789 455.752C660.151 454.374 661.792 453.322 663.712 452.594C665.646 451.867 667.798 451.503 670.166 451.503C671.466 451.503 672.65 451.596 673.718 451.782C674.786 451.952 675.715 452.169 676.504 452.432C677.309 452.68 677.975 452.95 678.501 453.245C679.027 453.539 679.391 453.794 679.592 454.011C679.809 454.227 679.964 454.537 680.057 454.939C680.149 455.326 680.196 455.907 680.196 456.681Z" fill="#07142C"/>
<path d="M711.029 479.782C711.214 480.339 711.33 480.78 711.377 481.105C711.423 481.43 711.361 481.678 711.191 481.848C711.021 482.003 710.719 482.096 710.286 482.127C709.852 482.173 709.256 482.197 708.498 482.197C707.708 482.197 707.089 482.181 706.64 482.15C706.207 482.135 705.874 482.096 705.642 482.034C705.41 481.957 705.247 481.856 705.155 481.732C705.062 481.608 704.984 481.446 704.922 481.245L702.902 475.208H691.619L689.715 481.082C689.653 481.299 689.568 481.485 689.46 481.639C689.367 481.779 689.204 481.895 688.972 481.988C688.755 482.065 688.438 482.119 688.02 482.15C687.618 482.181 687.084 482.197 686.418 482.197C685.706 482.197 685.149 482.173 684.746 482.127C684.344 482.081 684.065 481.972 683.911 481.802C683.756 481.616 683.702 481.361 683.748 481.036C683.795 480.711 683.911 480.277 684.096 479.736L693.36 453.082C693.453 452.819 693.561 452.61 693.685 452.455C693.809 452.285 694.002 452.161 694.266 452.084C694.544 451.991 694.923 451.937 695.403 451.921C695.883 451.89 696.518 451.875 697.307 451.875C698.22 451.875 698.948 451.89 699.489 451.921C700.031 451.937 700.449 451.991 700.743 452.084C701.053 452.161 701.269 452.285 701.393 452.455C701.533 452.625 701.649 452.858 701.742 453.152L711.029 479.782ZM697.237 457.749H697.214L692.965 470.518H701.486L697.237 457.749Z" fill="#07142C"/>
<path d="M740.027 479.921C740.027 480.277 739.965 480.595 739.841 480.873C739.717 481.152 739.547 481.384 739.33 481.57C739.129 481.755 738.882 481.895 738.588 481.988C738.309 482.065 738.023 482.104 737.729 482.104H735.128C734.586 482.104 734.114 482.05 733.712 481.941C733.325 481.833 732.961 481.639 732.621 481.361C732.296 481.067 731.978 480.68 731.669 480.2C731.359 479.705 731.011 479.07 730.624 478.296L723.148 464.25C722.715 463.414 722.274 462.516 721.825 461.556C721.376 460.581 720.973 459.637 720.617 458.724H720.571C720.633 459.838 720.679 460.953 720.71 462.067C720.741 463.166 720.757 464.304 720.757 465.48V481.198C720.757 481.353 720.71 481.492 720.617 481.616C720.54 481.74 720.393 481.848 720.176 481.941C719.975 482.019 719.696 482.081 719.34 482.127C718.984 482.173 718.528 482.197 717.97 482.197C717.429 482.197 716.98 482.173 716.624 482.127C716.268 482.081 715.989 482.019 715.788 481.941C715.587 481.848 715.448 481.74 715.37 481.616C715.293 481.492 715.254 481.353 715.254 481.198V454.196C715.254 453.469 715.463 452.927 715.881 452.571C716.314 452.2 716.841 452.014 717.46 452.014H720.733C721.322 452.014 721.817 452.068 722.219 452.177C722.622 452.269 722.978 452.432 723.287 452.664C723.612 452.896 723.914 453.221 724.193 453.639C724.471 454.042 724.758 454.545 725.052 455.148L730.903 466.13C731.243 466.796 731.576 467.454 731.901 468.104C732.241 468.738 732.567 469.381 732.876 470.031C733.186 470.665 733.487 471.292 733.782 471.911C734.076 472.53 734.362 473.15 734.641 473.769H734.664C734.617 472.685 734.579 471.555 734.548 470.379C734.532 469.203 734.525 468.08 734.525 467.012V452.919C734.525 452.765 734.571 452.625 734.664 452.502C734.757 452.378 734.911 452.269 735.128 452.177C735.345 452.084 735.631 452.022 735.987 451.991C736.343 451.944 736.8 451.921 737.357 451.921C737.883 451.921 738.324 451.944 738.68 451.991C739.036 452.022 739.307 452.084 739.493 452.177C739.694 452.269 739.834 452.378 739.911 452.502C739.988 452.625 740.027 452.765 740.027 452.919V479.921Z" fill="#07142C"/>
<path d="M752.727 481.221C752.727 481.376 752.673 481.516 752.564 481.639C752.472 481.763 752.309 481.864 752.077 481.941C751.845 482.019 751.535 482.081 751.148 482.127C750.761 482.173 750.266 482.197 749.662 482.197C749.074 482.197 748.579 482.173 748.176 482.127C747.789 482.081 747.48 482.019 747.248 481.941C747.016 481.864 746.845 481.763 746.737 481.639C746.644 481.516 746.598 481.376 746.598 481.221V452.85C746.598 452.695 746.644 452.556 746.737 452.432C746.845 452.308 747.016 452.207 747.248 452.13C747.495 452.053 747.813 451.991 748.2 451.944C748.587 451.898 749.074 451.875 749.662 451.875C750.266 451.875 750.761 451.898 751.148 451.944C751.535 451.991 751.845 452.053 752.077 452.13C752.309 452.207 752.472 452.308 752.564 452.432C752.673 452.556 752.727 452.695 752.727 452.85V481.221Z" fill="#07142C"/>
<path d="M777.082 473.049C777.082 474.628 776.788 476.013 776.2 477.205C775.612 478.397 774.814 479.395 773.808 480.2C772.802 480.989 771.626 481.585 770.279 481.988C768.933 482.39 767.493 482.591 765.961 482.591C764.924 482.591 763.956 482.506 763.059 482.336C762.176 482.166 761.395 481.964 760.714 481.732C760.033 481.485 759.46 481.229 758.996 480.966C758.547 480.703 758.222 480.471 758.02 480.27C757.819 480.068 757.672 479.782 757.579 479.41C757.502 479.024 757.463 478.474 757.463 477.762C757.463 477.282 757.479 476.88 757.51 476.555C757.541 476.23 757.587 475.967 757.649 475.765C757.726 475.564 757.819 475.425 757.928 475.347C758.052 475.255 758.191 475.208 758.346 475.208C758.562 475.208 758.864 475.34 759.251 475.603C759.653 475.851 760.164 476.129 760.783 476.439C761.403 476.748 762.138 477.035 762.989 477.298C763.856 477.545 764.854 477.669 765.984 477.669C766.727 477.669 767.393 477.584 767.981 477.414C768.569 477.228 769.064 476.973 769.467 476.648C769.885 476.323 770.202 475.92 770.419 475.44C770.635 474.961 770.744 474.427 770.744 473.838C770.744 473.157 770.558 472.577 770.186 472.097C769.815 471.602 769.327 471.168 768.724 470.797C768.136 470.41 767.462 470.054 766.704 469.729C765.945 469.388 765.164 469.032 764.359 468.661C763.554 468.289 762.772 467.871 762.014 467.407C761.255 466.927 760.574 466.362 759.971 465.712C759.383 465.047 758.903 464.265 758.531 463.367C758.16 462.47 757.974 461.394 757.974 460.14C757.974 458.701 758.237 457.439 758.763 456.356C759.305 455.257 760.025 454.351 760.923 453.639C761.836 452.912 762.904 452.37 764.127 452.014C765.365 451.658 766.673 451.48 768.05 451.48C768.762 451.48 769.474 451.534 770.186 451.643C770.898 451.751 771.564 451.898 772.183 452.084C772.802 452.269 773.352 452.478 773.832 452.711C774.311 452.943 774.629 453.136 774.783 453.291C774.938 453.446 775.039 453.577 775.085 453.686C775.147 453.794 775.194 453.941 775.225 454.127C775.271 454.297 775.302 454.521 775.317 454.8C775.333 455.063 775.341 455.396 775.341 455.798C775.341 456.247 775.325 456.627 775.294 456.936C775.279 457.246 775.24 457.501 775.178 457.702C775.132 457.903 775.054 458.051 774.946 458.143C774.853 458.236 774.722 458.283 774.551 458.283C774.381 458.283 774.11 458.174 773.739 457.958C773.367 457.741 772.911 457.509 772.369 457.261C771.827 456.998 771.2 456.766 770.488 456.565C769.776 456.348 768.995 456.24 768.143 456.24C767.478 456.24 766.897 456.325 766.402 456.495C765.907 456.65 765.489 456.874 765.148 457.168C764.823 457.447 764.576 457.787 764.405 458.19C764.251 458.592 764.173 459.018 764.173 459.467C764.173 460.132 764.351 460.713 764.707 461.208C765.079 461.688 765.566 462.121 766.17 462.508C766.789 462.88 767.485 463.236 768.259 463.576C769.033 463.901 769.823 464.25 770.628 464.621C771.432 464.993 772.222 465.418 772.996 465.898C773.77 466.362 774.458 466.927 775.062 467.593C775.666 468.243 776.153 469.017 776.525 469.915C776.896 470.797 777.082 471.842 777.082 473.049Z" fill="#07142C"/>
<path d="M805.755 479.782C805.941 480.339 806.057 480.78 806.104 481.105C806.15 481.43 806.088 481.678 805.918 481.848C805.748 482.003 805.446 482.096 805.013 482.127C804.579 482.173 803.983 482.197 803.225 482.197C802.435 482.197 801.816 482.181 801.367 482.15C800.934 482.135 800.601 482.096 800.369 482.034C800.137 481.957 799.974 481.856 799.882 481.732C799.789 481.608 799.711 481.446 799.649 481.245L797.629 475.208H786.346L784.442 481.082C784.38 481.299 784.295 481.485 784.187 481.639C784.094 481.779 783.931 481.895 783.699 481.988C783.482 482.065 783.165 482.119 782.747 482.15C782.345 482.181 781.811 482.197 781.145 482.197C780.433 482.197 779.876 482.173 779.473 482.127C779.071 482.081 778.792 481.972 778.638 481.802C778.483 481.616 778.429 481.361 778.475 481.036C778.521 480.711 778.638 480.277 778.823 479.736L788.087 453.082C788.18 452.819 788.288 452.61 788.412 452.455C788.536 452.285 788.729 452.161 788.993 452.084C789.271 451.991 789.65 451.937 790.13 451.921C790.61 451.89 791.245 451.875 792.034 451.875C792.947 451.875 793.675 451.89 794.216 451.921C794.758 451.937 795.176 451.991 795.47 452.084C795.78 452.161 795.996 452.285 796.12 452.455C796.26 452.625 796.376 452.858 796.469 453.152L805.755 479.782ZM791.964 457.749H791.941L787.692 470.518H796.213L791.964 457.749Z" fill="#07142C"/>
<path d="M826.256 454.521C826.256 454.97 826.234 455.357 826.188 455.682C826.157 455.992 826.102 456.247 826.024 456.449C825.947 456.634 825.846 456.774 825.722 456.866C825.614 456.959 825.491 457.006 825.352 457.006H817.829V481.221C817.829 481.376 817.775 481.516 817.667 481.639C817.574 481.763 817.411 481.864 817.178 481.941C816.946 482.019 816.629 482.081 816.227 482.127C815.84 482.173 815.352 482.197 814.764 482.197C814.176 482.197 813.681 482.173 813.279 482.127C812.892 482.081 812.581 482.019 812.349 481.941C812.117 481.864 811.948 481.763 811.839 481.639C811.747 481.516 811.699 481.376 811.699 481.221V457.006H804.177C804.022 457.006 803.89 456.959 803.782 456.866C803.674 456.774 803.581 456.634 803.503 456.449C803.426 456.247 803.364 455.992 803.318 455.682C803.287 455.357 803.271 454.97 803.271 454.521C803.271 454.057 803.287 453.662 803.318 453.337C803.364 453.012 803.426 452.757 803.503 452.571C803.581 452.37 803.674 452.231 803.782 452.153C803.89 452.06 804.022 452.014 804.177 452.014H825.352C825.491 452.014 825.614 452.06 825.722 452.153C825.846 452.231 825.947 452.37 826.024 452.571C826.102 452.757 826.157 453.012 826.188 453.337C826.234 453.662 826.256 454.057 826.256 454.521Z" fill="#07142C"/>
<path d="M835.938 481.221C835.938 481.376 835.884 481.516 835.776 481.639C835.683 481.763 835.52 481.864 835.288 481.941C835.056 482.019 834.746 482.081 834.359 482.127C833.972 482.173 833.477 482.197 832.873 482.197C832.285 482.197 831.79 482.173 831.387 482.127C831 482.081 830.691 482.019 830.459 481.941C830.227 481.864 830.056 481.763 829.948 481.639C829.855 481.516 829.809 481.376 829.809 481.221V452.85C829.809 452.695 829.855 452.556 829.948 452.432C830.056 452.308 830.227 452.207 830.459 452.13C830.706 452.053 831.024 451.991 831.411 451.944C831.798 451.898 832.285 451.875 832.873 451.875C833.477 451.875 833.972 451.898 834.359 451.944C834.746 451.991 835.056 452.053 835.288 452.13C835.52 452.207 835.683 452.308 835.776 452.432C835.884 452.556 835.938 452.695 835.938 452.85V481.221Z" fill="#07142C"/>
<path d="M869.51 466.687C869.51 469.179 869.201 471.408 868.582 473.374C867.963 475.34 867.042 477.011 865.819 478.389C864.596 479.751 863.079 480.796 861.268 481.523C859.473 482.235 857.391 482.591 855.023 482.591C852.686 482.591 850.642 482.289 848.893 481.686C847.16 481.067 845.713 480.13 844.552 478.877C843.391 477.623 842.516 476.029 841.928 474.094C841.355 472.159 841.069 469.868 841.069 467.221C841.069 464.791 841.379 462.609 841.998 460.674C842.617 458.724 843.538 457.068 844.761 455.706C845.984 454.343 847.493 453.299 849.288 452.571C851.099 451.844 853.196 451.48 855.58 451.48C857.855 451.48 859.86 451.782 861.593 452.385C863.342 452.989 864.797 453.918 865.958 455.172C867.134 456.425 868.017 458.012 868.605 459.931C869.209 461.835 869.51 464.087 869.51 466.687ZM863.102 467.012C863.102 465.434 862.979 464.002 862.731 462.717C862.483 461.417 862.058 460.31 861.454 459.397C860.866 458.468 860.076 457.756 859.086 457.261C858.095 456.75 856.857 456.495 855.371 456.495C853.87 456.495 852.616 456.781 851.61 457.354C850.604 457.911 849.791 458.662 849.172 459.606C848.553 460.55 848.112 461.657 847.849 462.926C847.601 464.18 847.477 465.511 847.477 466.92C847.477 468.56 847.601 470.038 847.849 471.354C848.096 472.654 848.514 473.769 849.102 474.697C849.691 475.626 850.48 476.338 851.47 476.833C852.461 477.313 853.707 477.553 855.209 477.553C856.71 477.553 857.964 477.275 858.97 476.717C859.976 476.16 860.788 475.402 861.408 474.442C862.027 473.482 862.46 472.368 862.708 471.099C862.971 469.814 863.102 468.452 863.102 467.012Z" fill="#07142C"/>
<path d="M899.438 479.921C899.438 480.277 899.376 480.595 899.252 480.873C899.128 481.152 898.958 481.384 898.741 481.57C898.54 481.755 898.292 481.895 897.998 481.988C897.72 482.065 897.433 482.104 897.139 482.104H894.539C893.997 482.104 893.525 482.05 893.123 481.941C892.736 481.833 892.372 481.639 892.031 481.361C891.706 481.067 891.389 480.68 891.079 480.2C890.77 479.705 890.422 479.07 890.035 478.296L882.559 464.25C882.125 463.414 881.684 462.516 881.235 461.556C880.786 460.581 880.384 459.637 880.028 458.724H879.982C880.043 459.838 880.09 460.953 880.121 462.067C880.152 463.166 880.167 464.304 880.167 465.48V481.198C880.167 481.353 880.121 481.492 880.028 481.616C879.951 481.74 879.804 481.848 879.587 481.941C879.386 482.019 879.107 482.081 878.751 482.127C878.395 482.173 877.938 482.197 877.381 482.197C876.839 482.197 876.391 482.173 876.035 482.127C875.679 482.081 875.4 482.019 875.199 481.941C874.997 481.848 874.858 481.74 874.781 481.616C874.703 481.492 874.665 481.353 874.665 481.198V454.196C874.665 453.469 874.874 452.927 875.292 452.571C875.725 452.2 876.251 452.014 876.87 452.014H880.144C880.732 452.014 881.228 452.068 881.63 452.177C882.032 452.269 882.388 452.432 882.698 452.664C883.023 452.896 883.325 453.221 883.603 453.639C883.882 454.042 884.168 454.545 884.462 455.148L890.313 466.13C890.654 466.796 890.987 467.454 891.312 468.104C891.652 468.738 891.977 469.381 892.287 470.031C892.596 470.665 892.898 471.292 893.192 471.911C893.486 472.53 893.773 473.15 894.051 473.769H894.074C894.028 472.685 893.989 471.555 893.958 470.379C893.943 469.203 893.935 468.08 893.935 467.012V452.919C893.935 452.765 893.982 452.625 894.074 452.502C894.167 452.378 894.322 452.269 894.539 452.177C894.755 452.084 895.042 452.022 895.398 451.991C895.754 451.944 896.21 451.921 896.768 451.921C897.294 451.921 897.735 451.944 898.091 451.991C898.447 452.022 898.718 452.084 898.904 452.177C899.105 452.269 899.244 452.378 899.322 452.502C899.399 452.625 899.438 452.765 899.438 452.919V479.921Z" fill="#07142C"/>
</svg>
