<?xml version="1.0" standalone="no"?>
<!DOCTYPE svg PUBLIC "-//W3C//DTD SVG 20010904//EN"
 "http://www.w3.org/TR/2001/REC-SVG-20010904/DTD/svg10.dtd">
<svg version="1.0" xmlns="http://www.w3.org/2000/svg"
 width="6250.000000pt" height="2232.000000pt" viewBox="0 0 6250.000000 2232.000000"
 preserveAspectRatio="xMidYMid meet">

<g transform="translate(0.000000,2232.000000) scale(0.100000,-0.100000)"
fill="#006FB7" stroke="none">
<path d="M7420 17570 c-7 -93 3 -476 16 -560 8 -52 14 -120 14 -151 0 -31 7
-78 15 -105 8 -27 15 -73 15 -102 0 -29 7 -69 15 -89 8 -19 15 -55 15 -80 0
-24 6 -59 14 -77 7 -18 17 -61 21 -94 4 -34 11 -64 15 -67 5 -3 12 -31 16 -62
3 -31 13 -68 20 -82 8 -14 14 -39 14 -56 1 -16 7 -41 15 -55 8 -14 15 -41 15
-60 0 -19 7 -44 15 -54 8 -11 15 -31 15 -45 0 -14 7 -39 15 -55 8 -15 15 -37
15 -48 0 -10 6 -31 14 -46 8 -15 18 -45 22 -66 4 -22 13 -51 20 -65 8 -14 14
-35 14 -46 0 -11 7 -29 15 -39 8 -11 15 -29 15 -40 0 -12 7 -30 15 -40 8 -11
15 -31 15 -45 0 -14 7 -35 15 -45 8 -11 15 -29 15 -41 0 -12 7 -30 15 -41 8
-10 15 -26 15 -34 0 -8 7 -28 15 -44 8 -15 15 -33 15 -40 1 -6 9 -29 20 -51
11 -22 20 -47 20 -55 0 -8 7 -24 15 -34 8 -11 15 -28 15 -37 0 -10 6 -30 14
-46 7 -15 21 -46 31 -68 9 -22 23 -53 31 -68 8 -16 14 -33 14 -38 0 -9 13 -42
50 -124 5 -11 19 -45 31 -75 11 -30 27 -68 34 -85 20 -45 59 -135 95 -220 27
-63 49 -112 66 -148 8 -16 14 -37 14 -47 0 -9 7 -23 15 -30 8 -7 15 -19 15
-27 0 -8 6 -27 14 -41 32 -63 56 -120 56 -136 0 -9 5 -16 10 -16 6 0 10 -5 10
-11 0 -12 33 -89 51 -119 5 -8 12 -22 15 -30 9 -23 73 -159 105 -223 16 -31
29 -63 29 -71 0 -7 7 -19 15 -26 8 -7 15 -20 15 -30 0 -10 7 -23 15 -30 8 -7
15 -23 15 -36 0 -12 4 -25 9 -29 6 -3 21 -31 36 -63 14 -31 32 -69 40 -84 8
-14 15 -31 15 -38 0 -6 7 -18 15 -26 8 -9 15 -26 15 -39 0 -13 4 -25 8 -27 7
-3 38 -64 124 -248 17 -36 35 -72 39 -80 5 -8 12 -22 15 -30 3 -8 10 -22 15
-30 5 -8 12 -22 15 -30 9 -23 74 -162 90 -192 8 -14 14 -33 14 -42 0 -9 4 -16
9 -16 5 0 13 -10 16 -22 4 -13 24 -59 45 -103 21 -44 50 -107 64 -140 15 -33
33 -72 41 -87 8 -14 15 -36 15 -47 0 -12 4 -21 10 -21 5 0 13 -18 16 -40 4
-22 13 -45 20 -51 8 -6 14 -21 14 -33 0 -12 7 -31 15 -42 8 -10 15 -31 15 -45
0 -14 7 -34 15 -45 8 -10 15 -28 15 -39 0 -11 7 -33 15 -48 8 -15 17 -45 21
-65 4 -20 10 -41 14 -47 5 -5 11 -28 15 -50 4 -22 13 -57 21 -78 8 -20 14 -50
14 -66 0 -16 7 -42 15 -57 8 -16 15 -47 15 -69 0 -22 7 -58 15 -80 8 -22 14
-63 15 -90 0 -28 7 -78 17 -110 22 -81 26 -681 5 -732 -8 -17 -17 -65 -20
-105 -5 -53 -11 -73 -21 -73 -17 0 -35 67 -56 210 -18 124 -32 197 -51 255 -8
25 -14 55 -14 66 0 12 -7 35 -15 50 -8 16 -15 39 -15 52 0 13 -5 33 -12 45 -6
12 -15 35 -19 52 -10 39 -36 112 -54 152 -8 17 -15 36 -15 41 0 6 -6 23 -14
39 -8 15 -22 48 -31 73 -9 25 -21 52 -26 60 -5 8 -12 22 -15 30 -5 13 -120
244 -163 328 -8 15 -18 28 -23 30 -4 2 -8 8 -8 14 0 8 -55 103 -102 176 -10
15 -21 34 -25 42 -4 8 -29 47 -55 86 -26 39 -48 74 -48 78 0 4 -6 14 -12 21
-25 27 -54 69 -83 117 -17 28 -115 163 -217 299 -54 71 -98 134 -98 139 0 6
-4 10 -8 10 -7 0 -101 121 -160 208 -118 172 -155 226 -197 287 -27 39 -76
111 -110 160 -34 50 -83 122 -110 160 -112 161 -205 303 -205 313 0 6 -6 15
-13 19 -16 10 -87 126 -87 142 0 6 -4 11 -8 11 -5 0 -14 10 -21 23 -6 12 -20
36 -31 52 -11 17 -26 44 -34 60 -9 17 -31 57 -50 90 -20 33 -67 125 -107 205
-69 142 -86 176 -113 242 -13 31 -23 53 -60 141 -9 21 -16 46 -16 55 0 10 -5
23 -11 29 -6 6 -15 29 -20 50 -4 21 -14 58 -22 83 -33 101 -47 154 -47 179 0
15 -4 31 -10 37 -5 5 -13 39 -16 74 -4 36 -13 90 -20 120 -8 30 -14 98 -14
152 0 54 -4 100 -10 103 -13 8 -14 -260 0 -284 5 -10 14 -99 20 -197 6 -99 15
-195 21 -214 5 -19 14 -80 19 -135 15 -157 30 -265 46 -326 8 -30 14 -74 14
-96 0 -22 7 -60 15 -83 8 -23 15 -60 15 -81 0 -21 5 -50 11 -66 6 -15 15 -57
20 -92 5 -35 13 -68 17 -75 4 -6 12 -38 19 -71 25 -127 35 -171 45 -189 5 -10
13 -39 18 -65 4 -25 13 -61 19 -78 6 -18 16 -48 22 -65 6 -18 14 -50 19 -71 4
-21 13 -44 19 -50 6 -6 11 -23 11 -37 0 -14 6 -34 14 -45 7 -11 17 -35 21 -53
4 -18 13 -45 21 -60 8 -15 14 -34 14 -42 0 -8 7 -24 15 -34 8 -11 15 -29 15
-40 0 -12 7 -30 15 -40 8 -11 15 -28 15 -37 0 -10 7 -31 15 -48 8 -17 22 -45
30 -62 8 -17 15 -35 15 -40 0 -12 34 -92 55 -131 8 -14 15 -35 15 -46 0 -11 7
-25 15 -32 8 -7 15 -23 15 -35 0 -12 7 -28 15 -35 8 -7 15 -18 15 -25 0 -8 6
-26 14 -42 7 -15 20 -44 29 -63 31 -70 75 -169 136 -301 11 -25 21 -51 21 -58
0 -6 5 -11 10 -11 6 0 10 -6 10 -12 1 -7 9 -31 20 -53 11 -22 19 -46 20 -52 0
-7 5 -13 10 -13 6 0 10 -5 10 -11 0 -7 10 -33 21 -58 12 -25 34 -73 49 -106
15 -33 37 -81 48 -106 12 -25 22 -51 22 -58 0 -6 5 -11 10 -11 6 0 10 -5 10
-11 0 -12 33 -89 51 -119 5 -8 12 -22 15 -30 13 -35 62 -148 122 -280 8 -19
22 -51 30 -70 9 -19 22 -51 30 -70 9 -19 22 -51 30 -70 8 -19 21 -48 28 -63 8
-16 14 -35 14 -43 0 -8 9 -31 20 -51 11 -21 20 -43 20 -50 0 -6 6 -24 14 -40
26 -50 46 -101 46 -115 0 -8 7 -23 15 -34 8 -10 15 -28 15 -40 0 -11 7 -29 15
-40 8 -10 15 -30 15 -44 0 -14 6 -34 13 -45 7 -11 23 -54 36 -95 13 -41 30
-89 38 -107 7 -17 13 -40 13 -51 0 -11 7 -33 15 -48 8 -16 15 -45 15 -64 1
-19 7 -46 15 -60 8 -14 14 -45 15 -70 0 -25 7 -67 15 -94 10 -32 15 -92 15
-172 0 -164 -10 -188 -48 -115 -11 21 -23 64 -27 95 -4 31 -11 59 -16 61 -4 3
-11 27 -15 53 -4 26 -13 56 -20 67 -8 11 -14 31 -14 45 0 15 -7 35 -15 46 -8
10 -15 27 -15 36 0 10 -7 34 -16 55 -9 21 -22 53 -30 71 -49 118 -154 331
-201 408 -24 39 -43 74 -43 76 0 3 -29 49 -65 104 -83 127 -87 132 -107 159
-10 13 -18 28 -18 34 0 6 -4 11 -9 11 -4 0 -21 19 -37 43 -16 23 -32 44 -36
45 -5 2 -8 10 -8 17 0 8 -6 18 -12 22 -15 9 -88 99 -88 107 0 3 -21 28 -47 55
-63 65 -183 197 -219 241 -16 19 -36 42 -44 50 -45 47 -162 180 -182 206 -12
16 -28 33 -35 37 -7 4 -13 13 -13 18 0 6 -13 22 -28 37 -24 23 -65 72 -117
140 -5 7 -17 21 -26 30 -8 9 -40 49 -69 87 -30 39 -59 75 -65 81 -5 6 -17 22
-25 34 -8 12 -42 59 -76 104 -91 122 -134 185 -134 196 0 5 -4 10 -8 10 -5 0
-14 10 -21 23 -6 12 -19 34 -29 49 -29 46 -129 212 -136 228 -3 8 -15 29 -26
45 -26 41 -70 131 -70 144 0 6 -4 11 -10 11 -5 0 -10 6 -10 13 0 7 -9 29 -20
50 -11 20 -20 43 -20 51 0 7 -7 19 -15 26 -8 7 -15 21 -15 30 0 10 -6 31 -14
47 -33 69 -63 147 -77 208 -6 21 -14 44 -18 50 -5 5 -12 30 -16 55 -4 25 -12
50 -17 57 -5 6 -12 38 -15 70 -3 32 -10 63 -15 70 -5 6 -13 51 -18 100 -5 48
-14 106 -19 128 -14 54 -14 486 -1 521 16 40 32 226 21 237 -6 6 -12 -10 -17
-39 -4 -27 -13 -63 -20 -81 -8 -18 -14 -47 -14 -65 -1 -18 -7 -44 -15 -58 -8
-14 -14 -44 -15 -68 0 -24 -6 -55 -14 -70 -7 -15 -16 -57 -19 -94 -4 -38 -11
-77 -17 -87 -5 -11 -10 -37 -10 -58 0 -21 -6 -63 -14 -93 -8 -30 -18 -93 -21
-140 -4 -47 -12 -90 -17 -97 -5 -7 -13 -63 -18 -125 -4 -62 -13 -133 -19 -158
-5 -25 -10 -83 -11 -130 0 -47 -7 -117 -15 -155 -17 -81 -20 -477 -4 -560 5
-27 13 -97 18 -155 4 -58 13 -118 20 -133 6 -16 11 -46 11 -67 0 -22 6 -59 14
-82 8 -24 18 -65 22 -93 3 -27 10 -54 14 -60 5 -5 13 -32 18 -60 6 -27 15 -65
21 -82 27 -79 33 -100 41 -128 12 -42 30 -95 46 -130 7 -16 16 -42 20 -58 3
-15 10 -30 15 -33 5 -3 9 -13 9 -22 1 -9 9 -35 20 -57 11 -22 19 -48 20 -57 0
-10 4 -18 10 -18 5 0 13 -12 16 -27 6 -26 23 -65 45 -103 5 -8 12 -22 15 -30
3 -8 14 -33 25 -56 10 -23 19 -46 19 -53 0 -6 5 -11 10 -11 6 0 10 -5 10 -11
0 -12 33 -89 51 -119 5 -8 12 -22 15 -30 14 -35 140 -285 146 -290 4 -3 12
-17 18 -30 5 -14 19 -38 30 -55 11 -16 24 -39 30 -50 6 -11 28 -47 50 -80 22
-33 43 -67 47 -75 4 -8 26 -43 50 -77 24 -35 43 -65 43 -68 0 -3 20 -33 43
-68 24 -34 57 -84 73 -110 16 -27 36 -59 44 -72 8 -12 31 -49 50 -80 19 -31
43 -69 52 -84 10 -14 22 -35 28 -46 6 -11 19 -33 29 -50 11 -16 32 -55 48 -85
15 -30 31 -56 36 -58 4 -2 7 -8 7 -13 0 -16 50 -118 61 -124 5 -4 9 -17 9 -29
0 -13 7 -29 15 -36 8 -7 15 -20 15 -29 0 -10 7 -26 15 -37 8 -10 15 -27 15
-37 0 -11 6 -31 14 -45 22 -44 56 -155 56 -184 0 -15 4 -29 9 -33 6 -3 12 -27
16 -53 3 -26 13 -79 21 -119 19 -86 17 -490 -2 -514 -6 -8 -14 -43 -17 -78 -3
-35 -10 -68 -16 -74 -6 -6 -11 -21 -11 -34 0 -21 -25 -94 -55 -160 -8 -17 -15
-38 -15 -46 0 -8 -7 -20 -15 -27 -8 -7 -15 -20 -15 -29 0 -9 -5 -22 -11 -28
-13 -13 -33 -47 -49 -81 -5 -13 -16 -29 -23 -37 -6 -7 -19 -23 -27 -35 -29
-44 -87 -115 -128 -158 -23 -24 -42 -46 -42 -48 0 -10 126 -3 168 10 26 8 79
19 117 25 116 17 209 36 222 44 7 4 36 11 65 14 29 3 65 12 80 19 15 8 40 14
55 14 15 1 39 7 53 15 14 8 39 14 56 15 16 0 39 7 50 15 10 8 30 15 44 15 14
0 37 6 52 14 15 8 41 17 58 21 17 4 43 13 58 21 15 8 32 14 39 14 6 0 24 6 40
14 27 14 65 30 136 59 54 23 252 121 257 129 3 4 17 12 30 18 14 5 39 19 55
30 17 11 39 24 50 29 62 27 297 203 383 285 35 33 70 64 78 69 19 11 80 71 91
90 4 8 35 44 68 80 90 97 215 257 215 275 0 5 7 15 16 22 14 12 112 167 143
228 8 15 18 29 23 30 4 2 8 12 8 22 0 10 6 25 13 32 12 13 37 62 77 150 12 27
26 50 31 54 5 3 9 14 9 24 0 10 7 32 15 49 8 17 22 45 30 62 8 17 15 38 15 48
0 9 6 25 14 36 7 11 17 35 21 53 4 18 13 45 21 60 8 15 14 36 14 47 1 11 7 31
15 45 8 14 15 39 15 55 0 17 7 41 15 55 8 14 15 41 15 60 0 19 7 46 15 60 8
14 14 42 15 62 0 21 6 55 14 75 21 58 47 265 66 533 18 245 -1 698 -35 852 -8
37 -15 84 -15 105 0 21 -7 60 -15 87 -8 27 -15 64 -15 81 0 18 -7 46 -15 61
-8 16 -15 45 -15 64 -1 19 -7 46 -15 60 -8 14 -14 36 -15 50 0 14 -6 37 -14
51 -7 14 -16 42 -20 62 -4 20 -13 49 -21 64 -8 15 -15 37 -15 48 0 11 -7 29
-15 39 -8 11 -15 29 -15 40 0 12 -7 30 -15 40 -8 11 -15 28 -15 37 0 10 -7 30
-15 46 -7 15 -23 48 -33 73 -45 104 -55 128 -82 185 -63 133 -189 380 -220
430 -10 17 -29 50 -41 74 -12 25 -37 67 -56 95 -18 28 -33 56 -33 63 0 7 -3
13 -8 13 -4 0 -19 21 -32 48 -14 26 -29 49 -33 51 -5 2 -13 13 -18 25 -5 11
-17 33 -27 47 -15 23 -45 72 -95 154 -7 11 -24 36 -39 56 -16 20 -28 40 -28
44 0 3 -16 27 -35 52 -19 25 -35 50 -35 55 0 5 -5 14 -10 21 -41 48 -50 62
-50 74 0 7 -5 13 -10 13 -6 0 -14 8 -17 18 -8 22 -46 76 -55 80 -5 2 -8 9 -8
16 0 7 -9 21 -20 31 -11 10 -20 24 -20 31 0 7 -3 14 -7 16 -9 4 -53 65 -53 73
0 3 -15 26 -32 49 -18 24 -40 54 -48 66 -8 12 -23 33 -32 45 -10 13 -18 26
-18 30 0 4 -20 33 -45 65 -25 32 -45 61 -45 64 0 3 -19 33 -42 66 -24 34 -50
72 -58 85 -8 13 -41 62 -72 108 -32 46 -58 89 -58 96 0 6 -4 11 -8 11 -5 0
-14 10 -21 23 -6 12 -19 34 -29 48 -9 15 -30 48 -47 75 -16 27 -32 51 -35 54
-8 7 -28 41 -42 70 -7 14 -15 27 -18 30 -9 7 -80 127 -80 133 0 3 -13 26 -30
50 -16 24 -41 67 -55 95 -14 28 -30 54 -35 57 -6 3 -10 13 -10 21 0 9 -7 22
-15 30 -8 9 -15 24 -15 33 0 10 -7 24 -15 31 -8 7 -15 20 -15 30 0 10 -7 23
-15 30 -8 7 -15 20 -15 30 0 10 -7 23 -15 30 -8 7 -15 18 -15 24 0 6 -16 45
-36 86 -21 41 -44 91 -52 110 -8 19 -19 42 -24 50 -4 8 -11 22 -14 30 -3 8
-11 29 -19 45 -8 17 -23 53 -35 80 -12 28 -28 64 -36 82 -8 17 -14 38 -14 47
0 9 -4 16 -9 16 -5 0 -13 15 -16 33 -4 17 -14 41 -21 52 -8 11 -14 29 -14 40
0 11 -7 29 -15 39 -8 11 -15 27 -15 35 0 9 -7 29 -15 45 -8 15 -15 36 -15 45
0 9 -7 29 -15 44 -8 15 -17 44 -21 64 -4 20 -13 48 -20 62 -8 14 -14 36 -14
47 0 12 -7 35 -15 50 -8 16 -15 43 -15 59 -1 17 -7 41 -15 55 -8 14 -14 42
-15 63 0 21 -6 50 -14 65 -7 15 -16 57 -19 94 -4 38 -11 77 -17 87 -5 11 -10
38 -10 61 0 23 -7 89 -15 148 -8 59 -19 184 -24 277 -4 94 -9 154 -11 135z"/>
<path d="M6300 14265 c0 -8 5 -15 10 -15 6 0 10 7 10 15 0 8 -4 15 -10 15 -5
0 -10 -7 -10 -15z"/>
<path d="M9988 13681 c107 -107 192 -202 192 -214 0 -4 15 -28 33 -51 17 -24
39 -54 47 -66 8 -12 25 -34 38 -48 13 -15 30 -39 40 -54 9 -16 20 -28 24 -28
4 0 8 -6 8 -14 0 -8 4 -16 9 -18 5 -1 37 -36 70 -76 134 -161 338 -365 465
-467 28 -22 63 -52 80 -68 17 -15 39 -30 48 -33 10 -3 18 -10 18 -15 0 -5 7
-9 15 -9 14 0 14 3 1 28 -7 15 -17 43 -20 62 -4 19 -11 44 -16 55 -5 11 -14
43 -19 70 -14 73 -31 135 -47 173 -8 18 -14 41 -14 51 0 10 -7 24 -15 31 -8 7
-15 19 -15 27 0 22 -67 141 -118 207 -43 58 -179 196 -193 196 -3 0 -17 9 -30
20 -35 29 -41 33 -74 55 -52 34 -69 44 -97 56 -16 6 -28 15 -28 20 0 5 -9 9
-19 9 -11 0 -26 7 -35 15 -8 8 -18 15 -22 15 -4 0 -28 10 -53 21 -52 25 -100
46 -151 67 -19 8 -48 21 -63 28 -16 8 -36 14 -45 14 -9 0 -30 7 -46 15 -62 33
-53 11 32 -74z"/>
<path d="M4520 13700 c0 -5 4 -10 9 -10 6 0 13 5 16 10 3 6 -1 10 -9 10 -9 0
-16 -4 -16 -10z"/>
<path d="M4463 13679 c-18 -5 -35 -14 -38 -19 -3 -6 -15 -10 -26 -10 -10 0
-36 -9 -56 -20 -21 -11 -46 -20 -55 -20 -10 0 -18 -4 -18 -10 0 -5 -5 -10 -11
-10 -9 0 -98 -42 -207 -99 -36 -19 -145 -95 -185 -129 -58 -50 -158 -157 -171
-184 -3 -7 -15 -26 -26 -43 -11 -16 -25 -42 -31 -57 -6 -16 -15 -28 -20 -28
-5 0 -9 -5 -9 -11 0 -7 -10 -33 -21 -58 -12 -25 -29 -62 -37 -81 -8 -19 -21
-48 -28 -63 -8 -16 -14 -39 -14 -51 0 -12 -7 -31 -15 -42 -8 -10 -15 -30 -15
-44 0 -14 -7 -38 -15 -54 -8 -15 -15 -38 -15 -50 0 -11 -6 -33 -14 -48 -19
-36 -30 -88 -18 -88 5 0 20 10 34 23 13 12 48 42 78 67 55 45 77 64 140 119
19 17 38 31 42 31 4 0 18 10 31 23 14 12 36 31 48 43 39 35 132 136 164 179
33 45 37 49 66 85 20 24 77 105 109 155 65 101 174 255 181 255 5 0 9 5 9 10
0 6 8 18 18 29 9 10 28 33 42 51 14 18 51 59 82 90 31 32 54 60 51 64 -7 7 -8
7 -50 -5z"/>
<path d="M10976 13233 c30 -32 59 -67 65 -78 5 -11 18 -33 28 -50 11 -16 29
-50 41 -75 12 -25 28 -58 36 -75 7 -16 17 -46 20 -65 4 -19 11 -40 15 -46 5
-6 12 -33 16 -60 3 -26 12 -59 20 -74 7 -14 13 -41 13 -61 0 -20 7 -50 15 -65
8 -16 15 -44 15 -62 0 -18 7 -49 15 -69 8 -19 15 -43 15 -52 0 -9 7 -29 15
-45 8 -15 15 -38 15 -50 0 -11 6 -33 14 -48 8 -15 17 -42 21 -60 4 -18 14 -42
21 -53 8 -11 14 -28 14 -38 0 -10 6 -28 14 -40 8 -12 16 -44 19 -72 3 -27 3
-42 1 -32 -3 9 -12 17 -20 17 -7 0 -20 15 -29 33 -17 37 -36 67 -51 82 -5 5
-23 27 -38 49 -33 45 -98 110 -145 146 -17 14 -44 35 -59 48 -15 12 -48 36
-74 53 -27 17 -48 35 -48 40 0 5 -5 9 -10 9 -10 0 -59 31 -86 55 -6 6 -22 17
-34 25 -127 85 -350 283 -350 310 0 12 -46 61 -52 55 -7 -7 12 -117 22 -130 4
-5 11 -30 15 -54 4 -25 14 -51 21 -59 8 -7 14 -24 14 -36 0 -13 7 -29 15 -36
8 -7 15 -20 15 -30 0 -10 7 -20 15 -24 8 -3 15 -12 15 -19 0 -8 8 -23 18 -35
9 -11 28 -36 42 -54 32 -42 171 -182 233 -233 27 -22 54 -44 60 -50 7 -5 31
-23 55 -39 23 -16 42 -33 42 -37 0 -5 7 -9 15 -9 8 0 15 -4 15 -9 0 -5 8 -12
18 -15 9 -4 35 -22 57 -41 22 -19 45 -38 50 -43 170 -128 385 -348 385 -392 0
-7 6 -10 13 -7 6 2 10 11 8 18 -7 31 -2 370 8 454 23 197 5 511 -35 602 -8 17
-14 38 -14 46 0 9 -6 28 -14 44 -8 15 -30 59 -48 98 -18 38 -47 89 -65 112
-18 24 -33 45 -33 47 0 5 -44 56 -95 110 -45 47 -158 136 -174 136 -5 0 -14 6
-18 13 -4 6 -30 23 -58 36 -27 13 -58 28 -67 32 -39 19 -34 6 18 -48z"/>
<path d="M3536 13215 c-11 -8 -26 -15 -33 -15 -8 0 -19 -5 -26 -10 -7 -6 -41
-29 -77 -52 -82 -53 -79 -51 -152 -123 -64 -63 -128 -144 -168 -210 -13 -22
-28 -41 -32 -43 -4 -2 -8 -8 -8 -14 0 -6 -9 -32 -21 -57 -40 -88 -47 -106 -59
-171 -18 -94 -24 -452 -9 -590 6 -63 15 -195 18 -293 l6 -178 62 83 c117 157
306 335 460 433 57 37 206 174 303 279 55 60 156 201 171 239 6 15 15 27 20
27 5 0 9 8 9 18 0 10 6 26 13 37 13 19 30 66 71 190 18 56 21 115 6 115 -5 0
-10 -7 -10 -16 0 -15 -95 -146 -142 -194 -32 -33 -97 -90 -132 -115 -15 -11
-42 -32 -59 -47 -18 -15 -35 -28 -38 -28 -3 0 -37 -24 -76 -52 -39 -29 -81
-60 -93 -68 -12 -8 -33 -23 -45 -32 -13 -10 -25 -18 -28 -18 -17 0 -216 -198
-259 -257 -17 -24 -35 -43 -40 -43 -18 0 -20 33 -4 66 9 19 16 51 16 72 1 20
7 48 15 62 8 14 15 48 15 75 0 28 7 61 15 75 8 14 14 46 15 72 0 26 6 67 14
90 8 24 16 67 20 97 3 29 9 58 15 65 5 6 12 30 16 54 4 24 13 56 21 70 8 15
14 33 14 40 0 8 6 26 14 40 7 15 24 50 36 77 28 60 101 166 141 206 16 16 29
33 29 38 0 5 8 12 18 14 14 4 14 5 -3 6 -11 0 -29 -6 -39 -14z"/>
<path d="M55032 13080 c-220 -40 -383 -177 -479 -406 -44 -105 -59 -166 -103
-441 -22 -139 -40 -255 -40 -258 0 -3 -33 -5 -73 -5 l-72 0 -23 -147 c-13 -82
-26 -160 -29 -175 l-5 -28 71 0 72 0 -7 -47 c-4 -27 -44 -280 -89 -563 l-81
-515 204 -3 c113 -1 207 0 210 3 3 2 42 242 88 532 46 291 86 543 89 561 l6
32 169 0 c94 0 170 2 170 5 0 2 11 73 25 157 14 84 25 160 25 170 0 17 -13 18
-165 18 -133 0 -165 3 -165 14 0 31 72 476 87 533 40 161 141 229 271 182 31
-11 64 -22 73 -25 13 -4 20 23 43 174 16 99 25 185 22 190 -21 35 -195 59
-294 42z"/>
<path d="M55925 13074 c-235 -51 -404 -220 -488 -489 -22 -70 -59 -270 -98
-532 l-12 -83 -72 0 -72 0 -27 -163 c-14 -90 -26 -169 -26 -175 0 -8 23 -12
71 -12 69 0 71 -1 66 -22 -3 -13 -42 -255 -87 -538 -44 -283 -83 -527 -86
-542 l-6 -28 211 0 c116 0 211 3 211 8 0 4 40 257 88 562 l88 555 170 3 170 2
27 168 c15 92 27 170 27 174 0 4 -76 9 -168 10 l-168 3 38 245 c49 318 65 376
122 438 52 58 145 72 230 34 27 -13 52 -19 56 -15 10 12 62 352 55 363 -11 17
-102 41 -175 45 -47 3 -101 -1 -145 -11z"/>
<path d="M50599 13048 c0 -2 -92 -577 -203 -1278 l-202 -1275 205 -3 c112 -1
206 0 208 2 6 5 403 2511 403 2539 0 16 -16 17 -205 17 -113 0 -205 -1 -206
-2z"/>
<path d="M10412 12910 c0 -14 2 -19 5 -12 2 6 2 18 0 25 -3 6 -5 1 -5 -13z"/>
<path d="M44935 12828 c-47 -17 -120 -74 -147 -115 -41 -64 -51 -98 -46 -171
4 -79 27 -122 87 -163 31 -21 47 -24 121 -24 75 0 91 3 130 27 186 111 212
363 46 439 -46 21 -142 24 -191 7z"/>
<path d="M56492 12822 c-155 -62 -234 -252 -156 -378 98 -159 361 -109 447 85
38 86 20 209 -40 263 -53 48 -170 62 -251 30z"/>
<path d="M52990 12811 c-281 -52 -515 -174 -710 -371 -192 -193 -316 -419
-384 -695 -46 -191 -48 -477 -3 -649 111 -422 448 -666 917 -666 341 0 663
133 903 374 203 202 338 459 404 766 14 67 18 128 17 285 0 185 -2 208 -27
299 -87 323 -292 535 -613 631 -80 25 -107 28 -274 31 -102 1 -205 -1 -230 -5z
m322 -449 c237 -84 369 -296 369 -592 -1 -223 -81 -446 -230 -633 -169 -213
-454 -317 -716 -262 -307 65 -467 373 -401 775 58 357 319 653 640 726 86 19
263 12 338 -14z"/>
<path d="M27550 12747 c-8 -7 -26 -39 -39 -72 -12 -33 -29 -74 -37 -92 -8 -17
-14 -38 -14 -46 0 -9 -4 -19 -10 -22 -5 -3 -14 -24 -20 -45 -6 -22 -15 -40
-20 -40 -6 0 -10 -10 -10 -23 0 -13 -7 -32 -15 -43 -8 -10 -15 -26 -15 -34 0
-8 -9 -33 -20 -55 -11 -22 -19 -45 -20 -52 0 -6 -6 -24 -14 -40 -8 -15 -22
-46 -31 -68 -10 -22 -24 -53 -31 -68 -8 -16 -14 -35 -14 -44 0 -8 -6 -27 -13
-41 -8 -15 -21 -42 -30 -60 -9 -19 -17 -38 -17 -43 0 -6 -8 -29 -18 -52 -10
-23 -27 -62 -36 -87 -41 -101 -72 -174 -92 -213 -8 -16 -14 -36 -14 -46 0 -9
-7 -26 -15 -37 -8 -10 -15 -25 -15 -32 0 -14 -32 -91 -55 -134 -8 -14 -15 -33
-15 -41 0 -9 -6 -28 -14 -44 -7 -15 -21 -46 -31 -68 -9 -22 -23 -53 -31 -68
-8 -16 -14 -34 -14 -40 -1 -7 -9 -30 -20 -52 -11 -22 -19 -45 -20 -52 0 -6 -6
-24 -14 -40 -8 -15 -29 -64 -46 -108 -37 -94 -56 -139 -76 -178 -8 -16 -14
-33 -14 -39 0 -5 -6 -24 -14 -41 -79 -175 -81 -167 49 -167 89 0 105 2 105 16
0 9 6 28 13 42 8 15 21 42 30 60 9 19 17 38 17 43 0 9 15 46 56 136 8 17 14
37 14 45 0 7 7 22 15 32 8 11 15 26 15 33 0 7 14 42 30 76 17 35 30 70 30 78
0 8 6 23 14 34 7 11 16 32 20 47 10 44 47 99 73 109 27 10 832 13 881 3 30 -6
72 -57 72 -87 0 -7 9 -29 20 -50 11 -20 20 -45 20 -56 0 -10 7 -24 15 -31 8
-7 15 -21 15 -30 0 -10 6 -31 14 -47 16 -33 37 -81 62 -143 9 -25 26 -64 36
-87 10 -23 18 -46 18 -52 0 -5 8 -24 17 -43 9 -18 22 -45 30 -60 7 -14 13 -36
13 -47 0 -20 5 -21 110 -21 l110 0 -6 28 c-4 15 -13 37 -20 49 -8 12 -14 28
-14 35 -1 7 -9 31 -20 53 -11 22 -19 45 -20 52 0 6 -8 26 -17 45 -9 18 -22 45
-30 60 -7 14 -13 35 -13 46 0 11 -7 25 -15 32 -8 7 -15 20 -15 29 0 9 -9 34
-20 56 -11 22 -20 47 -20 57 0 10 -4 18 -10 18 -5 0 -10 8 -10 18 0 9 -9 34
-20 55 -11 20 -20 43 -20 51 0 8 -6 27 -14 43 -8 15 -22 46 -31 68 -10 22 -24
53 -31 68 -8 16 -14 34 -14 40 -1 7 -9 30 -20 52 -11 22 -19 45 -20 52 0 6 -6
24 -14 40 -16 32 -26 55 -57 133 -25 65 -46 114 -65 153 -8 16 -14 34 -14 40
-1 7 -9 30 -20 52 -11 22 -19 45 -20 52 0 6 -6 24 -14 40 -8 15 -22 46 -31 68
-10 22 -24 53 -31 68 -8 16 -14 35 -14 42 0 7 -7 28 -16 47 -36 73 -44 90 -44
100 0 5 -6 24 -14 41 -44 97 -56 128 -56 142 0 9 -7 23 -15 31 -8 9 -15 26
-15 38 0 13 -7 29 -15 36 -8 7 -15 21 -15 32 0 11 -6 32 -13 46 -8 15 -21 42
-30 60 -9 19 -17 38 -17 43 0 6 -9 29 -19 52 -10 23 -20 50 -22 59 -3 13 -7
14 -19 5z m40 -593 c0 -7 6 -25 14 -41 8 -15 22 -48 31 -73 9 -25 23 -58 31
-73 8 -16 14 -33 14 -38 0 -12 34 -92 55 -131 8 -14 15 -34 15 -45 0 -10 7
-27 15 -37 8 -11 15 -30 15 -42 0 -12 7 -27 15 -34 8 -7 15 -19 15 -27 0 -15
20 -65 46 -116 8 -16 14 -33 14 -39 0 -10 26 -71 51 -120 14 -28 10 -65 -7
-72 -28 -11 -704 -7 -725 4 -10 6 -19 17 -19 25 0 15 3 23 33 83 9 19 17 38
17 44 0 6 9 29 19 52 10 23 27 61 36 86 10 25 24 61 33 80 8 19 21 51 29 70 8
19 21 48 29 63 8 16 14 33 14 38 0 9 15 46 56 136 8 17 14 36 14 41 0 6 6 23
14 39 28 57 44 99 50 124 7 34 46 53 64 31 6 -9 12 -21 12 -28z"/>
<path d="M39885 12738 c-3 -13 -82 -511 -175 -1108 -94 -597 -173 -1097 -176
-1112 l-6 -28 220 0 220 0 6 33 c3 17 35 221 72 452 36 231 68 422 70 424 2 2
6 2 9 -1 3 -3 95 -207 205 -454 l199 -449 265 -3 c146 -1 266 0 266 2 0 3
-108 215 -240 473 -132 257 -240 470 -240 474 0 4 26 15 58 24 106 31 191 83
277 170 125 125 200 279 224 458 41 296 -44 494 -252 592 -142 68 -150 69
-594 73 l-402 3 -6 -23z m660 -358 c128 -44 178 -139 155 -298 -27 -191 -128
-309 -300 -350 -64 -15 -226 -26 -233 -16 -2 5 19 160 49 344 29 184 54 339
54 344 0 16 211 -2 275 -24z"/>
<path d="M24285 12679 c-3 -19 -4 -556 -3 -1194 l3 -1160 103 -3 102 -3 0 919
c0 1038 -4 983 71 901 22 -24 69 -74 105 -112 35 -37 64 -69 64 -72 0 -2 26
-31 58 -62 32 -32 119 -124 194 -204 75 -80 158 -168 184 -196 91 -96 310
-328 389 -413 43 -47 152 -161 240 -255 225 -237 291 -308 314 -336 32 -39
247 -259 255 -259 3 0 6 545 6 1210 l0 1210 -100 0 -100 0 -2 -937 c-3 -874
-4 -938 -20 -941 -9 -2 -27 9 -40 24 -13 15 -52 57 -87 93 -36 36 -139 145
-229 241 -178 189 -404 427 -492 518 -30 31 -97 102 -149 157 -145 155 -230
244 -446 469 -110 115 -203 213 -207 220 -3 6 -51 58 -106 115 l-101 104 -6
-34z"/>
<path d="M33020 11515 l0 -1196 103 3 102 3 5 930 c3 643 8 930 16 930 5 0 45
-38 89 -85 87 -94 328 -350 390 -414 22 -22 74 -77 115 -121 41 -45 129 -139
195 -210 66 -71 147 -156 180 -190 33 -34 87 -90 120 -126 119 -129 301 -323
365 -389 36 -38 92 -97 125 -133 213 -230 269 -287 281 -287 12 0 14 197 14
1210 l0 1210 -100 0 -100 0 -2 -942 c-3 -772 -5 -942 -16 -946 -13 -4 -182
163 -357 353 -44 47 -115 122 -157 166 -43 44 -78 82 -78 84 0 2 -33 37 -72
77 -40 41 -107 110 -148 153 -184 196 -360 382 -420 443 -36 37 -164 172 -285
301 -280 297 -351 371 -359 371 -3 0 -6 -538 -6 -1195z"/>
<path d="M15542 12692 c-10 -7 -12 -251 -10 -1188 l3 -1179 98 -3 97 -3 0 918
c0 505 4 924 9 931 11 19 43 0 91 -52 19 -21 53 -57 75 -80 22 -22 74 -77 115
-122 151 -162 346 -370 390 -414 48 -49 159 -168 274 -293 39 -42 119 -127
179 -188 59 -61 111 -117 115 -124 6 -11 190 -207 327 -348 23 -23 105 -111
183 -194 l142 -153 0 1225 0 1225 -105 0 -105 0 0 -939 c0 -615 -3 -942 -10
-946 -14 -9 -34 8 -139 120 -121 130 -206 219 -426 449 -99 103 -191 201 -205
218 -14 16 -61 67 -105 113 -115 120 -349 366 -430 454 -38 41 -99 105 -135
142 -104 108 -354 371 -386 407 -19 21 -33 29 -42 24z"/>
<path d="M31355 12660 c-156 -24 -189 -32 -305 -83 -19 -9 -42 -18 -50 -21 -8
-4 -27 -14 -41 -24 -15 -9 -52 -32 -82 -50 -77 -45 -216 -169 -280 -249 -59
-74 -127 -176 -142 -213 -4 -8 -12 -28 -20 -45 -41 -89 -55 -126 -55 -143 0
-11 -7 -33 -15 -48 -8 -16 -15 -45 -15 -64 -1 -19 -7 -62 -15 -95 -19 -78 -19
-206 0 -278 8 -32 15 -75 15 -95 0 -20 7 -50 15 -66 8 -15 15 -36 15 -45 1 -9
9 -34 20 -56 11 -22 19 -44 20 -49 0 -15 41 -95 51 -102 5 -3 9 -12 9 -21 0
-8 8 -25 18 -38 9 -12 24 -33 32 -45 8 -12 20 -28 25 -34 6 -6 28 -34 49 -61
48 -61 126 -136 183 -178 24 -17 43 -34 43 -38 0 -3 8 -9 18 -13 9 -3 31 -14
47 -25 56 -36 187 -101 203 -101 9 0 26 -7 36 -15 11 -8 31 -15 44 -15 13 0
38 -6 55 -14 44 -19 186 -36 293 -36 139 1 332 33 396 66 14 8 35 14 46 14 11
0 25 7 32 15 7 8 18 15 26 15 7 0 40 16 73 35 32 19 62 35 66 35 3 0 13 6 20
13 21 18 36 29 80 59 82 57 224 218 302 344 30 48 93 187 93 206 0 7 7 22 15
32 8 11 15 33 15 48 0 16 7 45 16 66 24 56 24 421 1 476 -10 21 -17 51 -17 65
0 15 -7 36 -15 47 -8 10 -15 26 -15 34 0 18 -42 123 -56 142 -6 7 -19 31 -29
53 -11 22 -26 44 -32 48 -7 4 -13 13 -13 19 0 34 -201 249 -283 303 -8 6 -39
26 -69 46 -55 38 -106 65 -173 94 -22 9 -53 23 -68 31 -16 8 -38 14 -49 14
-11 0 -34 6 -51 14 -35 16 -258 47 -322 45 -22 -1 -94 -9 -160 -19z m360 -197
c11 -7 41 -15 67 -18 26 -3 50 -10 53 -16 4 -5 13 -9 22 -9 21 0 183 -80 183
-91 0 -5 6 -9 13 -9 8 0 23 -8 35 -17 11 -10 36 -29 54 -43 46 -35 148 -139
148 -150 0 -6 4 -10 9 -10 19 0 120 -173 166 -285 31 -74 57 -226 57 -330 0
-73 -17 -206 -30 -238 -7 -16 -12 -39 -12 -51 0 -13 -7 -29 -15 -36 -8 -7 -15
-21 -15 -32 0 -19 -65 -148 -80 -158 -4 -3 -11 -15 -15 -28 -10 -34 -210 -232
-280 -278 -76 -50 -96 -62 -115 -69 -8 -3 -28 -13 -43 -21 -16 -7 -32 -14 -37
-14 -5 0 -21 -5 -37 -12 -100 -42 -290 -65 -406 -51 -89 12 -178 33 -245 57
-38 15 -55 22 -102 47 -8 4 -34 17 -56 29 -23 11 -51 28 -62 38 -11 9 -30 24
-43 32 -12 8 -57 49 -99 91 -74 73 -141 164 -190 259 -45 86 -50 98 -50 117 0
10 -7 27 -15 37 -8 11 -15 34 -15 52 0 17 -7 51 -15 74 -18 50 -20 243 -4 305
6 22 14 59 18 83 4 24 13 48 19 54 7 7 12 23 12 36 0 13 6 36 14 50 8 15 24
47 36 72 12 25 38 70 58 100 43 66 234 260 256 260 9 0 16 5 16 10 0 6 10 15
23 20 12 6 36 19 52 30 17 11 37 22 45 26 8 3 33 14 56 25 23 10 46 19 51 19
6 0 24 7 39 15 16 8 43 15 60 15 16 0 34 4 40 9 16 16 55 19 209 17 93 -1 158
-6 170 -13z"/>
<path d="M36035 12661 c-44 -9 -93 -23 -110 -30 -16 -8 -49 -23 -72 -33 -23
-10 -62 -37 -87 -60 -45 -39 -136 -149 -136 -164 0 -4 -8 -25 -19 -48 -32 -70
-43 -127 -48 -237 -4 -81 -1 -114 10 -135 8 -16 17 -46 21 -66 4 -21 11 -38
16 -38 6 0 10 -6 10 -13 0 -21 81 -114 143 -164 18 -15 115 -70 137 -79 8 -3
22 -10 30 -15 8 -5 27 -14 43 -20 15 -6 27 -15 27 -19 0 -4 12 -11 26 -14 14
-4 42 -17 62 -30 20 -12 78 -42 127 -66 50 -24 92 -48 93 -52 2 -4 12 -8 21
-8 10 0 29 -8 42 -18 13 -10 41 -27 63 -37 41 -21 176 -142 176 -159 0 -5 8
-18 18 -29 14 -16 17 -39 17 -141 0 -117 -1 -123 -33 -187 -62 -124 -209 -252
-315 -275 -18 -3 -38 -11 -46 -18 -20 -16 -237 -14 -253 2 -7 7 -19 12 -27 12
-22 0 -101 40 -146 73 -42 32 -115 107 -115 119 0 4 -6 13 -13 20 -22 22 -57
84 -57 100 0 9 -7 21 -15 28 -8 7 -15 21 -15 31 0 24 -10 24 -57 0 -21 -10
-57 -27 -81 -37 -41 -18 -43 -21 -38 -55 3 -19 17 -55 31 -80 13 -24 28 -51
32 -59 22 -50 161 -210 182 -210 4 0 16 -9 26 -20 10 -11 24 -20 32 -20 7 0
13 -4 13 -8 0 -8 25 -20 120 -59 53 -22 177 -43 252 -43 85 0 205 18 240 36
14 8 33 14 40 14 8 0 35 11 59 25 24 14 55 30 69 37 37 19 44 25 134 114 46
46 93 105 109 135 16 30 32 61 36 69 29 54 36 96 39 250 2 132 0 170 -13 197
-8 18 -23 50 -32 71 -21 43 -175 202 -196 202 -9 0 -17 4 -19 9 -1 4 -41 27
-88 50 -144 72 -273 140 -284 151 -5 5 -18 10 -27 10 -9 0 -22 7 -29 15 -7 8
-20 15 -30 15 -10 0 -23 7 -30 15 -7 8 -21 15 -31 15 -9 0 -24 6 -31 14 -8 7
-25 17 -38 21 -13 4 -28 11 -34 16 -94 73 -121 97 -130 114 -6 11 -16 24 -22
30 -31 29 -46 93 -41 176 4 81 30 179 48 179 5 0 9 6 9 14 0 15 92 108 136
137 16 10 36 19 45 19 9 0 30 7 48 16 25 13 54 15 131 12 54 -2 104 -9 111
-15 8 -6 29 -14 47 -18 17 -3 32 -10 32 -15 0 -4 12 -11 26 -14 29 -8 174
-148 174 -169 0 -8 9 -22 20 -32 16 -15 21 -15 33 -4 7 8 37 34 65 58 51 43
63 69 42 94 -6 7 -28 36 -50 65 -44 61 -143 142 -210 173 -25 11 -58 26 -75
34 -42 18 -191 45 -245 44 -25 -1 -81 -9 -125 -18z"/>
<path d="M38130 9815 l0 -2845 135 0 135 0 0 2845 0 2845 -135 0 -135 0 0
-2845z"/>
<path d="M13531 11848 c0 -976 1 -991 88 -1167 55 -112 176 -228 296 -285 22
-10 52 -25 67 -32 14 -8 35 -14 45 -14 10 0 27 -6 38 -14 23 -16 77 -23 225
-31 107 -6 247 9 320 36 52 18 185 83 188 92 2 4 8 7 14 7 10 0 86 58 124 95
26 25 94 122 94 134 0 5 7 14 15 21 8 7 15 22 15 34 0 12 6 28 12 34 37 37 41
122 45 1020 l3 872 -100 0 -100 0 -1 -787 c-1 -773 -4 -903 -30 -993 -32 -118
-116 -231 -203 -275 -17 -8 -38 -19 -46 -24 -39 -21 -88 -40 -120 -47 -19 -3
-40 -10 -46 -15 -17 -14 -195 -21 -244 -10 -90 20 -145 37 -167 49 -12 6 -26
12 -32 12 -35 0 -211 155 -211 186 0 6 -7 17 -15 24 -8 7 -15 19 -15 27 0 8
-6 29 -14 46 -8 18 -22 82 -30 144 -13 94 -16 235 -16 887 l0 776 -100 0 -100
0 1 -802z"/>
<path d="M18052 11488 l3 -1163 105 0 105 0 3 1163 2 1162 -110 0 -110 0 2
-1162z"/>
<path d="M18450 12550 l0 -100 283 0 c155 0 288 -4 294 -8 10 -6 13 -234 15
-1063 l3 -1054 102 -3 103 -3 2 1063 3 1063 288 3 287 2 0 100 0 100 -690 0
-690 0 0 -100z"/>
<path d="M20030 11485 l0 -1165 565 0 565 0 0 100 0 100 -449 0 c-395 0 -451
2 -465 16 -14 14 -16 69 -16 453 0 241 3 453 6 470 l7 31 432 0 c239 0 440 3
449 6 13 5 16 23 16 88 0 50 -5 87 -12 94 -9 9 -121 12 -445 12 -417 0 -433 1
-443 19 -15 29 -14 713 2 729 9 9 126 12 465 12 l453 0 0 100 0 100 -565 0
-565 0 0 -1165z"/>
<path d="M21550 11485 l0 -1165 243 0 c133 0 283 5 332 11 50 6 122 14 160 18
39 4 80 13 92 19 12 7 35 12 50 12 16 0 38 7 49 15 10 8 25 15 33 15 13 0 160
69 171 80 3 3 25 19 49 35 60 40 196 176 252 250 46 61 109 160 109 172 0 6
33 81 56 125 8 14 14 37 14 50 1 12 7 34 15 48 8 14 14 41 15 61 0 20 7 72 16
115 18 84 14 256 -6 309 -5 14 -10 47 -10 73 -1 26 -7 58 -15 72 -8 14 -14 35
-15 46 0 19 -15 61 -56 151 -8 17 -14 36 -14 42 0 6 -4 11 -9 11 -5 0 -14 12
-20 28 -25 62 -109 172 -204 264 -80 78 -143 125 -233 173 -27 14 -53 30 -59
36 -5 5 -18 9 -28 9 -10 0 -31 6 -45 14 -94 48 -328 75 -664 76 l-278 0 0
-1165z m692 948 c6 -7 25 -13 40 -13 46 0 175 -48 253 -94 78 -46 121 -80 197
-157 47 -49 89 -97 93 -109 3 -11 10 -20 14 -20 4 0 20 -24 35 -52 15 -29 31
-60 36 -68 28 -51 60 -142 70 -201 5 -25 14 -64 20 -85 23 -79 -2 -377 -38
-441 -6 -12 -12 -30 -12 -40 0 -10 -6 -27 -14 -38 -7 -11 -16 -32 -20 -47 -3
-16 -11 -28 -16 -28 -6 0 -10 -7 -10 -14 0 -27 -105 -171 -175 -241 -48 -48
-121 -105 -134 -105 -6 0 -11 -4 -11 -9 0 -5 -12 -14 -27 -20 -16 -6 -35 -15
-43 -19 -47 -28 -80 -42 -97 -42 -10 0 -24 -5 -30 -11 -15 -15 -137 -39 -253
-49 -115 -10 -322 -12 -344 -4 -14 6 -16 99 -16 958 0 524 3 956 8 960 13 14
459 3 474 -11z"/>
<path d="M28260 12550 l0 -100 279 0 c221 0 281 -3 290 -13 8 -10 12 -308 13
-1063 l3 -1049 98 -3 97 -3 0 1055 c0 1033 0 1056 19 1066 12 6 126 10 300 10
l281 0 0 100 0 100 -690 0 -690 0 0 -100z"/>
<path d="M29840 11485 l0 -1166 98 3 97 3 3 1163 2 1162 -100 0 -100 0 0
-1165z"/>
<path d="M11709 12565 c-3 -22 3 -61 12 -71 5 -6 13 -31 18 -55 6 -24 15 -66
21 -92 15 -60 8 -541 -9 -637 -6 -36 -15 -124 -19 -195 -8 -125 -6 -172 18
-514 6 -85 7 -158 2 -163 -4 -4 -18 3 -31 16 -17 18 -24 40 -28 88 -3 34 -12
75 -19 90 -8 15 -14 37 -14 48 0 19 -63 160 -82 185 -5 6 -32 42 -60 80 -51
68 -200 220 -313 320 -75 65 -244 235 -286 285 -19 22 -37 40 -41 40 -12 0 2
-100 18 -132 8 -15 14 -37 14 -50 0 -13 7 -36 15 -52 8 -15 15 -35 15 -43 0
-18 57 -148 90 -203 5 -8 11 -22 14 -30 4 -8 14 -27 24 -41 9 -15 30 -48 47
-75 16 -27 32 -51 35 -54 14 -13 50 -70 50 -80 0 -5 4 -10 8 -10 5 0 26 -25
48 -55 21 -31 49 -68 62 -83 13 -15 37 -48 54 -74 17 -27 35 -48 40 -48 4 0 8
-7 8 -15 0 -8 4 -15 8 -15 4 0 28 -30 52 -67 24 -38 50 -74 57 -81 7 -7 13
-20 13 -28 0 -8 4 -14 9 -14 5 0 14 -12 20 -27 6 -16 20 -41 30 -58 35 -54
101 -195 101 -216 0 -8 5 -20 11 -26 5 -5 14 -32 18 -59 l7 -49 16 31 c9 17
20 55 24 84 4 30 13 65 20 79 8 14 14 36 14 48 0 12 6 37 14 55 21 52 37 100
48 146 5 23 14 42 19 42 5 0 9 9 9 21 0 12 6 35 14 52 8 18 24 64 37 102 12
39 28 82 35 97 8 14 14 39 14 55 1 15 7 39 15 53 8 14 14 42 15 63 0 21 7 54
16 75 24 55 24 440 0 494 -9 21 -16 52 -16 71 0 18 -7 42 -15 53 -8 10 -15 30
-15 44 0 14 -7 36 -15 50 -8 14 -14 33 -15 43 0 16 -12 46 -56 144 -8 17 -14
35 -14 41 0 5 -7 15 -15 22 -8 7 -15 20 -15 30 0 10 -7 23 -15 30 -8 7 -15 19
-15 27 0 7 -5 19 -10 26 -6 7 -29 41 -52 77 -23 36 -45 67 -48 70 -4 3 -12 14
-18 25 -6 11 -12 16 -13 10z"/>
<path d="M2810 12489 c0 -5 5 -7 10 -4 6 3 10 8 10 11 0 2 -4 4 -10 4 -5 0
-10 -5 -10 -11z"/>
<path d="M2761 12419 c-19 -30 -48 -79 -63 -109 -16 -30 -33 -62 -38 -70 -24
-43 -70 -147 -70 -161 0 -8 -7 -24 -15 -35 -8 -10 -15 -30 -15 -44 0 -14 -6
-37 -14 -52 -8 -14 -17 -46 -21 -70 -4 -24 -12 -48 -17 -55 -11 -13 -31 -211
-30 -293 1 -93 19 -266 30 -286 5 -10 13 -45 17 -77 4 -31 11 -60 16 -62 4 -3
11 -27 15 -53 4 -26 13 -56 20 -67 8 -11 14 -31 14 -45 0 -14 5 -31 11 -37 6
-6 14 -26 19 -44 10 -41 28 -93 45 -134 7 -16 23 -61 36 -100 12 -38 28 -84
36 -102 7 -17 13 -40 13 -51 0 -11 7 -33 15 -48 8 -16 15 -41 15 -55 0 -15 7
-43 15 -62 8 -20 15 -50 15 -67 0 -45 17 -36 23 13 4 42 17 84 43 142 7 17 16
42 20 58 3 15 10 27 15 27 5 0 9 7 9 14 0 18 68 151 98 194 12 16 26 41 32 56
5 14 14 26 20 26 5 0 10 6 10 14 0 8 6 21 13 28 6 7 36 49 66 93 65 96 160
235 224 328 26 38 47 70 47 72 0 2 16 27 35 57 20 29 52 86 72 126 19 40 40
75 44 78 5 3 9 15 9 27 0 12 7 31 15 41 8 11 15 28 15 39 0 10 6 28 12 40 25
44 64 218 54 243 -5 12 -23 -5 -70 -67 -35 -46 -160 -178 -278 -294 -218 -214
-285 -286 -327 -356 -12 -21 -27 -39 -32 -39 -5 0 -9 -9 -9 -19 0 -11 -4 -22
-9 -25 -13 -8 -48 -84 -57 -121 -4 -16 -11 -36 -17 -43 -5 -7 -12 -45 -14 -85
-3 -39 -11 -81 -18 -93 -7 -11 -15 -34 -17 -50 -2 -18 -9 -29 -18 -29 -20 0
-27 110 -8 132 18 22 25 624 8 703 -6 30 -16 98 -21 150 -5 52 -14 110 -21
130 -7 21 -11 116 -12 250 0 183 2 223 18 266 9 29 16 64 14 80 -3 26 -4 25
-37 -27z"/>
<path d="M4657 12260 c-9 -26 -30 -75 -53 -123 -8 -16 -14 -39 -14 -51 0 -12
-6 -30 -14 -41 -7 -11 -16 -31 -19 -45 -8 -35 -36 -119 -53 -157 -8 -17 -14
-40 -14 -50 0 -10 -5 -24 -11 -30 -6 -6 -15 -29 -19 -50 -5 -21 -13 -54 -20
-73 -7 -19 -16 -48 -22 -65 -6 -16 -13 -48 -17 -70 -4 -22 -13 -50 -19 -62 -7
-12 -12 -33 -12 -47 0 -13 -5 -37 -12 -53 -11 -28 -27 -93 -48 -208 -6 -33
-16 -75 -21 -93 -6 -18 -14 -73 -19 -122 -5 -49 -12 -95 -17 -102 -10 -15 -24
-263 -25 -438 -1 -176 10 -353 27 -435 15 -74 29 -143 47 -235 6 -30 14 -59
18 -65 5 -5 11 -28 16 -49 4 -22 13 -51 20 -65 8 -14 14 -35 14 -46 0 -11 7
-29 15 -39 8 -11 15 -30 15 -42 0 -12 7 -27 15 -34 8 -7 15 -19 15 -26 0 -15
70 -155 82 -164 4 -3 12 -17 17 -30 11 -25 32 -61 41 -70 3 -3 14 -18 26 -35
68 -99 99 -141 108 -151 6 -6 40 -46 76 -89 67 -80 230 -248 254 -262 14 -9
115 -97 172 -150 19 -18 37 -33 40 -33 3 0 27 -17 52 -37 60 -49 55 -45 142
-108 41 -30 80 -58 85 -62 12 -10 64 -44 87 -58 9 -5 63 -41 120 -80 57 -38
119 -78 138 -89 19 -10 42 -24 50 -31 8 -6 22 -15 30 -19 8 -3 27 -14 42 -24
15 -9 60 -36 100 -60 40 -24 80 -47 88 -53 8 -5 24 -14 35 -19 11 -6 34 -19
50 -29 17 -11 53 -32 80 -47 136 -73 271 -188 341 -290 35 -51 38 -60 38 -129
1 -86 11 -97 59 -63 52 39 250 241 282 288 17 25 33 47 38 48 4 2 7 9 7 16 0
7 9 23 20 36 11 13 20 29 20 35 0 7 7 18 15 25 8 7 15 23 15 35 0 12 7 28 15
35 8 7 15 23 15 36 0 13 6 41 14 61 26 68 38 248 25 384 -6 68 -17 138 -25
156 -8 17 -14 44 -14 60 0 15 -7 37 -15 47 -8 11 -15 30 -15 42 0 12 -6 35
-14 51 -19 40 -44 94 -56 123 -5 14 -26 52 -45 85 -19 33 -38 67 -42 75 -3 8
-9 17 -12 20 -14 12 -51 70 -51 79 0 6 -6 14 -13 18 -6 4 -25 28 -42 52 -16
24 -43 55 -58 70 -16 14 -48 46 -71 70 -22 23 -66 68 -96 100 -67 67 -149 158
-210 231 -25 29 -52 61 -60 70 -38 40 -90 109 -90 119 0 6 -4 11 -8 11 -5 0
-26 25 -48 56 -21 30 -45 62 -51 69 -7 7 -13 18 -13 24 0 5 -6 14 -12 18 -17
11 -58 69 -58 83 0 5 -4 10 -8 10 -5 0 -14 10 -21 23 -6 12 -20 36 -31 52 -11
17 -25 41 -30 55 -6 13 -14 27 -18 30 -20 15 -182 344 -182 369 0 6 -4 11 -9
11 -5 0 -12 14 -16 31 -4 17 -13 42 -21 57 -8 15 -14 34 -14 42 0 8 -7 24 -15
34 -8 11 -15 29 -15 41 0 12 -7 30 -15 41 -8 10 -15 30 -15 44 0 14 -7 34 -15
44 -8 11 -15 31 -15 44 0 13 -6 38 -14 55 -15 34 -30 90 -50 198 -7 36 -16 71
-20 77 -4 7 -11 53 -16 104 -6 51 -14 120 -19 153 -5 33 -10 170 -11 305 -1
147 -5 237 -10 225 -5 -11 -9 -49 -9 -85 -1 -36 -6 -81 -12 -100 -13 -39 -31
-359 -30 -545 0 -205 17 -509 29 -532 7 -12 12 -48 12 -81 0 -33 6 -77 14 -98
7 -22 17 -67 21 -102 4 -34 11 -64 15 -67 5 -3 12 -31 16 -62 3 -31 13 -68 20
-82 8 -14 14 -36 14 -49 0 -13 5 -33 12 -45 6 -12 15 -38 19 -57 9 -43 27 -96
45 -132 8 -14 14 -32 14 -40 1 -7 9 -31 20 -53 11 -22 19 -48 20 -57 0 -10 4
-18 9 -18 5 0 13 -14 16 -32 4 -17 14 -38 21 -46 8 -7 14 -19 14 -26 0 -7 11
-33 23 -57 88 -165 111 -206 123 -220 8 -8 14 -18 14 -22 0 -15 152 -231 215
-306 17 -20 36 -49 43 -64 11 -25 10 -28 -5 -23 -10 2 -33 8 -51 11 -18 4 -45
13 -60 21 -15 8 -34 14 -42 14 -8 0 -24 7 -34 15 -11 8 -27 15 -37 15 -9 0
-22 7 -29 15 -7 8 -20 15 -30 15 -10 0 -23 7 -30 15 -7 8 -21 15 -31 15 -9 0
-24 7 -33 15 -8 8 -17 15 -21 15 -6 0 -112 63 -173 102 -15 10 -34 21 -42 25
-8 3 -34 20 -56 37 -23 17 -52 38 -64 46 -13 8 -30 22 -39 31 -9 8 -47 39 -86
69 -78 61 -268 247 -335 330 -25 30 -53 64 -63 75 -28 31 -136 189 -157 230
-6 11 -19 34 -29 50 -21 32 -64 118 -89 175 -8 19 -21 47 -29 62 -7 14 -13 34
-13 45 0 10 -7 27 -15 37 -8 11 -15 34 -15 50 0 17 -7 40 -15 50 -8 11 -15 34
-15 50 0 17 -6 43 -14 57 -7 14 -17 48 -21 75 -4 27 -11 56 -15 64 -5 9 -13
54 -19 100 -6 47 -15 108 -21 135 -14 66 -14 594 0 660 6 28 15 88 21 135 6
47 14 89 19 95 4 5 11 32 15 59 4 27 14 61 21 75 8 14 14 37 14 51 0 14 7 34
15 44 8 11 15 31 15 45 0 13 7 32 16 42 9 10 14 30 12 51 -3 32 -4 32 -11 8z"/>
<path d="M10851 12014 c0 -11 3 -14 6 -6 3 7 2 16 -1 19 -3 4 -6 -2 -5 -13z"/>
<path d="M41948 12010 c-395 -45 -682 -373 -739 -844 -32 -267 59 -505 239
-620 82 -52 126 -70 225 -90 190 -39 417 1 595 105 74 44 227 198 271 272 19
32 32 59 30 62 -3 2 -87 18 -188 36 -178 31 -184 31 -194 13 -20 -38 -123
-130 -171 -152 -61 -29 -172 -40 -218 -22 -99 39 -147 118 -156 255 -2 46 -2
95 2 109 l6 26 489 0 489 0 9 68 c13 109 8 299 -11 376 -49 203 -188 347 -377
390 -86 20 -207 26 -301 16z m199 -314 c65 -33 113 -119 121 -213 l5 -63 -282
0 c-320 0 -302 -6 -255 88 31 62 101 142 152 174 73 45 188 52 259 14z"/>
<path d="M43452 12010 c-329 -46 -609 -328 -705 -709 -29 -115 -31 -353 -3
-450 71 -258 265 -411 521 -411 132 0 291 62 403 157 28 24 52 40 52 35 0 -39
-44 -257 -65 -318 -64 -189 -176 -272 -355 -262 -61 4 -87 10 -123 32 -51 29
-93 90 -103 147 -3 19 -7 44 -10 57 l-4 22 -220 0 -220 0 0 -68 c0 -136 54
-266 152 -364 68 -68 203 -138 315 -162 83 -18 261 -21 349 -5 334 59 551 287
654 684 16 61 78 426 139 810 61 385 114 715 117 733 l6 32 -210 0 -210 0 -12
-70 c-6 -38 -15 -70 -18 -70 -4 0 -18 16 -32 35 -32 44 -110 99 -177 125 -63
24 -157 31 -241 20z m240 -388 c143 -65 214 -268 158 -453 -43 -145 -142 -267
-259 -323 -57 -27 -77 -31 -146 -31 -70 0 -87 4 -133 29 -60 33 -109 94 -138
171 -29 77 -25 219 9 308 96 248 324 382 509 299z"/>
<path d="M45991 12009 c-196 -21 -372 -109 -521 -258 -153 -155 -233 -314
-266 -533 -37 -242 23 -458 165 -598 77 -75 154 -120 266 -152 103 -29 321
-32 429 -5 171 43 304 117 426 237 142 140 231 310 265 507 90 516 -236 858
-764 802z m188 -396 c139 -71 199 -272 136 -460 -48 -141 -140 -252 -255 -307
-56 -27 -76 -31 -145 -31 -66 0 -89 5 -129 25 -57 29 -114 99 -142 175 -28 75
-25 219 8 305 95 258 335 391 527 293z"/>
<path d="M47808 12010 c-115 -21 -206 -66 -287 -143 l-43 -42 5 30 c3 17 9 49
12 73 l7 42 -211 0 c-132 0 -211 -4 -211 -10 0 -5 -52 -336 -115 -735 -63
-399 -115 -728 -115 -730 0 -3 94 -5 208 -5 l208 0 63 403 c34 221 72 438 82
481 22 86 63 176 104 224 42 50 121 83 198 83 132 0 187 -60 187 -204 0 -46
-28 -255 -70 -521 -38 -245 -70 -450 -70 -455 0 -8 69 -11 208 -11 l207 0 75
468 c99 617 103 727 29 873 -58 117 -165 174 -339 184 -47 2 -106 0 -132 -5z"/>
<path d="M49202 12009 c-357 -46 -660 -392 -712 -812 -21 -168 6 -344 72 -470
43 -82 155 -194 231 -230 131 -63 291 -72 440 -24 76 24 187 88 222 127 25 28
38 25 31 -7 -3 -16 -8 -45 -12 -65 l-6 -38 206 0 c205 0 206 0 211 23 2 12 54
337 115 722 60 385 112 708 114 718 4 16 -11 17 -205 17 -201 0 -209 -1 -209
-20 0 -10 -5 -41 -11 -68 l-10 -50 -54 55 c-62 61 -132 97 -232 118 -74 16
-97 16 -191 4z m264 -394 c59 -29 103 -78 136 -152 30 -67 37 -208 13 -289
-42 -145 -141 -270 -262 -327 -59 -28 -78 -32 -148 -32 -95 0 -139 19 -202 87
-116 127 -118 360 -4 535 118 181 310 255 467 178z"/>
<path d="M57563 12010 c-389 -43 -729 -378 -793 -780 -26 -166 -5 -325 59
-455 90 -182 241 -290 451 -325 80 -14 235 -8 305 11 58 15 174 59 179 68 8
12 67 372 64 383 -2 5 -19 -3 -38 -17 -256 -192 -560 -101 -599 179 -26 186
56 384 209 505 70 55 146 82 237 82 96 1 156 -20 230 -80 l61 -49 26 171 c15
95 29 184 32 198 4 22 -2 29 -44 52 -92 50 -240 72 -379 57z"/>
<path d="M58783 12010 c-136 -15 -263 -63 -378 -145 -237 -168 -390 -520 -372
-854 7 -124 31 -209 84 -300 226 -381 888 -354 1194 50 58 76 95 139 82 139
-4 0 -88 14 -187 31 l-180 31 -20 -29 c-124 -177 -357 -228 -470 -103 -47 52
-66 121 -66 237 l0 93 489 0 c456 0 489 1 496 18 4 9 9 87 12 173 9 252 -32
386 -156 510 -83 83 -166 123 -293 144 -100 16 -123 16 -235 5z m209 -326 c48
-34 95 -127 104 -206 l7 -58 -287 0 c-202 0 -286 3 -286 11 0 30 66 144 109
188 106 109 251 135 353 65z"/>
<path d="M44676 11943 c-12 -59 -226 -1421 -226 -1437 0 -15 18 -16 207 -14
l207 3 113 710 c61 391 114 722 117 738 l6 27 -209 0 -209 0 -6 -27z"/>
<path d="M56249 11968 c0 -2 -53 -334 -118 -738 l-117 -735 205 -3 c112 -1
206 0 209 3 3 3 58 336 122 740 l116 735 -208 0 c-114 0 -208 -1 -209 -2z"/>
<path d="M12210 11151 c0 -71 -5 -123 -15 -151 -8 -23 -15 -57 -15 -74 0 -28
-10 -65 -42 -161 -5 -16 -14 -45 -18 -64 -5 -18 -13 -38 -19 -44 -6 -6 -11
-17 -11 -25 0 -12 -13 -44 -56 -139 -8 -17 -14 -38 -14 -46 0 -8 -7 -20 -15
-27 -8 -7 -15 -23 -15 -35 0 -12 -7 -28 -15 -35 -8 -7 -15 -20 -15 -29 0 -10
-7 -26 -15 -37 -8 -10 -15 -28 -15 -39 0 -11 -6 -29 -14 -40 -7 -11 -17 -35
-21 -52 -3 -18 -10 -33 -15 -33 -4 0 -11 -18 -15 -41 -4 -22 -13 -53 -21 -67
-8 -15 -14 -36 -14 -47 0 -11 -7 -29 -15 -39 -8 -11 -15 -35 -15 -53 0 -19 -7
-50 -15 -70 -8 -19 -15 -61 -15 -92 -1 -31 -7 -74 -15 -96 -8 -22 -15 -50 -15
-63 0 -13 -8 -42 -19 -65 -10 -23 -21 -50 -25 -61 -5 -15 -9 -16 -21 -6 -19
16 -19 62 -1 98 43 86 40 428 -4 552 -30 83 -45 120 -82 197 -22 46 -44 85
-49 89 -5 3 -9 14 -9 24 0 10 -4 20 -8 22 -5 2 -28 37 -52 78 -24 41 -47 77
-52 78 -4 2 -8 9 -8 16 0 7 -9 23 -20 36 -11 13 -20 29 -20 37 0 7 -4 13 -9
13 -5 0 -14 12 -20 28 -6 15 -20 41 -30 57 -11 17 -39 68 -62 115 -23 47 -48
97 -55 112 -8 14 -14 36 -14 48 0 13 -4 19 -11 14 -14 -8 -4 -256 11 -283 4
-9 12 -66 16 -126 4 -61 13 -124 21 -142 7 -18 13 -49 13 -70 1 -21 7 -49 15
-63 8 -14 14 -37 15 -52 0 -15 6 -42 14 -60 8 -18 24 -67 36 -108 12 -41 25
-82 30 -91 5 -9 12 -34 16 -55 4 -22 13 -48 20 -59 8 -11 14 -29 14 -41 0 -12
7 -35 15 -50 8 -16 15 -40 15 -54 0 -14 7 -34 15 -44 8 -11 15 -33 15 -49 0
-15 5 -38 12 -50 24 -45 66 -314 70 -447 1 -41 -1 -111 -6 -155 l-8 -80 39 52
c21 29 54 75 73 103 19 28 41 58 48 65 6 7 12 18 12 24 0 5 6 14 14 18 7 4 15
13 17 19 5 14 79 102 142 167 26 28 47 52 47 54 0 2 19 27 41 56 81 102 189
282 189 316 0 5 3 11 8 13 4 2 17 30 30 63 13 33 30 75 38 93 8 18 14 43 14
55 0 12 6 31 14 42 7 11 16 44 19 73 3 29 10 58 14 65 29 45 52 460 33 612
-21 170 -44 290 -66 342 -8 17 -14 40 -14 52 0 12 -4 21 -10 21 -6 0 -10 -43
-10 -109z"/>
<path d="M2333 11170 c-7 -25 -17 -67 -23 -95 -6 -27 -16 -66 -22 -85 -15 -53
-31 -250 -30 -385 1 -149 14 -346 25 -362 4 -6 12 -46 17 -89 5 -42 14 -82 19
-88 5 -6 12 -32 15 -58 4 -26 11 -50 15 -53 5 -2 12 -22 15 -42 4 -21 13 -51
20 -68 40 -88 92 -185 117 -219 16 -22 29 -46 29 -53 0 -7 4 -13 10 -13 5 0
21 -20 36 -45 14 -25 30 -45 35 -45 5 0 9 -7 9 -15 0 -8 4 -15 8 -15 4 0 33
-32 63 -72 29 -39 68 -85 84 -102 25 -26 78 -91 150 -184 5 -7 17 -21 25 -30
9 -9 33 -44 55 -76 l40 -60 5 210 c4 139 9 216 18 231 6 12 12 37 12 55 0 18
6 45 14 59 7 14 16 47 20 72 4 26 11 49 16 52 5 3 12 26 16 52 4 25 13 58 20
72 8 14 14 37 14 51 1 14 7 36 15 50 8 14 14 39 15 56 0 16 7 39 15 50 8 10
15 35 15 54 0 20 6 44 14 55 7 11 16 44 19 73 3 29 10 58 14 65 9 13 29 100
44 192 6 33 15 76 22 95 6 19 14 73 18 120 4 47 13 115 19 152 13 78 10 291
-3 243 -22 -79 -129 -306 -177 -375 -11 -16 -31 -51 -50 -85 -6 -11 -19 -33
-30 -50 -11 -16 -24 -39 -30 -50 -6 -11 -21 -38 -34 -60 -13 -22 -41 -74 -61
-115 -21 -41 -44 -87 -51 -102 -8 -14 -14 -31 -14 -36 0 -6 -5 -23 -12 -39
-12 -29 -31 -117 -49 -233 -11 -70 -3 -264 12 -292 14 -25 14 -137 1 -150 -8
-8 -14 -4 -23 18 -6 16 -17 43 -24 59 -13 30 -27 104 -46 245 -6 41 -14 79
-18 85 -5 5 -12 29 -16 53 -4 24 -13 56 -21 70 -8 15 -14 36 -14 47 0 11 -7
29 -15 39 -8 11 -15 30 -15 42 0 12 -7 27 -15 34 -8 7 -15 23 -15 35 0 12 -7
28 -15 35 -8 7 -15 23 -15 35 0 12 -7 28 -15 35 -8 7 -15 19 -15 27 0 8 -6 27
-14 41 -17 31 -68 145 -104 232 -8 19 -21 48 -28 63 -8 16 -14 39 -14 51 0 12
-6 30 -14 41 -7 11 -17 39 -21 62 -4 24 -11 45 -15 48 -5 3 -12 27 -15 53 -3
26 -11 65 -17 87 -6 22 -14 96 -17 165 -6 120 -7 123 -18 80z"/>
<path d="M11200 9891 c0 -12 -6 -32 -12 -44 -12 -21 -20 -49 -48 -157 -7 -25
-18 -65 -26 -90 -8 -25 -14 -63 -14 -86 0 -22 -7 -63 -15 -90 -8 -27 -15 -78
-15 -114 0 -36 -7 -101 -15 -145 -8 -44 -15 -120 -15 -170 0 -49 -5 -124 -11
-165 -5 -41 -14 -135 -19 -208 -5 -73 -14 -148 -19 -165 -6 -18 -14 -66 -20
-107 -15 -109 -36 -212 -49 -237 -7 -12 -12 -32 -12 -45 0 -13 -7 -33 -15 -44
-8 -10 -15 -30 -15 -42 0 -13 -6 -36 -14 -50 -47 -92 -67 -149 -48 -140 4 2
23 12 42 21 19 10 49 26 65 37 17 11 39 24 50 30 11 6 32 18 47 28 15 9 60 37
100 61 40 24 89 57 109 73 20 15 40 28 43 28 4 0 35 21 70 48 35 26 74 54 86
62 13 8 30 22 39 31 9 8 48 39 86 69 39 30 135 120 215 200 152 152 177 180
224 248 16 23 32 42 36 42 4 0 10 8 14 18 3 9 14 29 23 44 35 52 99 164 115
198 9 19 24 53 33 75 10 22 24 53 31 68 8 16 14 35 14 44 0 8 6 29 14 46 8 18
19 59 26 92 6 33 15 80 20 105 12 63 12 317 0 325 -6 4 -10 -7 -10 -27 0 -18
-6 -45 -14 -60 -8 -15 -17 -40 -21 -57 -4 -17 -11 -31 -16 -31 -5 0 -9 -8 -9
-18 0 -9 -16 -41 -35 -71 -19 -29 -35 -56 -35 -61 0 -5 -3 -10 -7 -12 -5 -1
-21 -22 -36 -44 -15 -23 -41 -56 -57 -75 -17 -18 -30 -35 -30 -38 0 -3 -15
-22 -33 -43 -44 -49 -125 -141 -183 -208 -26 -30 -61 -69 -78 -86 -39 -38
-184 -198 -222 -244 -16 -19 -36 -42 -44 -51 -50 -53 -206 -253 -213 -272 -5
-16 -27 2 -27 23 0 10 6 31 14 47 23 47 44 132 62 257 15 102 16 134 5 230 -6
61 -15 161 -20 221 -4 61 -13 121 -20 132 -6 12 -11 46 -11 76 0 30 -6 77 -14
103 -15 53 -37 222 -43 344 -3 41 -9 79 -14 85 -5 5 -9 0 -9 -14z m-20 -1651
c0 -5 -5 -10 -11 -10 -5 0 -7 5 -4 10 3 6 8 10 11 10 2 0 4 -4 4 -10z"/>
<path d="M3367 9773 c-3 -5 -8 -57 -12 -118 -4 -60 -13 -125 -21 -144 -8 -18
-14 -48 -14 -67 0 -18 -6 -53 -14 -76 -8 -24 -16 -64 -20 -90 -3 -26 -10 -56
-15 -65 -14 -27 -31 -198 -31 -318 0 -131 17 -287 36 -338 8 -20 14 -48 14
-61 0 -14 6 -37 14 -53 7 -15 20 -44 28 -63 8 -19 30 -65 48 -102 30 -63 34
-98 11 -98 -5 0 -28 28 -50 63 -22 34 -45 68 -51 74 -5 7 -15 23 -20 35 -17
39 -121 192 -165 243 -39 45 -176 192 -210 226 -144 140 -258 256 -300 304
-27 31 -57 64 -66 73 -34 34 -149 195 -149 208 0 8 -4 14 -10 14 -5 0 -12 11
-16 25 -3 13 -12 29 -20 36 -8 6 -14 22 -14 34 0 12 -7 28 -15 35 -8 7 -15 22
-15 34 0 11 -4 27 -9 34 -16 25 -34 -14 -27 -60 3 -24 10 -97 15 -163 5 -66
14 -133 19 -150 6 -16 20 -64 32 -105 12 -41 28 -89 36 -107 8 -17 14 -39 14
-48 0 -9 7 -23 15 -31 8 -9 15 -24 15 -33 0 -10 7 -24 15 -31 8 -7 15 -21 15
-32 0 -10 7 -21 15 -24 8 -4 15 -12 15 -19 0 -12 85 -136 114 -166 9 -9 16
-19 16 -23 0 -8 215 -223 268 -269 18 -15 65 -53 105 -83 40 -31 74 -60 75
-65 2 -5 9 -9 16 -9 7 0 24 -9 37 -20 35 -29 41 -33 74 -55 40 -26 65 -42 93
-56 12 -7 22 -16 22 -21 0 -4 7 -8 15 -8 9 0 18 -7 21 -15 4 -8 11 -15 16 -15
6 0 42 -21 81 -47 75 -50 99 -65 132 -83 11 -6 34 -19 50 -30 17 -11 40 -25
53 -31 12 -7 22 -16 22 -21 0 -4 6 -8 13 -8 7 0 32 -14 55 -31 40 -29 42 -30
42 -10 0 12 -13 47 -30 78 -16 31 -30 63 -30 72 0 10 -7 26 -15 37 -8 10 -15
30 -15 44 0 14 -7 38 -15 53 -14 27 -22 58 -45 177 -6 30 -18 83 -26 117 -8
34 -14 85 -14 115 0 29 -5 71 -11 93 -6 22 -15 106 -19 187 -5 81 -13 156 -19
167 -6 11 -11 64 -11 118 0 54 -6 127 -14 163 -8 36 -19 106 -25 155 -13 118
-34 233 -49 268 -7 16 -12 43 -12 60 0 18 -7 41 -15 51 -8 11 -15 32 -15 48 0
26 -22 40 -33 21z"/>
<path d="M39886 9393 c-3 -16 -83 -514 -176 -1108 -94 -594 -173 -1095 -176
-1112 l-6 -33 588 0 589 0 28 183 c15 100 27 185 27 190 0 4 -164 7 -365 7
-215 0 -365 4 -365 9 0 11 88 555 96 594 l6 27 354 0 c195 0 354 3 354 8 0 12
50 326 55 350 l5 22 -355 0 c-195 0 -355 2 -355 5 0 8 70 450 76 478 l6 27
366 0 367 0 28 183 c15 100 27 185 27 190 0 4 -263 7 -584 7 l-584 0 -6 -27z"/>
<path d="M18019 9363 c-12 -3 -18 -21 -23 -69 -4 -36 -13 -91 -21 -122 -8 -31
-15 -74 -15 -97 0 -22 -7 -62 -15 -89 -8 -27 -15 -71 -15 -98 0 -27 -7 -65
-15 -85 -8 -19 -15 -59 -15 -87 -1 -28 -7 -69 -15 -91 -8 -22 -15 -65 -15 -95
-1 -30 -7 -73 -15 -95 -8 -22 -15 -58 -15 -80 -1 -22 -6 -60 -11 -85 -6 -25
-17 -85 -24 -135 -7 -49 -18 -108 -24 -130 -6 -22 -11 -61 -11 -86 0 -26 -7
-66 -15 -89 -8 -23 -15 -64 -15 -90 0 -26 -7 -67 -15 -90 -8 -23 -15 -63 -15
-89 0 -25 -5 -64 -11 -86 -6 -22 -15 -76 -20 -120 -5 -44 -13 -91 -18 -105 -6
-14 -11 -59 -13 -100 l-3 -75 196 -3 c167 -2 198 0 209 13 7 9 17 55 22 103 6
48 16 115 24 149 8 34 14 84 14 110 0 27 7 75 15 106 8 32 15 79 15 105 1 26
6 67 11 92 6 25 14 85 19 134 5 49 13 101 19 115 5 14 12 66 15 114 4 49 10
96 15 105 5 10 12 59 16 110 4 51 11 95 16 98 19 11 49 -18 60 -59 6 -23 14
-46 19 -52 4 -5 11 -25 15 -43 4 -18 13 -45 21 -60 8 -15 14 -36 14 -47 0 -11
7 -29 15 -39 8 -11 15 -31 15 -45 0 -14 7 -35 15 -45 8 -11 15 -31 15 -45 0
-14 7 -35 15 -45 8 -11 15 -29 15 -41 0 -12 7 -30 15 -41 8 -10 15 -28 15 -39
0 -11 6 -32 14 -47 8 -15 17 -41 21 -58 4 -17 13 -43 21 -58 8 -15 14 -34 14
-43 0 -9 7 -30 15 -45 8 -16 15 -37 15 -46 0 -9 6 -29 14 -45 17 -35 35 -86
47 -138 6 -22 14 -44 20 -49 5 -6 9 -17 9 -25 0 -9 6 -28 14 -43 8 -15 17 -42
21 -60 4 -18 11 -37 15 -43 5 -5 12 -26 17 -45 9 -35 10 -35 71 -38 71 -3 102
9 102 41 1 12 9 40 20 62 11 22 19 48 20 58 0 9 4 25 10 35 12 21 40 98 47
132 3 14 12 34 19 45 8 11 14 29 14 40 0 12 7 30 15 41 8 10 15 28 15 39 0 11
6 32 14 47 8 15 17 41 21 58 4 17 13 43 21 58 8 15 14 33 14 40 0 7 4 20 10
30 12 21 38 95 50 141 5 18 13 38 19 44 6 6 11 20 11 32 0 12 7 30 15 41 8 10
15 28 15 39 0 11 6 32 14 47 8 15 17 41 21 58 4 17 13 43 21 58 8 15 14 33 14
40 0 8 6 26 14 40 8 15 17 38 20 52 3 14 17 39 30 55 l24 30 11 -28 c6 -16 11
-49 11 -75 0 -26 7 -79 15 -117 8 -39 15 -97 15 -130 0 -33 7 -82 15 -109 8
-27 15 -79 15 -115 0 -36 5 -82 11 -101 6 -19 14 -86 19 -148 5 -62 14 -121
20 -131 5 -11 10 -44 10 -74 0 -31 6 -89 14 -130 8 -41 18 -106 22 -146 l7
-71 208 0 209 0 0 50 c0 27 -5 59 -10 72 -6 13 -15 64 -20 113 -12 112 -27
223 -41 295 -6 30 -14 91 -18 136 -4 44 -11 86 -16 94 -4 7 -12 54 -16 104 -4
50 -12 116 -18 146 -16 87 -32 198 -42 290 -5 47 -14 101 -19 120 -6 19 -15
76 -20 125 -13 127 -28 230 -45 305 -9 36 -15 90 -15 121 0 31 -7 78 -15 105
-8 27 -15 77 -15 110 0 47 -5 68 -21 88 -20 26 -23 26 -142 26 -151 0 -164 -4
-176 -44 -5 -17 -19 -56 -31 -86 -12 -30 -25 -70 -30 -89 -5 -18 -13 -38 -19
-44 -6 -6 -11 -20 -11 -31 0 -12 -6 -33 -14 -48 -8 -15 -17 -41 -21 -58 -4
-17 -13 -43 -21 -58 -8 -15 -14 -33 -14 -40 0 -7 -4 -20 -10 -30 -12 -21 -40
-98 -47 -132 -3 -14 -12 -34 -19 -45 -8 -11 -14 -29 -14 -40 0 -12 -7 -30 -15
-41 -8 -10 -15 -28 -15 -39 0 -11 -6 -32 -14 -47 -8 -15 -17 -41 -21 -58 -4
-17 -13 -43 -21 -58 -8 -15 -14 -33 -14 -40 0 -7 -4 -20 -10 -30 -12 -21 -38
-95 -50 -141 -5 -18 -13 -38 -19 -44 -6 -6 -11 -20 -11 -32 0 -11 -6 -29 -14
-40 -7 -11 -16 -36 -20 -55 -9 -46 -39 -85 -60 -77 -9 4 -16 15 -16 25 0 10
-7 27 -15 38 -8 10 -15 26 -15 34 0 8 -9 33 -20 55 -11 22 -19 45 -20 51 0 7
-7 25 -15 40 -8 16 -15 39 -15 51 0 12 -4 24 -10 28 -5 3 -14 20 -19 38 -5 18
-19 57 -31 87 -39 101 -51 135 -61 167 -5 18 -16 45 -24 60 -8 15 -15 34 -15
41 0 7 -4 20 -10 30 -14 24 -41 101 -47 134 -3 15 -11 33 -19 39 -8 6 -14 24
-14 39 0 15 -7 33 -15 40 -8 7 -15 20 -15 29 0 14 -24 82 -56 158 -8 17 -14
35 -14 41 0 5 -7 23 -15 38 -8 16 -15 36 -15 44 0 8 -7 24 -15 34 -8 11 -15
30 -15 43 0 12 -10 31 -22 43 -20 18 -34 20 -147 19 -69 -1 -133 -3 -142 -6z"/>
<path d="M21030 9338 c-11 -18 -20 -40 -20 -48 0 -8 -7 -24 -15 -34 -8 -11
-15 -29 -15 -41 0 -12 -7 -30 -15 -41 -8 -10 -15 -28 -15 -40 0 -11 -7 -29
-15 -40 -8 -10 -15 -26 -15 -34 0 -8 -7 -28 -15 -44 -8 -15 -15 -33 -15 -40
-1 -6 -9 -29 -20 -51 -11 -22 -19 -45 -20 -51 0 -7 -7 -25 -15 -40 -8 -16 -15
-36 -15 -44 0 -8 -7 -24 -15 -34 -8 -11 -15 -29 -15 -41 0 -12 -7 -30 -15 -41
-8 -10 -15 -28 -15 -40 0 -11 -7 -29 -15 -40 -8 -10 -15 -28 -15 -40 0 -11 -7
-29 -15 -40 -8 -10 -15 -26 -15 -34 0 -8 -9 -33 -20 -55 -11 -22 -19 -45 -20
-51 0 -7 -7 -25 -15 -40 -8 -16 -15 -36 -15 -45 0 -8 -7 -24 -15 -35 -8 -10
-15 -28 -15 -40 0 -11 -7 -29 -15 -40 -8 -10 -15 -28 -15 -40 0 -11 -7 -29
-15 -40 -8 -10 -15 -26 -15 -34 0 -8 -7 -28 -15 -44 -8 -15 -15 -33 -15 -40
-1 -6 -9 -29 -20 -51 -11 -22 -19 -47 -20 -56 0 -8 -7 -24 -15 -35 -8 -10 -15
-28 -15 -40 0 -11 -7 -29 -15 -40 -8 -10 -15 -28 -15 -40 0 -11 -7 -29 -15
-40 -8 -10 -15 -28 -15 -40 0 -11 -7 -29 -15 -40 -8 -10 -15 -25 -15 -32 0 -8
-7 -28 -15 -45 -21 -47 -46 -118 -52 -149 -3 -15 -11 -33 -19 -39 -8 -6 -14
-21 -14 -33 0 -12 -7 -31 -15 -42 -8 -10 -15 -28 -15 -39 0 -11 -6 -30 -14
-41 -8 -11 -16 -38 -18 -60 l-3 -39 212 -3 211 -2 21 43 c12 24 21 50 21 59 0
9 7 21 15 28 8 7 15 22 15 34 0 12 7 31 15 42 8 10 15 28 15 40 0 11 7 29 15
40 8 10 15 26 15 34 0 8 9 33 20 55 11 22 19 47 20 56 0 9 11 24 25 33 21 14
70 16 392 16 l368 0 28 -25 c15 -14 27 -34 27 -44 0 -10 7 -32 15 -47 8 -16
15 -38 15 -49 0 -11 7 -29 15 -39 8 -11 15 -29 15 -41 0 -12 7 -30 15 -41 8
-10 15 -28 15 -39 0 -11 6 -29 14 -40 7 -11 16 -37 20 -57 4 -22 15 -42 26
-48 11 -6 105 -10 225 -10 229 0 234 2 202 64 -9 17 -19 45 -23 61 -4 17 -13
39 -20 50 -8 11 -14 29 -14 40 0 11 -7 29 -15 39 -8 11 -15 29 -15 41 0 12 -7
30 -15 41 -8 10 -15 28 -15 40 0 11 -7 29 -15 40 -8 10 -15 28 -15 39 0 11 -7
33 -15 49 -8 15 -15 33 -15 40 -1 6 -9 29 -20 51 -11 22 -19 45 -20 51 0 7 -7
25 -15 40 -8 16 -15 38 -15 49 0 11 -7 29 -15 39 -8 11 -15 29 -15 40 0 12 -7
30 -15 40 -8 11 -15 27 -15 35 0 9 -7 29 -15 45 -8 15 -15 33 -15 40 0 6 -6
23 -14 38 -8 15 -17 42 -21 60 -4 18 -14 42 -21 53 -8 11 -14 29 -14 40 0 11
-7 29 -15 39 -8 11 -15 29 -15 40 0 12 -7 30 -15 40 -8 11 -15 29 -15 41 0 12
-7 30 -15 41 -8 10 -15 28 -15 40 0 11 -7 29 -15 40 -8 10 -15 28 -15 39 0 11
-6 29 -14 40 -7 11 -17 35 -21 53 -4 18 -13 45 -21 60 -8 15 -14 36 -14 47 0
11 -7 29 -15 39 -8 11 -15 30 -15 42 0 12 -7 27 -15 34 -8 7 -15 25 -15 40 0
15 -7 33 -15 40 -8 7 -15 22 -15 34 0 11 -7 34 -15 50 -8 15 -15 33 -15 40 -1
6 -9 29 -20 51 -11 22 -19 45 -20 51 0 7 -7 25 -15 40 -8 16 -15 36 -15 45 0
9 -10 36 -23 60 l-24 44 -156 3 -157 3 -20 -33z m180 -680 c11 -23 20 -47 20
-52 1 -6 9 -29 20 -51 11 -22 20 -51 20 -65 0 -14 7 -34 15 -44 8 -11 15 -31
15 -45 0 -14 7 -35 15 -45 8 -11 15 -29 15 -41 0 -12 7 -30 15 -41 8 -10 15
-27 15 -37 0 -11 6 -33 13 -50 8 -18 24 -63 36 -102 13 -38 30 -85 38 -103 8
-18 13 -45 11 -60 l-3 -27 -258 -3 c-223 -2 -258 0 -263 13 -5 13 15 95 48
190 5 17 13 47 18 68 4 21 13 44 19 50 6 6 11 25 11 42 0 17 7 40 15 51 8 10
15 33 15 49 0 17 6 39 14 50 7 11 16 41 20 67 4 26 11 50 16 53 4 3 11 24 15
47 4 23 11 49 16 58 5 8 13 27 19 43 13 38 26 34 50 -15z"/>
<path d="M22475 9348 c-3 -13 -4 -529 -3 -1148 l3 -1125 185 -3 c102 -1 195 0
208 3 l22 5 0 739 c0 666 2 739 16 745 22 8 28 3 76 -62 23 -31 46 -61 50 -67
20 -24 334 -445 348 -465 8 -12 30 -39 47 -59 18 -20 33 -42 33 -49 0 -7 7
-15 15 -18 8 -4 15 -12 15 -20 0 -8 4 -14 9 -14 5 0 25 -24 44 -52 19 -29 43
-63 54 -75 10 -11 25 -31 33 -43 23 -33 54 -75 68 -91 6 -8 91 -120 188 -249
97 -129 185 -243 197 -253 17 -15 38 -17 166 -15 l146 3 0 1140 0 1140 -185 3
c-102 1 -195 0 -207 -3 l-23 -5 -2 -743 c-3 -739 -3 -742 -23 -745 -15 -2 -31
12 -60 53 -22 31 -47 64 -55 74 -8 11 -22 29 -30 41 -8 12 -20 28 -26 34 -6 6
-15 18 -20 27 -5 9 -21 32 -36 50 -40 50 -440 583 -458 609 -8 12 -30 39 -47
59 -18 20 -33 42 -33 49 0 7 -7 15 -15 18 -8 4 -15 12 -15 20 0 7 -6 17 -13
21 -8 4 -31 33 -52 63 -21 30 -43 60 -49 67 -19 22 -31 37 -56 73 -13 19 -31
42 -39 51 -9 9 -23 27 -31 39 -8 12 -44 61 -80 109 l-65 86 -147 3 c-146 3
-148 2 -153 -20z"/>
<path d="M29205 9356 c-49 -7 -100 -17 -112 -24 -12 -7 -32 -12 -45 -12 -13 0
-32 -6 -43 -14 -11 -7 -35 -17 -52 -21 -18 -3 -33 -10 -33 -15 0 -5 -12 -11
-27 -15 -16 -3 -51 -23 -80 -43 -29 -20 -71 -50 -95 -67 -55 -39 -126 -113
-188 -196 -54 -73 -150 -249 -150 -277 0 -9 -7 -26 -15 -36 -8 -11 -15 -32
-15 -46 0 -14 -7 -35 -15 -46 -8 -10 -15 -37 -15 -59 0 -22 -7 -62 -15 -89
-21 -69 -21 -353 0 -422 8 -27 15 -67 15 -89 1 -22 7 -51 15 -65 8 -14 14 -37
15 -52 0 -15 5 -30 10 -33 6 -3 15 -26 21 -51 6 -24 15 -44 20 -44 5 0 9 -5 9
-11 0 -12 40 -99 50 -109 15 -15 50 -71 50 -79 0 -6 6 -14 13 -18 6 -4 24 -24
39 -43 56 -75 183 -189 238 -213 8 -4 29 -16 45 -27 17 -11 37 -22 45 -26 8
-3 29 -11 45 -19 17 -7 41 -17 55 -21 14 -4 27 -10 30 -14 3 -4 32 -12 65 -18
33 -6 80 -15 105 -21 56 -13 269 -13 330 -1 25 5 74 15 110 21 36 7 71 19 78
26 7 7 21 13 30 13 48 0 223 111 307 195 48 49 121 145 148 195 13 25 29 55
35 65 18 31 52 113 52 123 0 5 7 23 15 38 8 16 15 40 15 55 0 14 5 30 10 35 6
6 14 39 20 75 5 35 13 84 19 109 6 25 10 96 11 158 l0 112 -470 0 -470 0 0
-165 0 -165 209 0 c229 0 268 -6 256 -43 -4 -12 -10 -43 -15 -68 -5 -26 -13
-55 -19 -65 -5 -11 -20 -41 -33 -69 -45 -96 -231 -255 -299 -255 -11 0 -31 -7
-44 -16 -20 -13 -46 -15 -134 -12 -59 2 -114 8 -122 14 -8 6 -31 14 -51 18
-21 4 -38 11 -38 16 0 6 -8 10 -18 10 -40 0 -172 114 -232 200 -14 19 -27 37
-30 40 -6 6 -42 80 -63 130 -28 66 -39 105 -47 160 -5 30 -13 71 -19 90 -16
51 -13 199 4 256 8 27 15 67 15 90 0 22 7 49 15 60 8 10 15 31 15 45 0 14 7
34 15 45 8 10 15 25 15 33 0 27 100 179 152 232 64 65 93 85 178 126 162 77
358 63 514 -36 83 -52 198 -181 224 -251 7 -17 12 -16 72 13 36 18 67 34 70
37 3 3 28 18 55 32 180 93 177 91 171 120 -9 46 -94 159 -184 246 -47 45 -89
82 -94 82 -8 0 -64 36 -78 50 -10 10 -98 50 -111 50 -8 0 -23 7 -33 15 -11 8
-30 15 -43 15 -12 0 -37 6 -55 14 -79 34 -276 43 -443 22z"/>
<path d="M34760 9356 c-41 -7 -84 -17 -95 -23 -11 -6 -42 -21 -70 -34 -27 -12
-56 -29 -63 -36 -7 -7 -17 -13 -21 -13 -15 0 -110 -96 -143 -145 -51 -75 -108
-202 -108 -242 0 -14 -5 -54 -12 -89 -9 -50 -8 -85 2 -166 7 -57 19 -112 26
-123 6 -11 14 -32 18 -47 4 -16 11 -28 16 -28 6 0 10 -5 10 -10 0 -16 40 -69
80 -107 46 -43 126 -103 139 -103 5 0 16 -6 23 -12 14 -13 55 -34 118 -61 19
-9 57 -25 84 -36 27 -12 56 -21 66 -21 10 0 23 -7 30 -15 7 -8 21 -15 31 -15
10 0 20 -4 23 -9 4 -5 25 -19 49 -30 50 -25 82 -53 121 -104 26 -34 35 -59 53
-151 7 -37 -13 -130 -40 -184 -35 -69 -71 -106 -136 -140 -52 -27 -72 -32
-129 -32 -44 0 -75 5 -88 15 -10 8 -28 15 -39 15 -37 0 -204 132 -205 162 0 4
-6 13 -12 20 -7 7 -24 35 -36 61 -28 57 -13 66 -174 -95 -119 -119 -125 -130
-94 -165 6 -6 29 -37 50 -67 22 -31 43 -56 48 -56 4 0 8 -7 8 -15 0 -8 3 -15
8 -15 4 0 21 -13 37 -28 92 -85 192 -142 310 -179 47 -14 93 -18 216 -18 101
0 161 4 170 11 8 7 30 15 49 19 57 11 163 59 192 88 10 9 22 17 27 17 13 0
105 96 137 143 16 23 32 44 37 45 4 2 7 11 7 21 0 9 6 25 13 36 20 31 50 115
58 165 4 25 12 63 18 85 14 51 14 188 0 240 -6 22 -14 60 -19 85 -11 59 -64
158 -118 220 -49 56 -145 133 -179 144 -13 4 -23 11 -23 16 0 5 -13 11 -30 15
-16 4 -30 11 -30 16 0 5 -5 9 -12 9 -6 0 -32 9 -57 21 -25 11 -59 26 -76 33
-16 7 -46 20 -65 29 -19 8 -45 18 -57 22 -13 3 -23 11 -23 16 0 5 -6 9 -14 9
-23 0 -132 86 -154 121 -29 49 -35 185 -8 211 7 8 16 24 20 36 9 28 78 83 136
108 52 22 174 25 218 4 89 -41 119 -60 163 -102 46 -45 79 -61 79 -39 0 5 6
16 13 23 23 25 57 77 57 88 0 5 5 10 10 10 6 0 14 8 17 18 7 19 44 74 55 82 8
6 12 35 10 60 -1 8 -19 26 -40 40 -20 14 -39 28 -42 31 -3 4 -39 23 -80 44
-41 21 -87 44 -102 51 -14 8 -36 14 -48 14 -12 0 -31 5 -43 12 -50 27 -262 41
-367 24z"/>
<path d="M13585 9308 c-3 -7 -4 -512 -3 -1123 l3 -1110 210 0 210 0 3 489 c1
341 6 493 13 503 9 10 86 13 391 13 357 0 401 -3 428 -27 3 -3 7 -224 10 -491
l5 -487 195 0 195 0 3 1123 2 1122 -200 0 -200 0 0 -434 c0 -354 -2 -436 -14
-445 -9 -8 -127 -10 -417 -9 l-404 3 -5 440 -5 440 -208 3 c-160 2 -209 0
-212 -10z"/>
<path d="M15680 8569 c0 -787 3 -843 46 -979 8 -25 14 -54 14 -65 1 -11 7 -29
15 -39 8 -11 15 -26 15 -34 0 -30 89 -161 156 -230 72 -75 83 -83 164 -122
106 -51 118 -54 250 -80 57 -11 270 -11 335 0 90 15 150 31 177 45 14 8 33 15
41 15 8 0 20 7 27 15 7 8 21 15 31 15 11 0 19 4 19 9 0 5 9 12 19 16 40 12
201 185 201 215 0 5 3 10 8 10 4 0 18 24 30 53 13 28 30 65 38 80 8 16 14 38
14 49 0 11 6 34 14 51 7 18 21 91 30 163 13 109 16 247 16 847 l0 717 -210 0
-210 0 -1 -712 c0 -392 -4 -738 -9 -768 -18 -128 -42 -215 -70 -260 -6 -8 -14
-25 -20 -38 -17 -39 -98 -111 -154 -137 -47 -21 -69 -25 -157 -25 -94 0 -108
3 -164 30 -59 29 -104 69 -152 137 -13 18 -23 38 -23 46 0 7 -7 22 -15 33 -8
10 -15 31 -15 46 0 15 -6 39 -12 55 -10 21 -14 215 -18 808 l-5 780 -212 3
-213 2 0 -751z"/>
<path d="M25782 8198 l3 -1123 210 0 210 0 5 440 c5 481 6 487 58 390 15 -27
30 -52 33 -55 4 -3 18 -26 32 -52 14 -26 45 -78 70 -115 24 -38 47 -75 51 -83
3 -8 15 -28 26 -45 11 -16 24 -39 30 -50 6 -11 18 -32 28 -47 48 -74 102 -168
102 -176 0 -6 3 -12 8 -14 8 -3 82 -123 82 -132 0 -4 10 -20 22 -36 l22 -30
237 0 c131 0 244 3 253 6 12 5 7 18 -29 70 -25 35 -45 68 -45 74 0 5 -4 10 -8
10 -5 0 -14 10 -21 23 -21 39 -71 117 -81 127 -14 14 -50 71 -50 80 0 5 -4 10
-8 10 -5 0 -14 10 -21 23 -15 29 -32 55 -118 182 -40 59 -73 110 -73 115 0 5
-3 10 -7 12 -10 4 -53 65 -53 73 0 4 -15 25 -34 48 -49 61 -51 107 -4 107 11
0 32 6 46 14 15 7 47 24 72 36 43 22 151 123 177 165 24 39 63 124 63 137 0 8
5 19 11 25 14 14 34 151 33 238 0 91 -19 234 -33 248 -6 6 -11 17 -11 25 0 14
-36 94 -52 117 -42 60 -179 184 -205 185 -4 1 -26 9 -48 20 -22 11 -49 19 -60
20 -12 0 -26 5 -32 11 -6 6 -44 15 -85 20 -40 4 -104 13 -143 18 -38 6 -204
10 -368 11 l-297 0 2 -1122z m723 738 c14 -9 31 -16 40 -16 9 0 18 -7 21 -15
4 -8 11 -15 18 -15 26 0 76 -81 101 -164 19 -64 17 -188 -4 -209 -6 -6 -11
-23 -11 -38 0 -15 -7 -34 -15 -43 -8 -8 -15 -19 -15 -24 0 -14 -63 -67 -106
-90 -70 -37 -145 -53 -235 -50 l-84 3 -3 330 c-1 181 0 336 3 344 8 20 256 9
290 -13z"/>
<path d="M27555 9308 c-3 -7 -4 -512 -3 -1123 l3 -1110 200 0 200 0 0 1120 0
1120 -198 3 c-152 2 -199 0 -202 -10z"/>
<path d="M30705 9308 c-3 -7 -4 -512 -3 -1123 l3 -1110 185 -3 c102 -1 195 0
208 3 l22 5 0 484 c0 455 1 484 18 499 17 15 59 17 396 17 241 0 384 -4 397
-10 18 -10 19 -26 19 -494 0 -399 2 -486 14 -495 9 -8 73 -11 207 -9 l194 3 3
1123 2 1122 -197 0 c-109 0 -204 -4 -210 -8 -10 -6 -13 -110 -15 -443 l-3
-434 -410 0 -410 0 -3 434 c-2 333 -5 437 -15 443 -6 4 -99 8 -205 8 -145 0
-194 -3 -197 -12z"/>
<path d="M32647 9313 c-4 -3 -7 -86 -7 -184 l0 -179 217 -2 217 -3 13 -25 c10
-20 13 -221 13 -932 l0 -908 23 -5 c12 -3 105 -4 207 -3 l185 3 3 921 c2 841
4 923 19 935 12 11 69 15 227 19 l211 5 3 174 c2 133 -1 176 -10 183 -15 9
-1312 11 -1321 1z"/>
<path d="M10851 8880 c0 -9 -9 -23 -18 -32 -21 -20 -29 -29 -67 -85 -16 -24
-33 -43 -37 -43 -5 0 -9 -4 -9 -10 0 -5 -8 -18 -17 -28 -10 -10 -25 -29 -33
-42 -8 -12 -20 -28 -26 -34 -6 -6 -24 -33 -40 -59 -16 -27 -37 -61 -46 -75
-10 -15 -22 -36 -28 -47 -5 -11 -14 -27 -19 -35 -14 -23 -71 -149 -71 -156 0
-3 -7 -20 -15 -37 -19 -42 -45 -116 -52 -147 -3 -14 -12 -34 -19 -45 -8 -11
-14 -31 -14 -45 0 -15 -7 -35 -15 -46 -8 -10 -15 -27 -15 -37 0 -11 -6 -33
-13 -50 -8 -18 -24 -66 -38 -107 -13 -41 -27 -80 -32 -87 -5 -7 -13 -27 -17
-45 -14 -52 -36 -108 -48 -120 -7 -7 -12 -22 -12 -34 0 -13 -4 -25 -9 -28 -5
-4 -19 -27 -32 -54 -30 -63 -85 -157 -126 -212 -60 -82 -74 -99 -115 -140 -22
-22 -36 -40 -32 -41 30 -3 92 5 109 14 11 6 43 14 70 18 28 3 70 11 95 17 87
21 267 55 380 73 36 5 72 14 82 19 9 5 40 12 70 16 29 4 62 13 73 20 11 8 29
14 40 14 12 0 30 7 41 15 10 8 29 15 40 15 12 0 27 7 34 15 7 8 19 15 27 15
14 0 94 40 103 52 3 3 18 10 33 13 15 4 27 11 27 15 0 5 10 12 22 16 22 7 46
23 174 117 36 26 67 47 69 47 6 0 118 103 185 170 82 82 141 148 182 204 21
28 41 56 46 61 5 6 22 32 38 59 16 26 37 60 46 74 23 37 55 102 63 130 3 12
11 22 16 22 5 0 9 9 9 21 0 11 6 33 14 47 14 27 42 106 53 150 3 13 1 22 -6
22 -6 0 -11 -4 -11 -9 0 -16 -121 -174 -184 -240 -34 -35 -90 -86 -126 -114
-36 -29 -70 -56 -76 -62 -6 -5 -22 -17 -34 -25 -12 -8 -41 -28 -64 -45 -22
-16 -61 -40 -86 -52 -235 -115 -349 -172 -425 -214 -49 -27 -99 -53 -110 -59
-11 -6 -33 -19 -50 -30 -16 -11 -42 -25 -57 -31 -16 -6 -28 -15 -28 -20 0 -5
-5 -9 -10 -9 -6 0 -33 -16 -60 -35 -27 -19 -52 -35 -56 -35 -3 0 -31 -19 -62
-43 -31 -23 -69 -50 -83 -59 -14 -9 -32 -23 -40 -30 -8 -7 -32 -25 -54 -40
-22 -15 -60 -46 -85 -68 -25 -22 -49 -38 -55 -37 -24 8 -13 37 27 68 67 51
191 181 232 243 20 31 53 89 72 128 20 40 42 86 50 101 8 16 14 36 14 45 0 9
7 30 15 46 8 15 15 39 15 51 0 13 5 36 11 52 12 29 32 122 51 228 5 33 16 85
24 116 8 30 14 77 14 102 0 26 7 64 15 84 8 19 15 53 15 75 0 21 7 55 15 75 8
19 15 49 15 65 0 16 7 45 15 65 8 19 15 44 15 55 0 11 7 35 16 53 9 19 14 42
11 52 -3 13 -5 14 -6 3z"/>
<path d="M3705 8833 c58 -141 75 -197 90 -303 8 -52 18 -115 24 -140 6 -25 10
-64 11 -86 0 -23 7 -58 15 -77 8 -20 15 -56 15 -81 0 -24 7 -57 15 -72 8 -16
15 -44 15 -62 0 -18 6 -48 14 -66 7 -18 17 -52 21 -74 4 -23 10 -44 15 -47 4
-3 11 -20 14 -39 4 -20 13 -48 21 -63 8 -15 15 -35 15 -44 0 -9 7 -22 15 -29
8 -7 15 -20 15 -30 0 -10 7 -23 15 -30 8 -7 15 -18 15 -25 0 -14 43 -83 107
-174 21 -29 73 -89 116 -132 42 -44 77 -87 76 -97 0 -10 -3 -12 -6 -4 -2 6
-11 12 -18 12 -14 0 -96 51 -125 77 -34 31 -77 65 -115 91 -22 15 -44 33 -48
39 -4 7 -15 13 -22 13 -8 0 -15 4 -15 9 0 5 -13 14 -30 20 -16 5 -30 15 -30
20 0 6 -5 11 -11 11 -6 0 -48 22 -93 48 -44 27 -102 59 -128 71 -27 13 -50 27
-54 32 -3 5 -14 9 -24 9 -10 0 -25 7 -34 15 -8 8 -19 15 -24 15 -13 0 -224
108 -236 121 -6 5 -18 9 -27 9 -10 0 -24 6 -31 13 -7 6 -31 21 -53 32 -22 11
-62 35 -90 53 -27 17 -53 32 -58 32 -8 0 -151 105 -197 146 -86 75 -120 108
-120 116 0 5 -13 21 -28 36 -35 33 -86 101 -95 125 -4 9 -11 17 -16 17 -13 0
-2 -67 15 -102 8 -15 14 -32 14 -39 0 -11 100 -219 110 -229 11 -11 50 -69 50
-76 0 -3 8 -16 18 -29 9 -12 24 -33 32 -45 8 -12 25 -34 38 -48 13 -15 33 -40
45 -55 45 -57 204 -214 272 -267 39 -30 76 -60 83 -67 16 -16 121 -94 147
-110 40 -25 241 -123 252 -123 7 0 24 -5 40 -12 54 -22 187 -59 288 -80 28 -5
72 -16 99 -24 26 -8 65 -14 86 -14 20 0 59 -7 86 -15 27 -8 68 -15 91 -15 24
0 60 -6 80 -14 21 -8 64 -17 96 -20 32 -2 64 -9 70 -14 11 -9 65 -16 108 -13
11 1 -6 25 -51 71 -38 39 -85 96 -105 128 -21 31 -45 68 -54 82 -10 14 -28 46
-40 72 -13 27 -27 50 -32 54 -5 3 -9 16 -9 28 0 13 -7 29 -15 36 -8 7 -15 20
-15 29 0 15 -30 105 -59 174 -6 16 -11 36 -11 45 0 9 -7 26 -15 36 -8 11 -15
29 -15 40 0 12 -7 30 -15 40 -8 11 -15 29 -15 41 0 12 -7 30 -15 41 -8 10 -15
25 -15 32 0 15 -21 67 -46 115 -8 16 -14 33 -14 39 0 6 -9 29 -19 52 -11 23
-33 73 -51 111 -17 39 -36 77 -41 85 -5 8 -12 22 -15 30 -3 8 -12 26 -20 40
-8 14 -24 45 -36 70 -13 25 -26 50 -30 55 -20 25 -78 118 -78 122 0 3 -22 34
-50 69 -27 35 -50 66 -50 69 0 3 -8 13 -17 23 -10 10 -32 35 -50 55 -34 40
-50 48 -38 20z"/>
<path d="M43531 8655 c-79 -22 -147 -62 -217 -127 -34 -32 -64 -58 -66 -58 -2
0 1 34 7 75 l12 75 -208 0 c-115 0 -209 -1 -210 -2 0 -2 -53 -334 -117 -738
l-118 -735 205 -3 c112 -1 206 0 209 3 3 3 31 170 63 373 67 421 78 471 124
567 64 132 161 202 298 212 62 5 81 2 135 -20 l62 -25 10 37 c5 20 30 105 54
189 l44 154 -37 15 c-52 22 -184 26 -250 8z"/>
<path d="M44505 8660 c-339 -51 -622 -294 -728 -625 -38 -116 -51 -218 -44
-348 14 -291 173 -495 444 -569 102 -27 302 -30 412 -5 311 72 558 294 663
597 101 291 54 601 -118 773 -76 77 -197 143 -304 166 -74 16 -251 22 -325 11z
m201 -388 c266 -136 202 -618 -104 -769 -67 -34 -84 -38 -151 -38 -125 1 -204
54 -259 175 -31 66 -41 186 -22 273 16 79 69 181 129 248 49 55 142 114 206
130 51 14 156 4 201 -19z"/>
<path d="M46334 8655 c-82 -18 -197 -72 -261 -124 -59 -46 -61 -44 -44 47 l8
42 -208 0 c-208 0 -209 0 -214 -22 -3 -13 -81 -509 -175 -1103 -94 -594 -173
-1095 -176 -1112 l-6 -33 211 0 c124 0 211 4 211 9 0 6 32 211 70 456 39 245
70 451 70 458 0 6 22 -14 49 -44 189 -212 572 -176 845 80 115 107 227 304
273 478 33 128 37 329 9 438 -83 322 -354 497 -662 430z m93 -387 c56 -29 116
-102 138 -168 58 -169 5 -372 -134 -511 -78 -78 -126 -105 -218 -120 -92 -16
-165 4 -230 64 -223 205 -92 649 222 754 60 20 164 11 222 -19z"/>
<path d="M47807 8660 c-82 -13 -217 -62 -283 -101 -31 -19 -83 -58 -116 -88
-306 -277 -413 -830 -218 -1128 54 -82 117 -136 215 -183 313 -152 747 -39
968 252 30 40 62 87 71 105 19 37 41 29 -198 69 l-159 26 -21 -28 c-99 -142
-269 -209 -391 -155 -63 28 -81 45 -113 106 -23 45 -26 62 -26 165 l-1 115
490 5 490 5 8 50 c16 102 10 305 -12 388 -53 201 -178 332 -368 382 -70 19
-257 27 -336 15z m177 -291 c92 -23 160 -117 172 -236 l7 -63 -287 0 -287 0 6
23 c39 130 145 244 253 273 60 16 83 17 136 3z"/>
<path d="M41215 8588 c-58 -336 -138 -877 -142 -968 -15 -339 148 -507 512
-526 418 -23 707 175 800 547 9 35 49 270 89 522 l72 457 -208 0 c-207 0 -208
0 -213 -22 -2 -13 -34 -212 -70 -443 -37 -231 -76 -447 -87 -480 -57 -173
-179 -258 -323 -226 -101 23 -145 92 -145 226 0 54 113 827 135 923 l5 22
-209 0 -210 0 -6 -32z"/>
<path d="M2590 8366 c0 -9 5 -16 10 -16 6 0 10 4 10 9 0 6 -4 13 -10 16 -5 3
-10 -1 -10 -9z"/>
<path d="M10100 7807 c-14 -13 -32 -27 -41 -33 -27 -15 -118 -94 -204 -176
-44 -42 -92 -85 -105 -96 -14 -11 -107 -100 -206 -199 -218 -217 -350 -338
-404 -373 -13 -8 -30 -23 -39 -32 -8 -10 -21 -18 -28 -18 -6 0 -18 -6 -25 -12
-15 -15 -139 -78 -153 -78 -5 -1 -28 -9 -50 -20 -22 -11 -49 -20 -60 -20 -11
0 -31 -7 -45 -15 -14 -8 -38 -15 -55 -15 -16 0 -39 -7 -49 -15 -11 -8 -35 -15
-53 -15 -88 0 17 -34 152 -49 33 -4 70 -12 82 -19 12 -7 36 -12 53 -12 18 0
46 -6 63 -14 18 -8 53 -17 79 -21 26 -3 50 -10 53 -16 4 -5 17 -9 29 -9 13 0
52 -9 86 -20 34 -11 75 -20 90 -20 15 0 41 -7 56 -15 16 -8 46 -15 66 -15 20
0 49 -5 65 -12 97 -39 580 -38 733 2 99 26 187 53 217 66 17 8 35 14 40 14 26
0 293 151 358 202 72 57 214 184 214 192 1 4 20 29 44 55 23 26 56 68 72 92
17 24 33 46 38 47 4 2 7 13 7 24 0 20 -2 19 -25 -6 -13 -14 -28 -26 -32 -26
-5 0 -19 -10 -33 -23 -33 -30 -108 -79 -140 -92 -8 -4 -22 -11 -30 -16 -8 -5
-22 -12 -30 -16 -8 -3 -34 -14 -57 -24 -23 -11 -49 -19 -58 -19 -9 0 -23 -7
-31 -15 -9 -8 -30 -15 -47 -15 -18 -1 -43 -7 -57 -15 -14 -8 -39 -14 -56 -15
-17 0 -51 -7 -74 -15 -23 -8 -64 -15 -89 -15 -26 0 -71 -6 -101 -14 -30 -7
-104 -16 -165 -19 -60 -3 -153 -11 -205 -16 -52 -6 -149 -15 -215 -20 -132
-11 -242 -26 -293 -42 -19 -6 -70 -15 -115 -20 -45 -5 -97 -12 -114 -15 -41
-8 -75 2 -53 16 8 6 25 10 38 10 13 0 30 6 38 14 7 8 33 17 56 21 24 4 54 13
68 20 14 6 43 20 65 31 91 42 268 202 330 297 6 8 28 42 50 74 48 70 61 91 75
123 6 13 14 27 18 30 4 3 26 43 50 90 24 47 47 92 52 100 5 8 11 22 14 30 3 8
11 24 18 35 22 39 28 50 33 63 13 31 17 40 41 82 38 66 46 90 31 90 -7 0 -23
-10 -37 -23z"/>
<path d="M4435 7790 c3 -5 8 -10 11 -10 2 0 4 5 4 10 0 6 -5 10 -11 10 -5 0
-7 -4 -4 -10z"/>
<path d="M4460 7756 c0 -8 6 -21 13 -28 16 -16 26 -34 95 -175 75 -152 92
-189 92 -202 0 -6 4 -11 9 -11 5 0 12 -11 15 -25 4 -14 27 -58 51 -99 25 -40
45 -78 45 -84 0 -6 4 -12 9 -14 6 -1 30 -28 54 -60 36 -47 84 -93 152 -147 37
-29 116 -79 150 -94 22 -10 53 -25 68 -33 16 -8 35 -14 42 -14 8 0 26 -5 42
-12 15 -6 46 -16 67 -22 21 -6 46 -22 54 -34 l16 -24 -105 7 c-57 4 -116 14
-131 21 -15 8 -44 14 -64 14 -21 0 -76 7 -123 15 -47 8 -160 19 -251 25 -313
20 -525 39 -560 49 -19 6 -56 11 -81 11 -26 0 -63 7 -82 15 -20 8 -51 15 -69
15 -18 1 -44 7 -58 15 -14 8 -38 14 -53 15 -16 0 -41 6 -55 13 -15 8 -43 21
-62 29 -64 28 -145 68 -175 88 -16 11 -40 24 -51 29 -12 5 -23 13 -25 18 -7
16 -61 53 -70 47 -17 -10 65 -110 195 -239 72 -71 142 -137 155 -145 13 -8 42
-29 65 -46 22 -17 48 -34 56 -37 8 -4 29 -16 45 -27 17 -11 42 -25 58 -31 15
-6 27 -15 27 -20 0 -5 7 -9 15 -9 8 0 32 -9 52 -20 21 -11 43 -20 50 -20 8 0
21 -4 31 -10 26 -15 102 -40 150 -51 24 -5 49 -12 55 -16 7 -4 37 -10 67 -14
30 -3 99 -12 152 -20 86 -11 118 -11 275 5 98 10 197 25 221 32 23 8 58 14 76
14 19 0 50 7 69 15 20 8 50 15 67 15 17 0 43 6 58 14 15 7 47 16 72 20 24 4
49 11 55 15 5 5 35 13 65 19 121 24 166 35 197 48 17 8 47 14 66 14 19 0 54 7
77 15 23 8 64 15 91 15 27 0 49 5 49 10 0 6 -21 10 -47 10 -27 1 -59 7 -73 15
-14 8 -36 14 -48 15 -13 0 -36 6 -50 14 -15 7 -63 31 -107 51 -44 21 -99 51
-123 67 -24 15 -45 28 -48 28 -9 0 -104 75 -104 82 0 4 -5 8 -11 8 -11 0 -80
54 -135 105 -18 17 -56 52 -86 79 -29 28 -130 124 -223 215 -94 91 -203 195
-244 231 -41 36 -81 72 -90 80 -9 8 -36 28 -59 44 -23 16 -42 33 -42 37 0 5
-6 9 -14 9 -7 0 -19 7 -26 15 -16 19 -40 19 -40 1z"/>
<path d="M6605 6649 c-27 -4 -95 -13 -149 -19 -55 -6 -106 -15 -115 -20 -9 -4
-38 -11 -65 -15 -27 -4 -61 -14 -75 -21 -14 -8 -33 -14 -42 -14 -9 0 -22 -7
-29 -15 -7 -8 -17 -15 -24 -15 -6 0 -40 -14 -76 -31 -87 -41 -116 -54 -175
-79 -27 -11 -62 -27 -77 -35 -14 -8 -35 -15 -46 -15 -11 0 -25 -7 -32 -15 -7
-8 -22 -15 -34 -15 -11 0 -30 -7 -40 -15 -11 -8 -29 -15 -41 -15 -12 0 -30 -7
-41 -15 -10 -8 -27 -15 -37 -15 -11 0 -33 -6 -50 -14 -52 -22 -162 -56 -184
-56 -11 0 -34 -7 -49 -15 -16 -8 -48 -15 -72 -15 -23 0 -59 -7 -79 -15 -50
-21 -439 -21 -498 0 -22 8 -52 15 -66 15 -14 0 -34 7 -45 15 -10 8 -28 15 -39
15 -11 0 -37 9 -58 20 -20 11 -44 20 -53 20 -9 0 -22 7 -29 16 -6 9 -17 15
-23 13 -17 -6 196 -175 263 -209 11 -6 34 -19 50 -30 88 -57 236 -117 321
-130 28 -4 62 -14 75 -21 18 -10 86 -13 269 -13 205 1 251 3 284 17 21 10 55
17 75 17 20 1 47 7 61 15 14 8 35 14 46 15 19 0 44 9 154 57 31 13 133 64 208
102 15 8 29 18 30 23 2 4 8 8 14 8 5 0 20 8 33 18 12 9 33 24 45 32 12 8 28
20 34 26 6 6 36 28 66 49 30 21 66 48 78 61 13 13 45 36 70 50 26 15 53 34 60
41 7 7 20 13 28 13 8 0 14 4 14 8 0 11 145 82 167 82 10 0 29 7 41 16 40 28
277 32 321 5 23 -15 -4 -46 -66 -77 -32 -16 -60 -32 -63 -36 -3 -3 -18 -10
-33 -13 -15 -4 -27 -11 -27 -15 0 -4 -12 -13 -27 -19 -16 -6 -41 -20 -58 -31
-16 -11 -39 -24 -50 -30 -11 -6 -47 -28 -80 -50 -33 -22 -67 -43 -75 -47 -8
-4 -20 -12 -26 -17 -6 -6 -22 -18 -34 -26 -12 -8 -63 -45 -112 -82 -49 -38
-91 -68 -93 -68 -3 0 -13 -8 -23 -17 -10 -10 -29 -27 -43 -38 -138 -117 -269
-243 -269 -260 0 -6 23 -32 52 -56 28 -24 66 -56 84 -71 38 -34 57 -35 77 -5
8 12 25 34 38 48 65 71 145 164 156 179 10 15 170 163 263 244 32 28 189 148
212 161 22 13 140 92 153 102 6 4 33 19 60 33 28 14 52 28 55 31 15 17 156 79
178 79 15 -1 45 -12 67 -25 22 -14 51 -30 65 -36 13 -5 27 -13 30 -17 3 -4 23
-16 44 -27 22 -11 44 -24 51 -30 19 -18 74 -55 80 -55 11 0 258 -191 287 -221
15 -16 32 -29 37 -29 6 0 113 -101 238 -225 125 -124 230 -224 234 -223 9 4
105 85 150 128 l37 35 -115 100 c-63 55 -122 107 -131 116 -9 9 -66 52 -127
97 -60 45 -118 89 -127 97 -10 8 -20 15 -23 15 -9 0 -70 44 -73 53 -2 4 -8 7
-14 7 -5 0 -20 8 -33 18 -44 33 -165 112 -172 112 -3 0 -38 19 -77 43 -39 23
-97 55 -129 71 -51 25 -58 32 -55 55 l3 26 140 3 c138 3 141 2 200 -27 33 -16
67 -32 75 -35 8 -4 29 -15 45 -26 17 -11 42 -25 58 -31 15 -6 27 -15 27 -20 0
-5 4 -9 9 -9 13 0 185 -110 189 -121 2 -5 9 -9 16 -9 6 0 44 -22 84 -50 40
-27 77 -50 82 -50 6 0 10 -4 10 -9 0 -5 12 -14 28 -20 15 -6 41 -20 57 -30 47
-31 253 -131 269 -131 8 0 27 -6 43 -14 39 -20 105 -35 193 -46 41 -5 99 -14
129 -19 76 -15 204 -13 286 4 38 8 88 15 110 15 22 1 51 7 65 15 14 8 36 14
48 15 13 0 36 6 50 14 15 7 42 18 60 25 59 21 97 36 102 42 3 3 23 14 45 26
82 42 110 58 120 69 5 5 30 23 54 40 25 16 81 64 125 106 73 70 79 77 55 78
-15 0 -32 -6 -38 -14 -7 -8 -23 -17 -36 -20 -14 -4 -25 -11 -25 -16 0 -6 -6
-10 -12 -10 -7 -1 -31 -9 -53 -20 -22 -11 -47 -19 -55 -20 -9 0 -21 -5 -27
-11 -6 -6 -35 -14 -64 -19 -30 -5 -72 -13 -94 -19 -50 -13 -354 -13 -415 0
-25 5 -76 14 -115 20 -38 6 -74 14 -80 18 -5 5 -29 11 -53 15 -24 3 -51 10
-60 15 -55 30 -104 51 -116 51 -7 0 -19 7 -26 15 -7 8 -23 15 -35 15 -12 0
-28 7 -35 15 -7 8 -20 15 -29 15 -10 0 -26 7 -37 15 -10 8 -25 15 -33 15 -8 0
-32 9 -55 19 -76 36 -114 51 -124 51 -6 0 -23 6 -39 14 -35 17 -86 35 -138 47
-21 6 -44 14 -50 18 -5 5 -29 12 -52 16 -24 4 -45 10 -48 15 -3 4 -29 11 -60
15 -30 3 -57 10 -60 15 -3 5 -31 11 -63 15 -31 3 -89 13 -129 21 -86 19 -480
17 -504 -2 -8 -6 -41 -14 -73 -18 -33 -4 -64 -10 -70 -15 -6 -5 -30 -12 -53
-16 -24 -4 -45 -11 -49 -16 -7 -11 -61 -12 -68 0 -3 4 -29 11 -58 15 -29 4
-57 11 -63 16 -5 4 -55 13 -110 19 -55 7 -127 16 -160 21 -73 10 -202 10 -270
-1z"/>
</g>
</svg>
