<?xml version="1.0" encoding="utf-8"?>
<!-- Generator: Adobe Illustrator 24.3.0, SVG Export Plug-In . SVG Version: 6.00 Build 0)  -->
<svg version="1.1" id="Layer_1" xmlns="http://www.w3.org/2000/svg" xmlns:xlink="http://www.w3.org/1999/xlink" x="0px" y="0px"
	 viewBox="0 0 1000 1000" style="enable-background:new 0 0 1000 1000;" xml:space="preserve">
<style type="text/css">
	.st0{fill:#FFFFFF;}
	.st1{font-family:'MyriadPro-Regular';}
	.st2{font-size:157.7494px;}
	.st3{fill-rule:evenodd;clip-rule:evenodd;fill:#872436;}
	.st4{fill-rule:evenodd;clip-rule:evenodd;fill:#FAB93B;}
	.st5{fill-rule:evenodd;clip-rule:evenodd;fill:#020202;}
	.st6{fill-rule:evenodd;clip-rule:evenodd;fill:#FFFFFF;}
	.st7{fill-rule:evenodd;clip-rule:evenodd;fill:#D1D3D4;}
</style>
<text transform="matrix(1 0 0 1 -1198.4888 -169.9531)" class="st0 st1 st2">Minnesota University logo</text>
<path class="st3" d="M611.5,420.4l-44.7-74.3h12.3v-38.7h-74.4v38.7h12.3L500,374.5l-17.1-28.4h12.3v-38.7h-74.4v38.7h12.3
	l-44.7,74.3h-16v38.7h75.9v-38.7h-13.6l23.3-38.7l9,15h-8.7v38.7h83.2v-38.7h-8.7l9-15l23.3,38.7h-13.6v38.7h75.9v-38.7H611.5z"/>
<path class="st4" d="M574.1,312.4v28.8H558l50.6,84.2h13.8v28.8h-65.9v-28.8h17.4l-32-53.3l-17.8,29.6h12.5v28.8h-73.2v-28.8h12.5
	L458,372.1l-32.1,53.3h17.4v28.8h-65.9v-28.8h13.8l50.7-84.2h-16.1v-28.8h64.4v28.8h-16.1l25.8,43l25.9-43h-16.1v-28.8H574.1
	L574.1,312.4z"/>
<path class="st3" d="M569.2,317.4v18.9h-19.9l56.6,94.1h11.6v18.9h-56v-18.9h21.3l-40.8-67.9l-26.6,44.2h16.3v18.9h-63.3v-18.9h16.3
	L458,362.5l-40.8,67.9h21.3v18.9h-56v-18.9H394l56.6-94.1h-19.9v-18.9h54.5v18.9h-19.9l34.6,57.5l34.6-57.5h-19.9v-18.9H569.2z
	 M285.6,503.8v-2H312v2h-2.8c-2.9,0-5.2,1.2-6.8,3.7c-0.8,1.1-1.1,3.8-1.1,8v30.4c0,7.5-0.7,13.3-2.2,17.5
	c-1.5,4.2-4.4,7.7-8.8,10.7c-4.4,3-10.3,4.4-17.8,4.4c-8.2,0-14.4-1.4-18.6-4.3c-4.2-2.8-7.2-6.6-9-11.4c-1.2-3.3-1.8-9.4-1.8-18.5
	V515c0-4.6-0.6-7.6-1.9-9c-1.3-1.4-3.3-2.1-6.1-2.1h-2.8v-2h32.3v2h-2.9c-3.1,0-5.3,1-6.6,2.9c-0.9,1.3-1.4,4.1-1.4,8.3v32.6
	c0,2.9,0.3,6.2,0.8,10c0.6,3.7,1.5,6.7,2.9,8.8c1.4,2.1,3.4,3.8,6.1,5.2c2.6,1.4,5.9,2,9.7,2c4.9,0,9.3-1.1,13.2-3.2
	c3.9-2.1,6.5-4.9,7.9-8.2c1.4-3.3,2.1-9,2.1-16.9v-30.3c0-4.7-0.5-7.6-1.5-8.8c-1.4-1.6-3.6-2.4-6.4-2.4L285.6,503.8L285.6,503.8z
	 M432.5,635.3h-0.8c-2.3,0-4.1,0.7-5.1,2.1c-0.7,0.9-1.1,3.1-1.1,6.5v37.2c0,2.9,0.2,4.8,0.6,5.7c0.3,0.7,0.9,1.3,1.8,1.8
	c1.2,0.7,2.5,1,3.8,1h2.1v1.6h-24.6v-1.6h2c2.4,0,4.1-0.7,5.2-2.1c0.7-0.9,1-3.1,1-6.5v-37.2c0-2.9-0.2-4.8-0.6-5.8
	c-0.3-0.7-0.9-1.3-1.8-1.8c-1.2-0.7-2.5-1-3.9-1h-2v-1.6h38.5l35.2,43.2v-33.2c0-3.5-0.4-5.7-1.2-6.6c-1.1-1.2-2.7-1.8-5-1.8h-2
	v-1.6h33.1l35.2,43.2v-33.2c0-3.5-0.4-5.7-1.2-6.6c-1.1-1.2-2.7-1.8-5-1.8h-2v-1.6H555v1.6h-2c-2.5,0-4.2,0.7-5.3,2.2
	c-0.6,0.9-0.9,3-0.9,6.2v48.5h-1.5l-37.9-46.3v35.4c0,3.5,0.4,5.7,1.2,6.6c1.1,1.2,2.8,1.8,5,1.8h2v1.6h-20.2v-1.6h2
	c2.5,0,4.2-0.7,5.3-2.2c0.6-0.9,0.9-3,0.9-6.2v-40c-1.7-1.9-2.9-3.2-3.8-3.9c-0.9-0.6-2.1-1.2-3.8-1.8l0,0l0,0l0,0h0l0,0h0l0,0h0
	l0,0h-0.2l0,0h0l0,0l0,0l0,0l0,0h0l0,0h0l0,0h-3.4l-0.1,0h0l-0.1,0h-0.1l-0.1,0h0l-0.1,0h0l-0.1,0h0l-0.1,0h0l-0.1,0h0l-0.1,0h0
	l-0.1,0h0l-0.1,0h0l-0.1,0h0l-0.1,0l-0.1,0l-0.1,0l-0.1,0l-0.2,0.1h0l-0.1,0h0l-0.1,0h0l-0.1,0h0l-0.1,0h0l-0.1,0l0,0l-0.1,0l0,0
	l-0.1,0l0,0l-0.1,0l0,0l-0.1,0l0,0l-0.1,0l0,0l0,0l0,0l0,0l0,0l0,0l0,0l0,0l0,0l0,0l0,0l0,0l0,0l0,0l0,0l0,0l0,0l0,0l0,0l0,0l0,0
	l0,0l0,0l0,0l0,0l0,0l0,0l0,0l0,0l0,0l0,0l0,0l0,0l0,0l0,0l0,0l0,0l0,0l0,0l0,0l0,0l0,0l0,0l0,0l0,0.1l0,0l0,0.1v0l0,0.1l0,0.1
	l0,0.1l0,0.1l0,0.1c-0.6,0.9-0.9,3-0.9,6.2v48.5h-1.5L447.3,646v35.4c0,3.5,0.4,5.7,1.2,6.6c1.1,1.2,2.8,1.8,5,1.8h2v1.6h-20.2v-1.6
	h2c2.5,0,4.2-0.7,5.3-2.2c0.6-0.9,0.9-3,0.9-6.2v-40c-1.7-1.9-2.9-3.2-3.8-3.9c-0.9-0.6-2.1-1.2-3.8-1.8l0,0l0,0l0,0l0,0h0l0,0h0
	l0,0h0l0,0h0l0,0h-0.2l0,0h0l0,0h0l0,0h-0.1l0,0l0,0h0l0,0h-2.5L432.5,635.3z M304.8,519.5h15.5l35.2,43.2v-33.2
	c0-3.5-0.4-5.7-1.2-6.6c-1.1-1.2-2.7-1.8-5-1.8h-2v-1.6h20.2v1.6h-2c-2.5,0-4.2,0.7-5.3,2.2c-0.6,0.9-0.9,3-0.9,6.2V578h-1.5
	l-37.9-46.3v35.4c0,3.5,0.4,5.8,1.2,6.6c1.1,1.2,2.8,1.8,5,1.8h2v1.6h-20.2v-1.6h2c2.5,0,4.2-0.7,5.3-2.2c0.6-0.9,0.9-3,0.9-6.2v-40
	c-1.7-1.9-2.9-3.2-3.8-3.9c-0.9-0.6-2.1-1.2-3.8-1.8c-0.8-0.2-2.1-0.4-3.7-0.4L304.8,519.5L304.8,519.5z M213.4,632.4
	c7.4,0,13.9,2.8,19.4,8.5c5.5,5.7,8.2,12.7,8.2,21.2c0,8.7-2.7,16-8.3,21.8c-5.5,5.8-12.2,8.7-20,8.7c-7.9,0-14.5-2.8-19.9-8.4
	c-5.4-5.6-8.1-12.9-8.1-21.8c0-9.1,3.1-16.6,9.3-22.3C199.5,635,205.9,632.5,213.4,632.4L213.4,632.4z M351.4,692.6l-28.9-63.1v50.1
	c0,4.6,0.5,7.5,1.5,8.7c1.4,1.5,3.6,2.3,6.6,2.3h2.7v2h-26.3v-2h2.7c3.2,0,5.5-1,6.8-2.9c0.8-1.2,1.2-3.9,1.2-8.1v-49
	c0-3.3-0.4-5.7-1.1-7.2c-0.5-1.1-1.5-2-2.9-2.7c-1.4-0.7-3.7-1.1-6.8-1.1v-2h21.5l27,58.6l26.8-58.6h21.3v2h-2.6
	c-3.3,0-5.5,1-6.9,2.9c-0.8,1.2-1.2,3.9-1.2,8.1v49c0,4.6,0.5,7.5,1.6,8.7c1.4,1.5,3.6,2.3,6.6,2.3h2.6v2h-32.1v-2h2.7
	c3.2,0,5.5-1,6.8-2.9c0.8-1.2,1.2-3.9,1.2-8.1v-50.1l-28.8,63.1L351.4,692.6L351.4,692.6z M793.3,672.1H771l-3.8,9
	c-1,2.2-1.5,3.9-1.5,5c0,0.9,0.4,1.6,1.3,2.3c0.8,0.7,2.6,1.1,5.4,1.3v1.6h-18.1v-1.6c2.4-0.4,3.9-1,4.7-1.7c1.4-1.4,3-4.1,4.8-8.3
	l20.2-47.4h1.4l20,47.9c1.6,3.8,3.1,6.3,4.4,7.5c1.3,1.1,3.1,1.8,5.5,1.9v1.6h-22.7v-1.6c2.3-0.1,3.8-0.5,4.6-1.1
	c0.8-0.7,1.2-1.5,1.2-2.4c0-1.2-0.6-3.2-1.7-5.9L793.3,672.1L793.3,672.1z M792,669l-9.7-23.2l-9.9,23.2H792z M760.2,633.8l0.6,13.5
	h-1.6c-0.3-2.4-0.7-4.1-1.3-5.1c-0.9-1.6-2-2.8-3.5-3.6c-1.5-0.8-3.4-1.2-5.7-1.2h-8.1v43.9c0,3.5,0.4,5.7,1.1,6.6
	c1.1,1.2,2.7,1.8,5,1.8h2v1.6h-24.5v-1.6h2.1c2.5,0,4.2-0.7,5.2-2.2c0.6-0.9,0.9-3,0.9-6.2v-43.9h-6.9c-2.7,0-4.6,0.2-5.7,0.6
	c-1.5,0.5-2.7,1.6-3.8,3.1c-1,1.5-1.7,3.6-1.9,6.2h-1.6l0.6-13.5L760.2,633.8L760.2,633.8z M681.5,632.4c7.4,0,13.9,2.8,19.4,8.5
	c5.5,5.7,8.2,12.7,8.2,21.2c0,8.7-2.7,16-8.3,21.8c-5.5,5.8-12.2,8.7-20,8.7c-7.9,0-14.5-2.8-19.9-8.4c-5.4-5.6-8.1-12.9-8.1-21.8
	c0-9.1,3.1-16.6,9.3-22.3C667.6,635,674,632.5,681.5,632.4L681.5,632.4z M680.7,635.5c-5.1,0-9.2,1.9-12.3,5.7
	c-3.9,4.8-5.8,11.7-5.8,20.9c0,9.4,2,16.6,6,21.7c3.1,3.8,7.1,5.8,12.2,5.8c5.4,0,9.8-2.1,13.4-6.3c3.5-4.2,5.3-10.9,5.3-19.9
	c0-9.8-1.9-17.2-5.8-22C690.5,637.4,686.2,635.5,680.7,635.5L680.7,635.5z M643.9,632.4v19.9h-1.6c-0.5-3.8-1.4-6.9-2.7-9.1
	c-1.3-2.3-3.2-4.1-5.6-5.4c-2.4-1.3-5-2-7.5-2c-2.9,0-5.4,0.9-7.3,2.7c-1.9,1.8-2.9,3.8-2.9,6.1c0,1.8,0.6,3.4,1.8,4.8
	c1.8,2.1,5.9,5,12.5,8.5c5.4,2.9,9.1,5.1,11,6.6c2,1.6,3.5,3.4,4.5,5.5c1.1,2.1,1.6,4.3,1.6,6.6c0,4.4-1.7,8.1-5.1,11.3
	c-3.4,3.2-7.7,4.7-13.1,4.7c-1.7,0-3.2-0.1-4.7-0.4c-0.9-0.1-2.7-0.7-5.5-1.6c-2.7-0.9-4.5-1.4-5.2-1.4c-0.7,0-1.3,0.2-1.7,0.6
	c-0.4,0.4-0.7,1.3-0.9,2.7H610v-19.7h1.6c0.7,4.1,1.7,7.2,3,9.3c1.2,2,3.2,3.8,5.7,5.1c2.6,1.4,5.4,2,8.4,2c3.5,0,6.3-0.9,8.4-2.8
	c2-1.9,3.1-4.1,3.1-6.6c0-1.4-0.4-2.8-1.2-4.3c-0.8-1.5-2-2.8-3.6-4.1c-1.1-0.9-4.1-2.6-9.1-5.4c-4.9-2.7-8.4-4.9-10.5-6.6
	c-2.1-1.6-3.7-3.5-4.7-5.4c-1.1-2-1.6-4.2-1.6-6.5c0-4.1,1.6-7.7,4.8-10.7c3.2-3,7.2-4.5,12.1-4.5c3.1,0,6.3,0.8,9.7,2.2
	c1.6,0.7,2.7,1.1,3.4,1.1c0.7,0,1.4-0.2,1.8-0.7c0.5-0.5,0.8-1.3,1.1-2.6L643.9,632.4L643.9,632.4z M571.7,636.9v22.7h12.7
	c3.3,0,5.5-0.5,6.6-1.5c1.5-1.3,2.3-3.6,2.5-6.9h1.6v20h-1.6c-0.4-2.8-0.8-4.6-1.2-5.4c-0.5-1-1.4-1.8-2.5-2.3
	c-1.2-0.6-2.9-0.9-5.3-0.9h-12.7v19c0,2.5,0.1,4.1,0.3,4.6c0.2,0.6,0.6,1,1.2,1.3c0.6,0.3,1.7,0.5,3.2,0.5h9.7
	c3.2,0,5.6-0.2,7.1-0.7c1.5-0.5,2.9-1.4,4.2-2.7c1.8-1.8,3.5-4.4,5.4-7.9h1.7l-5,14.4h-44.3v-1.6h2c1.4,0,2.6-0.3,3.9-1
	c0.9-0.5,1.5-1.1,1.9-2c0.3-0.9,0.5-2.8,0.5-5.6v-37.4c0-3.6-0.4-5.9-1.1-6.7c-1-1.1-2.7-1.7-5.1-1.7h-2v-1.6h44.3l0.6,12.7h-1.7
	c-0.6-3-1.2-5.2-2-6.3c-0.7-1.1-1.8-2-3.2-2.6c-1.1-0.4-3.1-0.6-6-0.6L571.7,636.9L571.7,636.9z M262.2,636.9v22.6h10.4
	c2.4,0,4.2-0.5,5.3-1.6c1.1-1.1,1.9-3.2,2.2-6.3h1.6v19.5h-1.6c0-2.2-0.3-3.9-0.9-4.9c-0.6-1.1-1.3-1.8-2.3-2.4
	c-1-0.5-2.4-0.8-4.4-0.8h-10.4v18.1c0,2.9,0.2,4.8,0.6,5.7c0.3,0.7,0.9,1.3,1.8,1.8c1.2,0.7,2.5,1,3.9,1h2v1.6h-24.6v-1.6h2
	c2.4,0,4.1-0.7,5.2-2.1c0.7-0.9,1-3.1,1-6.5v-37.2c0-2.9-0.2-4.8-0.6-5.8c-0.3-0.7-0.9-1.3-1.8-1.8c-1.2-0.7-2.5-1-3.9-1h-2v-1.6
	h42.7l0.6,12.7h-1.5c-0.7-2.7-1.6-4.7-2.6-6c-1-1.3-2.2-2.2-3.6-2.7c-1.4-0.6-3.6-0.9-6.6-0.9L262.2,636.9L262.2,636.9z
	 M212.6,635.5c-5.1,0-9.2,1.9-12.3,5.7c-3.9,4.8-5.8,11.7-5.8,20.9c0,9.4,2,16.6,6,21.7c3.1,3.8,7.1,5.8,12.2,5.8
	c5.4,0,9.8-2.1,13.4-6.3c3.5-4.2,5.3-10.9,5.3-19.9c0-9.8-1.9-17.2-5.8-22C222.4,637.4,218.1,635.5,212.6,635.5L212.6,635.5z
	 M742.6,519.5h20.1v1.6h-1.1c-0.7,0-1.8,0.3-3.2,1c-1.4,0.7-2.7,1.6-3.9,2.8c-1.2,1.2-2.6,3.2-4.3,6l-13.8,21.6v14.6
	c0,3.5,0.4,5.8,1.2,6.6c1.1,1.2,2.8,1.8,5.2,1.8h1.9v1.6H720v-1.6h2.1c2.5,0,4.2-0.7,5.2-2.2c0.6-0.9,0.9-3,0.9-6.2v-13.5
	l-15.7-24.3c-1.9-2.8-3.1-4.6-3.8-5.3c-0.7-0.7-2-1.6-4.1-2.5c-0.6-0.3-1.4-0.4-2.5-0.4v-1.6h24.5v1.6h-1.3c-1.3,0-2.6,0.3-3.7,0.9
	s-1.7,1.6-1.7,2.8c0,1,0.9,2.9,2.6,5.5l11.9,18.5l11.3-17.7c1.7-2.7,2.5-4.6,2.5-5.9c0-0.8-0.2-1.5-0.6-2.1c-0.4-0.6-1-1.1-1.8-1.5
	c-0.8-0.4-1.9-0.5-3.4-0.5L742.6,519.5L742.6,519.5z M698.4,519.5l0.6,13.5h-1.6c-0.3-2.4-0.7-4.1-1.3-5.1c-0.9-1.6-2-2.8-3.5-3.6
	c-1.5-0.8-3.4-1.2-5.7-1.2h-8.1v43.9c0,3.5,0.4,5.8,1.1,6.6c1.1,1.2,2.7,1.8,5,1.8h2v1.6h-24.5v-1.6h2.1c2.5,0,4.2-0.7,5.2-2.2
	c0.6-0.9,0.9-3,0.9-6.2v-43.9h-6.9c-2.7,0-4.6,0.2-5.7,0.6c-1.5,0.5-2.7,1.6-3.8,3.1c-1,1.5-1.7,3.6-1.9,6.2h-1.6l0.6-13.5H698.4z
	 M646.1,575.5v1.6h-24.6v-1.6h2c2.4,0,4.1-0.7,5.2-2.1c0.7-0.9,1-3.1,1-6.5v-37.2c0-2.9-0.2-4.8-0.6-5.8c-0.3-0.7-0.9-1.3-1.8-1.8
	c-1.2-0.7-2.5-1-3.9-1h-2v-1.6h24.6v1.6H644c-2.3,0-4.1,0.7-5.1,2.1c-0.7,0.9-1.1,3.1-1.1,6.5v37.2c0,2.9,0.2,4.8,0.6,5.7
	c0.3,0.7,0.9,1.3,1.8,1.8c1.2,0.7,2.5,1,3.8,1L646.1,575.5L646.1,575.5z M610.8,518.2v19.9h-1.6c-0.5-3.8-1.4-6.9-2.7-9.1
	c-1.3-2.3-3.2-4.1-5.6-5.4c-2.4-1.3-5-2-7.5-2c-2.9,0-5.4,0.9-7.3,2.7c-1.9,1.8-2.9,3.8-2.9,6.1c0,1.8,0.6,3.4,1.8,4.8
	c1.8,2.1,5.9,5,12.5,8.5c5.4,2.9,9.1,5.1,11,6.6c2,1.6,3.5,3.4,4.5,5.5c1.1,2.1,1.6,4.3,1.6,6.6c0,4.4-1.7,8.1-5.1,11.3
	c-3.4,3.2-7.7,4.7-13.1,4.7c-1.7,0-3.2-0.1-4.7-0.4c-0.9-0.1-2.7-0.7-5.5-1.6c-2.7-0.9-4.5-1.4-5.2-1.4c-0.7,0-1.3,0.2-1.7,0.6
	c-0.4,0.4-0.7,1.3-0.9,2.7H577v-19.7h1.6c0.7,4.1,1.7,7.2,3,9.3c1.2,2,3.2,3.8,5.7,5.1c2.6,1.4,5.4,2,8.4,2c3.5,0,6.3-0.9,8.4-2.8
	c2-1.9,3.1-4.1,3.1-6.6c0-1.4-0.4-2.8-1.2-4.3c-0.8-1.5-2-2.8-3.6-4.1c-1.1-0.9-4.1-2.6-9.1-5.4c-4.9-2.7-8.4-4.9-10.5-6.6
	c-2.1-1.6-3.7-3.5-4.7-5.4c-1.1-2-1.6-4.2-1.6-6.5c0-4.1,1.6-7.7,4.8-10.7c3.2-3,7.2-4.5,12.1-4.5c3.1,0,6.3,0.8,9.7,2.2
	c1.6,0.7,2.7,1.1,3.4,1.1c0.7,0,1.4-0.2,1.8-0.7c0.5-0.5,0.8-1.3,1.1-2.6L610.8,518.2L610.8,518.2z M571.8,577.1h-15.4l-19.5-26.9
	c-1.4,0.1-2.5,0.1-3.4,0.1c-0.4,0-0.8,0-1.2,0c-0.4,0-0.8,0-1.3-0.1v16.8c0,3.6,0.4,5.9,1.2,6.7c1.1,1.2,2.7,1.9,4.8,1.9h2.2v1.6
	h-24.6v-1.6h2.1c2.4,0,4.2-0.8,5.2-2.4c0.6-0.9,0.9-2.9,0.9-6.2v-37.2c0-3.6-0.4-5.9-1.2-6.7c-1.1-1.2-2.7-1.9-4.9-1.9h-2.1v-1.6
	h20.9c6.1,0,10.6,0.5,13.5,1.3c2.9,0.9,5.4,2.6,7.4,4.9c2,2.4,3,5.2,3,8.6c0,3.5-1.2,6.6-3.5,9.2c-2.3,2.6-5.9,4.4-10.7,5.5
	l11.9,16.5c2.7,3.8,5.1,6.3,7,7.6c1.9,1.3,4.5,2,7.6,2.4V577.1L571.8,577.1z M531,547.5c0.5,0,1,0,1.4,0c0.4,0,0.7,0,1,0
	c5.4,0,9.5-1.2,12.3-3.6c2.8-2.4,4.1-5.4,4.1-9.1c0-3.6-1.1-6.5-3.3-8.8c-2.2-2.2-5.2-3.4-8.8-3.4c-1.6,0-3.8,0.3-6.6,0.8L531,547.5
	L531,547.5z M478.2,522.7v22.7h12.7c3.3,0,5.5-0.5,6.6-1.5c1.5-1.3,2.3-3.6,2.5-6.9h1.6v20h-1.6c-0.4-2.8-0.8-4.6-1.2-5.4
	c-0.5-1-1.4-1.8-2.5-2.3c-1.2-0.6-2.9-0.9-5.3-0.9h-12.7v19c0,2.5,0.1,4.1,0.3,4.6c0.2,0.6,0.6,1,1.2,1.3c0.6,0.3,1.7,0.5,3.2,0.5
	h9.7c3.2,0,5.6-0.2,7.1-0.7c1.5-0.5,2.9-1.4,4.2-2.7c1.8-1.8,3.5-4.4,5.4-7.9h1.7l-5,14.4h-44.3v-1.6h2c1.4,0,2.6-0.3,3.9-1
	c0.9-0.5,1.5-1.1,1.9-2c0.3-0.9,0.5-2.8,0.5-5.6v-37.4c0-3.6-0.4-5.9-1.1-6.7c-1-1.1-2.7-1.7-5.1-1.7h-2v-1.6h44.3l0.6,12.7h-1.7
	c-0.6-3-1.2-5.2-2-6.3c-0.7-1.1-1.8-2-3.2-2.6c-1.1-0.4-3.1-0.6-6-0.6L478.2,522.7L478.2,522.7z M459,519.5v1.6c-2,0.4-3.6,1-4.6,2
	c-1.5,1.4-2.8,3.5-4,6.4l-20,48.9h-1.6l-21.5-49.5c-1.1-2.6-1.9-4.1-2.3-4.7c-0.7-0.9-1.6-1.6-2.6-2.1c-1-0.5-2.4-0.8-4.2-1v-1.6
	h23.5v1.6c-2.7,0.3-4.4,0.7-5.2,1.4c-0.8,0.7-1.2,1.5-1.2,2.5c0,1.4,0.7,3.6,1.9,6.6l14.6,33.7l13.6-33.3c1.3-3.3,2-5.6,2-6.8
	c0-0.8-0.4-1.6-1.2-2.3c-0.8-0.8-2.2-1.3-4.2-1.6c-0.1,0-0.4-0.1-0.7-0.1v-1.6L459,519.5L459,519.5z M395.4,575.5v1.6h-24.6v-1.6h2
	c2.4,0,4.1-0.7,5.2-2.1c0.7-0.9,1-3.1,1-6.5v-37.2c0-2.9-0.2-4.8-0.6-5.8c-0.3-0.7-0.9-1.3-1.8-1.8c-1.2-0.7-2.5-1-3.9-1h-2v-1.6
	h24.6v1.6h-2.1c-2.3,0-4.1,0.7-5.1,2.1c-0.7,0.9-1.1,3.1-1.1,6.5v37.2c0,2.9,0.2,4.8,0.6,5.7c0.3,0.7,0.9,1.3,1.8,1.8
	c1.2,0.7,2.5,1,3.8,1L395.4,575.5L395.4,575.5z"/>
</svg>
