<?xml version="1.0" encoding="UTF-8"?>
<svg id="Layer_2" data-name="Layer 2" xmlns="http://www.w3.org/2000/svg" viewBox="0 0 761.2 363.57">
  <defs>
    <style>
      .cls-1 {
        opacity: .5;
      }

      .cls-2 {
        opacity: .2;
      }

      .cls-3 {
        opacity: .75;
      }

      .cls-4 {
        fill: #009edb;
      }

      .cls-5 {
        opacity: .3;
      }

      .cls-6 {
        opacity: .4;
      }
    </style>
  </defs>
  <g id="UNITAR_UNOSAT_NEW_ICON" data-name="UNITAR UNOSAT NEW ICON">
    <g id="UNITAR_UNOSAT_ON_2_LIGNES" data-name="UNITAR UNOSAT ON 2 LIGNES">
      <g>
        <g>
          <g>
            <path class="cls-4" d="m564.99,244.79h-3.38c-.91,0-1.34.41-1.34,1.33v29.46c0,4.96-3.47,10.24-9.91,10.24s-9.92-5.29-9.92-10.24v-29.46c0-.92-.42-1.33-1.34-1.33h-3.38c-.93,0-1.34.41-1.34,1.33v29.46c0,8.94,6.86,15.67,15.97,15.67s15.96-6.73,15.96-15.67v-29.46c0-.92-.41-1.33-1.34-1.33"/>
            <path class="cls-4" d="m604.94,244.79h-2.87c-.92,0-1.33.41-1.33,1.33v27.95c.05.83-.58,1.55-1.41,1.61-.01,0-.03,0-.04,0-.72-.05-1.37-.49-1.68-1.14l-15.86-27.95c-.76-1.31-1.35-1.78-2.17-1.78h-3.9c-.92,0-1.34.41-1.34,1.33v42.77c0,.93.42,1.34,1.34,1.34h2.86c.93,0,1.34-.42,1.34-1.34v-28.25c-.05-.83.59-1.55,1.43-1.59.03,0,.06,0,.09,0,.74.04,1.39.51,1.68,1.19l15.86,28.2c.76,1.31,1.35,1.79,2.18,1.79h3.88c.92,0,1.34-.42,1.34-1.34v-42.78c0-.92-.42-1.33-1.34-1.33"/>
            <path class="cls-4" d="m630.25,243.77c-9.06,0-15.95,6.73-15.95,15.66v16.16c0,8.94,6.86,15.67,15.95,15.67s15.98-6.74,15.98-15.67v-16.16c0-8.94-6.87-15.66-15.98-15.66m9.93,31.82c0,4.96-3.48,10.23-9.93,10.23s-9.92-5.29-9.92-10.23v-16.16c0-4.96,3.49-10.24,9.92-10.24s9.93,5.29,9.93,10.24v16.16Z"/>
            <path class="cls-4" d="m667.71,263.62c-3.12-.12-9.06-1.8-9.06-7.27,0-2.91,2.43-7.26,9.11-7.26,2.81.03,5.49,1.15,7.49,3.12.53.55,1.38.64,2.02.22l2.46-1.74c.5-.23.71-.82.48-1.31-.07-.16-.19-.29-.33-.39-3.09-3.4-7.49-5.3-12.09-5.22-9.74,0-14.84,6.34-14.84,12.58,0,7.42,5.56,12.09,14.88,12.59,3.38,0,9.87,1.65,9.87,7.88,0,4.49-3.06,8.99-9.92,8.99-5.29,0-9-3.6-11.18-6.62-.21-.36-.58-.59-1-.61-.27,0-.53.08-.76.23l-2.32,1.63c-.61.3-.85,1.04-.55,1.65.05.1.11.19.18.27,2.1,3.33,6.9,8.9,15.6,8.9,9.55,0,15.96-5.81,15.96-14.44,0-11.1-11.19-12.93-16.01-13.2"/>
            <path class="cls-4" d="m707.71,243.77c-9.06,0-15.96,6.73-15.96,15.66v29.46c0,.92.41,1.34,1.33,1.34h3.38c.92,0,1.34-.42,1.34-1.34v-15.76c-.11-1.63,1.12-3.05,2.75-3.16.14,0,.28,0,.41,0h13.51c1.64-.11,3.05,1.12,3.16,2.76,0,.13,0,.27,0,.4v15.76c0,.92.4,1.34,1.33,1.34h3.38c.92,0,1.34-.42,1.34-1.34v-29.46c0-8.94-6.87-15.66-15.98-15.66m9.93,18.13c.12,1.64-1.11,3.06-2.75,3.17-.14,0-.28.01-.41,0h-13.51c-1.63.12-3.05-1.11-3.17-2.74-.01-.14-.01-.29,0-.43v-2.45c0-4.96,3.47-10.24,9.91-10.24s9.93,5.29,9.93,10.24v2.45Z"/>
            <path class="cls-4" d="m759.85,244.79h-29.25c-.94,0-1.35.41-1.35,1.33v2.27c0,.92.42,1.34,1.35,1.34h8.49c1.63-.12,3.05,1.11,3.17,2.74.01.14.01.28,0,.42v36.01c0,.93.4,1.34,1.32,1.34h3.28c.93,0,1.34-.42,1.34-1.34v-36.02c-.12-1.63,1.11-3.05,2.74-3.17.14-.01.28-.01.42,0h8.5c.92,0,1.34-.42,1.34-1.34v-2.27c0-.92-.42-1.33-1.34-1.33"/>
          </g>
          <g>
            <path class="cls-4" d="m748.83,154c-2.05,4.64,3.44,9.21,8.09,6.23,2.42-1.59,3.05-4.78,1.41-7.12-.56-.8-1.34-1.43-2.24-1.81-2.58-1.08-6.15.21-7.26,2.7"/>
            <path class="cls-4" d="m727.66,156.2c0,6.04,5.9,8.16,10.23,5.86,2.1-1.05,3.49-3.07,3.71-5.35,0-9.79-13.96-8.11-13.94-.5"/>
            <path class="cls-4" d="m719.07,163.48c8.77-4.39,2.72-17.39-6.57-14.05-9.71,3.49-3.88,19.25,6.57,14.05"/>
            <path class="cls-4" d="m704.09,154.43c-1.66-4.19-6.5-6.28-10.83-4.68-4.09,1.52-6.28,5.84-5.03,9.91,1.83,5.18,7.28,6.59,11.7,4.39,4.01-1.98,5.58-5.6,4.17-9.63"/>
            <path class="cls-4" d="m756.34,142.64c6.95-3.55,1.43-13.18-5.08-10.72-7.46,2.77-2.72,14.7,5.08,10.72"/>
            <path class="cls-4" d="m674.04,150.03c-9.7,3.18-4.11,18.74,6.04,13.58,8.24-4.18,2.76-16.49-6.04-13.58"/>
            <path class="cls-4" d="m738.09,143.88c2.76-1.56,3.91-4.11,3.88-5.75-.05-5.01-4.58-7.77-7.31-7.76-13.08.12-7.85,19.76,3.43,13.51"/>
            <path class="cls-4" d="m718.94,145.39c9.44-4.64,3.16-18.84-6.95-15.17-10.46,3.77-4.18,20.68,6.95,15.17"/>
            <path class="cls-4" d="m664.05,155.22c-2.94-8.43-16.61-4.28-13.51,4.46,1.51,4.39,5.85,5.91,10.12,3.66,3.86-2.04,4.47-5,3.38-8.11"/>
            <path class="cls-4" d="m692.86,129.85c-4.74,1.73-7.29,6.73-5.83,11.43,1.81,5.19,7.98,7.17,12.59,5.12,10.25-4.67,3.96-20.06-6.79-16.52"/>
            <path class="cls-4" d="m644.54,158.45c.82-9.15-12.34-8.24-12.97-1.46-.34,3.42,2.25,6.46,5.78,6.78,1.02.09,2.06-.05,3.01-.42,3.44-1.42,4.06-3.37,4.2-4.9"/>
            <path class="cls-4" d="m747.47,122.03c1.78,3.43,5.76,4.44,9.63,2.24,2.56-1.28,3.88-4.09,3.2-6.8-2.42-10.38-17.36-4.13-12.83,4.56"/>
            <path class="cls-4" d="m673.32,130.23c-4.42,1.79-6.71,6.55-5.28,10.98,1.79,5.12,7.71,6.91,12.19,4.88,10.05-4.58,3.64-19.64-6.87-15.86"/>
            <path class="cls-4" d="m737.98,125.8c3.51-1.88,3.89-4.01,4.08-5.12.43-2.73-.54-5.49-2.6-7.41-2.98-2.69-8.61-2.48-11.57.63-5.99,6.27,2.11,16.23,10.09,11.92"/>
            <path class="cls-4" d="m624.41,157.16c-.99-4.64-4.48-4.95-6.51-4.55-8.42,1.71-3.89,14.78,4.08,9.77,1.88-1.06,2.85-3.16,2.42-5.23"/>
            <path class="cls-4" d="m664.92,136.18c-1.49-4.25-6.25-6.51-10.63-5.07-4.38,1.45-6.72,6.06-5.22,10.31h0c1.81,5.18,7.27,6.59,11.69,4.39,4.02-2,5.59-5.61,4.17-9.65"/>
            <path class="cls-4" d="m598.18,153.39c-5.25,1.46-3.94,8.78.35,9.41.96.06,1.92-.15,2.76-.6,5.88-2.58,1.95-10.2-3.1-8.78"/>
            <path class="cls-4" d="m635.25,131.97c-9.69,3.2-3.93,18.77,6.04,13.59,8.04-4.19,2.76-16.51-6.04-13.59"/>
            <path class="cls-4" d="m757,106.19c2.76-1.54,3.91-4.08,3.89-5.73-.05-5.01-4.59-7.79-7.29-7.77-13.11.13-7.87,19.8,3.4,13.51"/>
            <path class="cls-4" d="m737.87,107.72c9.42-4.66,3.16-18.85-6.96-15.2-10.46,3.78-4.18,20.7,6.96,15.2"/>
            <path class="cls-4" d="m615.93,132.93c-9.06,3.32-2.81,16.49,5.66,12.44,8.3-3.97,2.26-15.37-5.66-12.44"/>
            <path class="cls-4" d="m605.67,140.12c.82-9.16-12.34-8.27-12.97-1.46-.48,5.19,4.94,7.91,8.78,6.33,3.44-1.46,4.05-3.34,4.19-4.88"/>
            <path class="cls-4" d="m646.49,120.95c.09-2.28-.69-4.5-2.2-6.25-6.14-7.41-21.89,1.54-13.68,11.51,1.93,2.31,6.46,3.48,9.93,2.11,4.87-1.88,5.9-5.2,5.95-7.36"/>
            <path class="cls-4" d="m626.05,117.84c-1.32-4.3-5.99-6.75-10.43-5.46-4.43,1.28-6.96,5.81-5.63,10.11.06.2.13.39.21.59,1.81,5.18,7.29,6.59,11.7,4.39,4.01-2.01,5.58-5.6,4.17-9.64"/>
            <path class="cls-4" d="m606.63,121.41c.56-10.64-15.1-9.98-15.5-1.27-.32,5.95,6.04,9.16,10.44,7.39s4.97-4.28,5.06-6.12"/>
            <path class="cls-4" d="m626.84,101.36c-.95-12.63-18.21-9.18-17.48.68.54,7.21,7.61,10.18,13.49,6.67,2.67-1.5,4.22-4.34,3.99-7.32"/>
            <path class="cls-4" d="m596.08,94.98c-9.69,3.18-3.93,18.75,6.04,13.56,8.06-4.17,2.78-16.49-6.04-13.56"/>
            <path class="cls-4" d="m625.72,80.42c-1.49-4.25-6.24-6.52-10.62-5.07-4.38,1.44-6.72,6.05-5.23,10.3,1.81,5.18,7.28,6.59,11.7,4.39,4-1.99,5.58-5.59,4.15-9.63"/>
            <path class="cls-4" d="m595.97,76.9c-9.06,3.32-2.82,16.49,5.67,12.44,8.27-3.99,2.26-15.37-5.67-12.44"/>
            <path class="cls-4" d="m640.91,56.39c-1.57-.6-3.24-.91-4.93-.93-7.26.97-9.72,8.34-6.79,13.37,2.39,4.05,8.01,4.82,12.29,2.31,5.83-3.45,4.79-12-.58-14.75"/>
            <path class="cls-4" d="m615,57.28c-9.7,3.19-3.93,18.78,6.04,13.59,8.06-4.18,2.79-16.49-6.04-13.59"/>
            <path class="cls-4" d="m664.57,41.62c-4.41-10.62-22.25-4.31-17.14,7.23,1.59,3.3,5.02,5.4,8.78,5.35,7.81-.46,10.37-7.74,8.37-12.61"/>
            <path class="cls-4" d="m604.73,65.42c.85-9.15-12.34-8.26-12.96-1.46-.32,3.41,2.28,6.43,5.8,6.74,1.01.09,2.03-.06,2.98-.43,3.44-1.42,4.05-3.36,4.18-4.88"/>
            <path class="cls-4" d="m642.67,39.91c-4.33-4.79-14.23-1.99-14.69,4.83-.35,4.43,3.07,8.31,7.64,8.65,1.48.11,2.96-.16,4.29-.79,4.15-1.77,6.04-6.47,4.22-10.49-.36-.8-.85-1.53-1.46-2.17"/>
            <path class="cls-4" d="m678.75,33.44c9.41-4.66,3.16-18.85-6.96-15.2-10.47,3.78-4.18,20.69,6.96,15.2"/>
            <path class="cls-4" d="m614.6,39.3c-8.62,3.15-3.1,16.79,5.68,12.44,8-3.96,1.94-15.21-5.68-12.44"/>
            <path class="cls-4" d="m664.08,24.29c-2.35-8.31-14.62-8-16.89-.48-1.98,6.59,5.02,13.85,12.62,9.81,3.86-2.03,5.28-5.64,4.27-9.33"/>
            <path class="cls-4" d="m596.35,40.54c-7.62,2.2-3.24,14.05,4.39,9.69,6.04-3.44.75-11.13-4.39-9.69"/>
            <path class="cls-4" d="m636.38,19.1c-4.01.14-7.95,3.82-7.81,7.66.22,6.37,6.49,8.71,11.13,6.51,8.3-3.93,3.19-14.38-3.31-14.16"/>
            <path class="cls-4" d="m623.56,26.5c-.95-9-12.96-6.73-12.76.07.15,5.64,5.56,7.83,9.93,4.99,1.75-1.12,2.82-3.01,2.83-5.05"/>
            <path class="cls-4" d="m663.3,8.97c.59-4.24-2.38-8.18-6.73-8.92-7.43-.83-12.19,7.94-6.79,13.34,2.17,2.2,6.21,2.65,9.71.62,2.26-1.32,3.59-3.21,3.77-5.05"/>
            <path class="cls-4" d="m602.25,26.5c-1.61-8.29-12.7-2.69-8.61,3.49,1.35,2.04,4.42,2.2,6.79.62,1.44-.86,2.18-2.51,1.83-4.11"/>
            <path class="cls-4" d="m633.56,1.61c-8.62,3.14-3.12,16.79,5.65,12.44,8.03-3.96,1.96-15.21-5.65-12.44"/>
            <path class="cls-4" d="m615.27,2.82c-7.61,2.2-3.25,14.03,4.37,9.68,6.04-3.44.75-11.13-4.37-9.68"/>
            <path class="cls-4" d="m595.95,4.76c-4.91,1.93-1.23,8.9,3.09,6.93,5.35-2.44.75-8.42-3.09-6.93"/>
            <path class="cls-4" d="m679.4,128.87c3.45-1.13,5.44-4.33,6.55-6.59,2.33,8.64,14.57,8.68,18.36,1.92.7-1.29.56-2.55,1.25-3.93,1.33,6.32,6.72,9.72,12.51,7.64,5.28-1.88,6.88-7.5,5.53-11.35-3.24-9.22-17.73-6.95-18.12,2.5-.16-1.41-.53-2.79-1.1-4.1-1.24-2.48-3.96-3.29-4.64-4.82,3.56-1,4.66-4.39,5.85-5.75,2.77,4.95,8.12,7.04,13.39,4.5,8.15-3.97,5.1-16.23-2.26-17.69,5.59-1.46,6.96-4.92,7.81-8.61,1.3,6.15,6.69,9.41,12.4,7.32,5.28-1.91,6.99-7.59,5.43-11.64-3.29-8.61-16.9-6.9-17.95,2.1-.94-5.5-5.19-7.09-7.5-8.32,6.14-2.31,8.24-7.74,6.04-12.79-3.7-8.34-16.38-5.9-18.24,1.23-1.8-4.47-4.98-6.26-8.69-6.98,5.97-1.1,8.3-6.32,7.8-9.57-1.21-7.7-8.21-9.93-14.16-6.78-4.34,2.31-5.21,8.3-2.87,12.4,1.4,2.47,4.08,3.09,6.4,4.24-4.11.07-6.49,4.14-7.93,5.48-1.38-3.32-5.16-4.62-6.89-5.69,5.28-2.43,7.88-6.49,6.04-11.84-1.62-4.84-6.97-7.49-11.96-5.93-.12.04-.24.08-.36.12-9.31,3.07-7.59,15.74.4,17.98-4.74,1.05-5.72,5.12-7.41,6.89-5.39-13.29-24.55-3.48-17.41,8.27,1.14,1.92,3.92,2.8,5.01,4.07-4.29,1.42-5.68,4.25-6.63,7.28-2.08-5.32-6.04-7.64-10.82-6.59-7.04,1.54-9.25,7.97-6.5,13.25,2.32,4.52,8.43,5.86,12.77,3.74,2.57-1.24,3.49-3.6,4.87-5.72.91,4.47,4.65,5.91,6.42,7.1-3.77,1.19-5.14,4.82-6.24,6.51-4.7-12.44-22.42-5.12-18.22,5.99,3.32,8.78,16.22,6.74,18.45-.65,1.13,4.82,5.41,6.04,7.5,7.37-9.71,2.77-8.05,15.31-.1,17.5,5.41,1.46,12.49-3.18,12.22-8.16,1.06,6.5,7.2,10.04,12.99,8.12m-20.04-56.32c3.53-1.23,5.21-3.35,5.75-6.03,1.43,2.32,2.69,4.99,4.94,5.69-1.51,1.66-3.89,2.88-4.53,4.97-1.96-1.76-3.87-3.6-6.19-4.63m26.36-5.2c.84,2.69,2.56,3.66,4.25,4.65-1.1,1.7-3.88,2.57-4.3,4.59-1.45-1.46-2.73-3.32-4.64-3.87,2.17-1.52,3.22-3.54,4.69-5.37m13.87,4.96c2.39-1.78,4.53-3.66,4.98-6.38,1.89,3.16,4.07,5.76,7.38,6.13-2.87,1.38-5.69,2.8-6.35,5.27-1.92-1.82-3.37-4.6-6-5.03m-34.21,24c-1.09-2.08-3.02-3.63-5.34-4.28,2.07-1.08,3.9-2.54,5.37-4.32,1.09,2.2,2.91,2.93,4.24,4.66-1.65.85-2.9,2.28-3.5,4-.33.17-.56.12-.69-.07m20.07-8.21c1.65.73,2.48,3.11,4.43,3.32-1.25,1.38-3.5,2.28-3.77,4.12-1.68-.56-2.45-2.93-4.14-3.42,1.13-1.36,2.94-2.39,3.52-4.02m14.93,3.36c2.27-.95,4.01-2.8,4.78-5.07,2.01,2.14,3.91,4.49,6.89,4.71-3.1,1.52-5.84,3.23-6.45,5.93-1.63-2.1-3.19-4.29-5.22-5.57m-9.12,18.87c-2.36,1.89-4.98,3.66-5.28,6.53-1.72-2.06-3.02-5.07-5.53-5.51,1.74-1.69,4.53-2.89,5.07-5.17,1.83,1.53,3.22,3.95,5.72,4.15m-32.09,1.05c2.79-1.16,5.19-3.05,6.94-5.46,1.25,2.97,3.37,4.25,5.72,5.12-2.85,1.97-5.1,4.22-5.28,7.45-1.75-3.76-3.88-6.79-7.4-7.09"/>
            <path class="cls-4" d="m691.69,210.94c-2.07,4.63,3.41,9.21,8.08,6.21,2.42-1.59,3.05-4.77,1.42-7.12-.56-.8-1.34-1.43-2.26-1.82-2.59-1.08-6.15.23-7.24,2.72"/>
            <path class="cls-4" d="m670.49,213.13c0,6.05,5.92,8.16,10.24,5.86,2.1-1.05,3.49-3.07,3.7-5.34,0-9.79-13.96-8.1-13.94-.5"/>
            <path class="cls-4" d="m661.9,220.43c8.77-4.39,2.72-17.4-6.57-14.05-9.69,3.49-3.87,19.25,6.57,14.05"/>
            <path class="cls-4" d="m646.93,211.37c-1.27-4.31-5.91-6.81-10.36-5.58-4.45,1.23-7.02,5.73-5.75,10.05.07.25.16.5.26.74,1.83,5.18,7.28,6.59,11.71,4.39,4-2,5.56-5.59,4.17-9.63"/>
            <path class="cls-4" d="m699.17,199.57c6.95-3.54,1.44-13.18-5.07-10.72-7.46,2.78-2.73,14.7,5.07,10.72"/>
            <path class="cls-4" d="m680.92,200.81c2.76-1.54,3.91-4.11,3.88-5.73-.05-5.01-4.59-7.78-7.31-7.77-13.09.13-7.86,19.76,3.43,13.5"/>
            <path class="cls-4" d="m661.78,202.34c9.43-4.66,3.16-18.85-6.96-15.19-10.46,3.78-4.18,20.69,6.96,15.19"/>
            <path class="cls-4" d="m635.68,186.79c-4.74,1.73-7.29,6.73-5.81,11.43,1.81,5.19,7.98,7.17,12.59,5.09,10.25-4.66,3.96-20.06-6.79-16.52"/>
            <path class="cls-4" d="m690.3,178.95c1.8,3.44,5.77,4.46,9.65,2.25,3.02-1.72,3.77-4.39,3.2-6.78-2.43-10.41-17.36-4.14-12.83,4.52"/>
            <path class="cls-4" d="m616.2,187.17c-4.44,1.77-6.75,6.53-5.33,10.98,1.65,4.47,6.72,6.79,11.33,5.19.27-.09.53-.2.79-.32,10.06-4.58,3.65-19.64-6.86-15.86"/>
            <path class="cls-4" d="m680.82,182.73c3.51-1.9,3.88-4.01,4.08-5.17.43-2.73-.54-5.48-2.59-7.39-2.97-2.69-8.61-2.49-11.58.61-5.99,6.29,2.11,16.24,10.09,11.95"/>
            <path class="cls-4" d="m699.83,163.14c2.76-1.55,3.9-4.09,3.9-5.74-.05-5.01-4.59-7.78-7.3-7.77-13.09.14-7.87,19.81,3.4,13.51"/>
            <path class="cls-4" d="m680.7,164.65c9.43-4.67,3.18-18.86-6.96-15.2-10.46,3.79-4.18,20.7,6.96,15.2"/>
            <g class="cls-2">
              <path class="cls-4" d="m755.78,29.67c6.49-4.23-.8-13.21-7.23-9.38-5.84,3.49,0,14.08,7.23,9.38"/>
            </g>
            <g class="cls-2">
              <path class="cls-4" d="m748.32,9.27c1.35,1.99,4.1,2.04,6.39.43,1.11-.7,1.8-1.87,1.83-3.16-.64-8.05-12.47-3.62-8.23,2.72"/>
            </g>
            <g class="cls-2">
              <path class="cls-4" d="m735.48,10.95c6.22-3.76-.29-11.2-5.34-8.72-5.67,2.76-1.31,12.74,5.34,8.72"/>
            </g>
            <g class="cls-5">
              <path class="cls-4" d="m567.25,214.09c-1-4.65-4.48-4.93-6.52-4.54-8.43,1.7-3.9,14.77,4.09,9.79,1.87-1.08,2.84-3.18,2.42-5.25"/>
            </g>
            <g class="cls-2">
              <path class="cls-4" d="m541.02,210.33c-5.24,1.46-3.93,8.78.35,9.41.95.06,1.91-.14,2.75-.59,5.88-2.59,1.96-10.25-3.1-8.78"/>
            </g>
            <g class="cls-5">
              <path class="cls-4" d="m548.5,197.06c.84-9.17-12.35-8.26-12.96-1.46-.48,5.19,4.94,7.91,8.77,6.32,3.43-1.42,4.05-3.34,4.18-4.87"/>
            </g>
            <path class="cls-4" d="m700,144.93c3.07-1.79,4.33-4.99,3.97-7.32-.75-5.32-6.09-7.59-9.06-7.17-13.12,1.8-6.37,21.18,5.1,14.51"/>
            <g class="cls-6">
              <path class="cls-4" d="m756,49.95c3.46-1.8,4.96-4.52,3.57-8.5-1.6-4.53-6.04-5.75-9.74-4.39-9.06,3.32-3.41,17.86,6.17,12.91"/>
            </g>
            <g class="cls-6">
              <path class="cls-4" d="m726.51,27.57c1.39,3.96,6.04,5.23,9.44,3.56,3.4-1.67,4.76-4.22,3.5-7.83-2.89-8.21-15.77-3.84-12.94,4.28"/>
            </g>
            <g class="cls-6">
              <path class="cls-4" d="m715.62,12.39c9.32-3.83.06-15.65-6.62-9.58-4.78,4.35,1.06,11.88,6.62,9.58"/>
            </g>
            <g class="cls-6">
              <path class="cls-4" d="m587.37,215.41c.82-9.17-12.34-8.27-12.96-1.46-.32,3.42,2.27,6.44,5.8,6.76,1.01.09,2.03-.05,2.97-.42,3.44-1.41,4.06-3.38,4.2-4.88"/>
            </g>
            <g class="cls-6">
              <path class="cls-4" d="m558.77,189.86c-9.06,3.32-2.81,16.5,5.67,12.44,8.27-3.98,2.26-15.34-5.67-12.44"/>
            </g>
            <g class="cls-6">
              <path class="cls-4" d="m549.48,178.3c.54-10.64-15.1-9.97-15.52-1.25-.3,5.94,6.04,9.15,10.44,7.36s4.98-4.27,5.08-6.11"/>
            </g>
            <path class="cls-4" d="m699.24,126.78c2.35-1.09,4.05-3.18,4.59-5.65.9-5.47-4.83-11.13-11.06-9.06-10.39,3.41-4.48,20.07,6.47,14.71"/>
            <path class="cls-4" d="m667.88,115.8c-2.19,4.36-.32,9.62,4.18,11.74,2.76,1.3,6.02,1.16,8.65-.38,6.1-3.37,5.74-12.44-.48-15.42-4.42-2.12-10.29,0-12.34,4.06"/>
            <g class="cls-1">
              <path class="cls-4" d="m756.4,69.83c2.36-1.08,4.06-3.16,4.59-5.64.9-5.48-4.84-11.12-11.06-9.08-10.4,3.43-4.48,20.09,6.47,14.71"/>
            </g>
            <g class="cls-1">
              <path class="cls-4" d="m724.75,44.03c.11,6.98,7.24,9.52,12.21,6.8,3.52-1.93,4.31-4.93,4.27-6.52-.07-4.35-3.6-7.91-8.09-8.13-3.77.04-8.48,3.29-8.4,7.84"/>
            </g>
            <g class="cls-1">
              <path class="cls-4" d="m706.1,27.29c1.28,5.42,6.43,7.23,11.11,4.6,6.42-3.59,3.44-15.14-5.28-13.18-3.38.73-6.89,4.11-5.83,8.6"/>
            </g>
            <g class="cls-1">
              <path class="cls-4" d="m686.84,6.93c0,6.05,5.92,8.17,10.24,5.86,2.1-1.05,3.5-3.07,3.71-5.35,0-9.79-13.97-8.1-13.95-.5"/>
            </g>
            <g class="cls-1">
              <path class="cls-4" d="m606.88,212.18c-2.95-8.41-16.56-4.28-13.52,4.45,1.56,4.43,5.87,5.92,10.15,3.66,3.85-2.04,4.46-5.01,3.37-8.13"/>
            </g>
            <g class="cls-1">
              <path class="cls-4" d="m578.09,188.91c-9.69,3.19-3.93,18.75,6.09,13.58,8.05-4.19,2.76-16.5-6.09-13.58"/>
            </g>
            <g class="cls-1">
              <path class="cls-4" d="m568.88,174.76c-1.62-4.2-6.45-6.33-10.79-4.76-4.15,1.51-6.37,5.9-5.07,10.01,1.83,5.18,7.29,6.59,11.71,4.39,4-2,5.57-5.6,4.16-9.65"/>
            </g>
            <g class="cls-1">
              <path class="cls-4" d="m538.91,151.91c-9.69,3.18-3.93,18.77,6.04,13.57,8.06-4.17,2.77-16.49-6.04-13.57"/>
            </g>
            <path class="cls-4" d="m698.83,106.87c3.46-1.8,4.96-4.52,3.58-8.49-1.59-4.55-6.04-5.73-9.75-4.39-9.06,3.32-3.41,17.87,6.17,12.89"/>
            <path class="cls-4" d="m568.56,137.38c-1.38-4.28-6.08-6.66-10.49-5.32-4.41,1.34-6.87,5.9-5.48,10.18.04.12.08.24.12.35,1.81,5.19,7.29,6.59,11.69,4.39,4.01-1.99,5.59-5.59,4.16-9.63"/>
            <path class="cls-4" d="m667.57,100.96c.13,6.98,7.25,9.52,12.22,6.8,3.51-1.95,4.3-4.93,4.27-6.51-.07-4.36-3.61-7.91-8.09-8.14-3.77.06-8.46,3.3-8.4,7.85"/>
            <path class="cls-4" d="m660.45,108.7c9.51-4.64,3.07-18.79-6.95-15.18-10.44,3.78-4.21,20.67,6.95,15.18"/>
            <g class="cls-3">
              <path class="cls-4" d="m757.2,88c2.67-1.49,4.22-4.34,3.98-7.32-.75-5.31-6.09-7.6-9.06-7.17-13.14,1.81-6.37,21.23,5.1,14.52"/>
            </g>
            <g class="cls-3">
              <path class="cls-4" d="m725.03,58.87c-2.18,4.36-.31,9.62,4.2,11.74,2.76,1.3,6.01,1.15,8.64-.38,6.11-3.36,5.74-12.44-.47-15.42-4.44-2.12-10.31,0-12.35,4.06"/>
            </g>
            <g class="cls-3">
              <path class="cls-4" d="m717.62,51.77c9.5-4.65,3.02-18.8-6.95-15.19-10.44,3.78-4.21,20.66,6.95,15.19"/>
            </g>
            <g class="cls-3">
              <path class="cls-4" d="m685.87,25.67c.11,6.99,7.23,9.52,12.21,6.8,2.53-1.25,4.17-3.73,4.28-6.49-.08-4.36-3.61-7.92-8.1-8.16-3.77.08-8.47,3.32-8.39,7.85"/>
            </g>
            <g class="cls-3">
              <path class="cls-4" d="m678.34,13.55c2.76-1.54,3.9-4.11,3.9-5.75-.05-5.01-4.6-7.77-7.32-7.75-13.09.12-7.85,19.76,3.42,13.5"/>
            </g>
            <g class="cls-3">
              <path class="cls-4" d="m616.88,206.97c-9.71,3.18-4.11,18.73,6.04,13.57,8.24-4.18,2.76-16.49-6.04-13.57"/>
            </g>
            <g class="cls-3">
              <path class="cls-4" d="m607.76,193.15c-1.31-4.31-5.96-6.77-10.4-5.5-4.44,1.27-6.98,5.78-5.68,10.09.07.22.14.43.23.64,1.83,5.18,7.29,6.59,11.7,4.39,4.01-1.99,5.58-5.6,4.17-9.64"/>
            </g>
            <g class="cls-3">
              <path class="cls-4" d="m589.33,177.9c.1-2.28-.69-4.52-2.22-6.26-6.12-7.39-21.89,1.54-13.66,11.49,1.93,2.33,6.47,3.46,9.92,2.12,4.87-1.87,5.9-5.21,5.96-7.32"/>
            </g>
            <g class="cls-3">
              <path class="cls-4" d="m569.69,158.31c-.96-12.65-18.22-9.19-17.49.67.54,7.23,7.6,10.18,13.5,6.68,2.66-1.5,4.21-4.34,3.99-7.32"/>
            </g>
            <g class="cls-3">
              <path class="cls-4" d="m538.81,133.86c-9.06,3.32-2.82,16.48,5.67,12.44,8.26-3.97,2.26-15.37-5.67-12.44"/>
            </g>
            <path class="cls-4" d="m583.73,113.32c-1.56-.61-3.23-.92-4.91-.92-7.26.95-9.74,8.32-6.79,13.36,2.38,4.06,8.02,4.83,12.28,2.3,5.83-3.44,4.79-11.98-.58-14.74"/>
            <path class="cls-4" d="m698.6,86.61c6.51-4.23-.8-13.21-7.2-9.38-5.85,3.48,0,14.08,7.2,9.38"/>
            <path class="cls-4" d="m557.83,114.22c-9.69,3.2-3.93,18.76,6.04,13.58,8.05-4.19,2.79-16.49-6.04-13.58"/>
            <path class="cls-4" d="m669.34,84.5c1.26,3.38,5.11,5.13,8.6,3.91.29-.1.57-.22.84-.36,3.32-1.63,4.76-4.22,3.49-7.83-2.89-8.21-15.76-3.83-12.93,4.28"/>
            <path class="cls-4" d="m607.39,98.54c-4.4-10.61-22.24-4.32-17.13,7.24,1.58,3.31,5.01,5.42,8.77,5.39,7.82-.47,10.38-7.74,8.36-12.61"/>
            <path class="cls-4" d="m648.94,84.22c1.28,5.41,6.43,7.21,11.11,4.6,6.42-3.59,3.44-15.14-5.28-13.18-3.38.77-6.91,4.1-5.83,8.6"/>
            <path class="cls-4" d="m547.59,122.36c.83-9.17-12.35-8.26-12.97-1.46-.35,3.41,2.21,6.45,5.73,6.8,1.04.1,2.08-.04,3.04-.42,3.44-1.42,4.05-3.35,4.2-4.88"/>
            <path class="cls-4" d="m585.51,96.84c-4.33-4.78-14.23-1.98-14.68,4.85-.27,4.48,3.26,8.32,7.87,8.58,4.62.26,8.58-3.16,8.85-7.63.13-2.11-.6-4.19-2.03-5.79"/>
            <path class="cls-4" d="m628.71,82.61c.11,6.98,7.23,9.52,12.21,6.77,2.55-1.24,4.19-3.73,4.28-6.49-.09-4.35-3.62-7.9-8.1-8.15-3.77.07-8.47,3.31-8.39,7.86"/>
            <path class="cls-4" d="m691.13,66.21c1.34,1.98,4.08,2.04,6.39.43,1.1-.7,1.79-1.88,1.83-3.16-.63-8.05-12.46-3.62-8.22,2.72"/>
            <path class="cls-4" d="m621.6,90.36c9.41-4.64,3.16-18.84-6.97-15.17-10.46,3.78-4.18,20.68,6.97,15.17"/>
            <path class="cls-4" d="m557.44,96.24c-8.63,3.13-3.12,16.77,5.66,12.44,8.03-3.97,1.96-15.21-5.66-12.44"/>
            <path class="cls-4" d="m678.29,67.89c6.21-3.77-.29-11.21-5.35-8.72-5.66,2.76-1.29,12.74,5.35,8.72"/>
            <path class="cls-4" d="m606.91,81.2c-2.34-8.29-14.62-7.99-16.89-.46-1.98,6.59,5.04,13.86,12.62,9.82,3.85-2.05,5.28-5.65,4.27-9.36"/>
            <path class="cls-4" d="m658.48,69.32c9.32-3.84,0-15.66-6.64-9.57-4.78,4.39,1.05,11.87,6.64,9.57"/>
            <path class="cls-4" d="m539.19,97.48c-7.63,2.2-3.25,14.03,4.37,9.68,6.04-3.44.75-11.15-4.37-9.68"/>
            <path class="cls-4" d="m579.2,76.03c-4.01.15-7.94,3.84-7.81,7.66.23,6.37,6.49,8.7,11.14,6.5,8.3-3.94,3.19-14.38-3.33-14.16"/>
            <path class="cls-4" d="m629.67,63.86c0,6.07,5.92,8.17,10.25,5.86,2.1-1.05,3.49-3.07,3.7-5.34,0-9.79-13.96-8.1-13.95-.51"/>
            <path class="cls-4" d="m621.17,70.48c2.76-1.53,3.93-4.09,3.9-5.72-.05-5.03-4.59-7.79-7.31-7.77-13.09.12-7.85,19.76,3.41,13.5"/>
            <path class="cls-4" d="m566.37,83.43c-.92-9.02-12.95-6.73-12.76.07.17,5.63,5.57,7.83,9.94,4.99,1.75-1.12,2.81-3.02,2.82-5.06"/>
            <path class="cls-4" d="m606.13,65.9c.6-4.24-2.38-8.18-6.73-8.91-7.43-.83-12.2,7.93-6.79,13.35,2.17,2.2,6.21,2.64,9.71.61,2-1.02,3.4-2.89,3.77-5.06"/>
            <path class="cls-4" d="m545.1,83.46c-1.62-8.32-12.71-2.72-8.61,3.48,1.34,2.04,4.42,2.25,6.79.62,1.43-.86,2.17-2.49,1.84-4.1"/>
            <path class="cls-4" d="m576.36,58.54c-8.61,3.14-3.11,16.78,5.66,12.44,8.02-3.96,1.96-15.21-5.66-12.44"/>
            <path class="cls-4" d="m558.11,59.78c-7.63,2.2-3.25,14.05,4.37,9.68,6.04-3.45.72-11.14-4.37-9.68"/>
            <path class="cls-4" d="m538.78,61.69c-4.91,1.93-1.22,8.92,3.09,6.93,5.34-2.44.75-8.43-3.09-6.93"/>
            <path class="cls-4" d="m622.24,185.83c3.45-1.13,5.43-4.33,6.55-6.59,2.33,8.64,14.57,8.66,18.35,1.9.7-1.27.56-2.54,1.25-3.92,1.33,6.32,6.73,9.72,12.52,7.64,5.25-1.88,6.88-7.5,5.53-11.36-3.22-9.22-17.73-6.95-18.12,2.5-.16-1.41-.53-2.79-1.11-4.1-1.23-2.47-3.96-3.29-4.64-4.82,3.55-1,4.64-4.39,5.84-5.73,2.76,4.93,8.11,7.04,13.38,4.49,8.17-3.98,5.13-16.24-2.26-17.7,5.58-1.46,6.95-4.9,7.8-8.61,1.31,6.15,6.7,9.41,12.42,7.32,5.28-1.9,6.98-7.61,5.42-11.63-3.29-8.6-16.9-6.89-17.95,2.1-.96-5.5-5.19-7.09-7.51-8.34,6.15-2.31,8.25-7.74,6.04-12.78-3.71-8.33-16.39-5.86-18.25,1.24-1.85-4.49-5.01-6.28-8.72-7.01,5.99-1.11,8.3-6.31,7.82-9.57-1.24-7.69-8.23-9.92-14.19-6.78-4.33,2.32-5.21,8.31-2.87,12.4,1.4,2.48,4.07,3.1,6.39,4.25-4.08.07-6.45,4.14-7.91,5.48-1.4-3.34-5.16-4.62-6.89-5.67,5.28-2.44,7.88-6.51,6.04-11.84-1.62-4.85-6.98-7.5-11.98-5.93-.08.02-.15.05-.23.07-9.31,3.07-7.6,15.73.39,17.99-4.75,1.06-5.72,5.12-7.41,6.89-5.39-13.29-24.56-3.48-17.42,8.27,1.15,1.93,3.93,2.81,5.02,4.08-4.3,1.46-5.68,4.23-6.63,7.28-2.08-5.33-6.08-7.65-10.83-6.63-7.04,1.54-9.24,7.99-6.5,13.27,2.33,4.52,8.44,5.86,12.77,3.73,2.59-1.24,3.5-3.59,4.88-5.73.91,4.47,4.66,5.92,6.42,7.11-3.77,1.19-5.14,4.82-6.25,6.51-4.7-12.44-22.43-5.12-18.22,6,3.31,8.78,16.22,6.73,18.45-.67,1.13,4.84,5.4,6.05,7.49,7.39-9.7,2.76-8.03,15.3-.09,17.5,5.41,1.46,12.49-3.18,12.22-8.16,1.07,6.49,7.2,10.03,13,8.12m-20.07-56.31c3.53-1.24,5.22-3.36,5.75-6.01,1.43,2.31,2.69,4.99,4.95,5.68-1.51,1.64-3.9,2.86-4.53,4.96-1.96-1.77-3.87-3.6-6.21-4.63m26.37-5.19c.84,2.68,2.56,3.66,4.24,4.63-1.09,1.71-3.87,2.58-4.3,4.6-1.44-1.46-2.71-3.32-4.63-3.88,2.18-1.5,3.22-3.53,4.69-5.36m13.86,4.96c2.39-1.78,4.53-3.66,4.98-6.38,1.88,3.16,4.06,5.77,7.37,6.13-2.86,1.38-5.69,2.8-6.34,5.29-1.93-1.82-3.36-4.6-6.04-5.04m-34.2,23.99c-1.28-2.45-3.28-3.51-5.43-4.25,2.07-1.07,3.9-2.54,5.36-4.32,1.09,2.2,2.91,2.93,4.26,4.65-1.65.85-2.9,2.29-3.5,4.01-.35.15-.57.11-.69-.1m20.12-8.18c1.66.73,2.5,3.1,4.45,3.31-1.26,1.38-3.5,2.28-3.82,4.12-1.66-.54-2.44-2.93-4.13-3.41,1.13-1.35,2.92-2.39,3.5-4.02m14.94,3.35c2.27-.94,4.01-2.79,4.78-5.07,2.02,2.14,3.92,4.49,6.89,4.72-3.09,1.52-5.83,3.21-6.42,5.93-1.65-2.09-3.21-4.31-5.24-5.59m-9.11,18.88c-2.36,1.89-4.99,3.66-5.28,6.52-1.73-2.05-3.02-5.05-5.53-5.49,1.74-1.69,4.53-2.93,5.07-5.17,1.84,1.52,3.22,3.95,5.73,4.14m-32.1,1.04c2.79-1.15,5.2-3.04,6.95-5.45,1.25,2.96,3.38,4.24,5.72,5.12-2.85,1.96-5.1,4.21-5.28,7.46-1.74-3.77-3.87-6.79-7.4-7.11"/>
            <rect class="cls-4" x="596.34" y="64.02" width="100.2" height="92.89"/>
          </g>
          <g>
            <path class="cls-4" d="m551.46,303.43h3.32v14.12c0,2.46-.28,4.41-.85,5.85-.57,1.45-1.6,2.62-3.08,3.53-1.49.91-3.44,1.36-5.85,1.36s-4.27-.39-5.76-1.18c-1.49-.79-2.56-1.93-3.2-3.43-.64-1.49-.96-3.54-.96-6.13v-14.12h3.32v14.1c0,2.12.2,3.69.61,4.69.4,1.01,1.1,1.78,2.09,2.33.99.54,2.19.82,3.61.82,2.44,0,4.18-.54,5.21-1.62,1.04-1.08,1.55-3.15,1.55-6.22v-14.1Z"/>
            <path class="cls-4" d="m559.9,327.87v-17.7h2.77v2.52c1.33-1.94,3.26-2.92,5.78-2.92,1.09,0,2.1.19,3.02.57.92.38,1.6.89,2.06,1.51.45.62.77,1.36.96,2.22.11.56.17,1.53.17,2.92v10.88h-3.08v-10.77c0-1.22-.12-2.14-.36-2.74s-.66-1.09-1.27-1.45-1.33-.54-2.15-.54c-1.31,0-2.44.41-3.39,1.22-.95.81-1.43,2.35-1.43,4.62v9.67h-3.08Z"/>
            <path class="cls-4" d="m579.39,306.88v-3.45h3.08v3.45h-3.08Zm0,20.99v-17.7h3.08v17.7h-3.08Z"/>
            <path class="cls-4" d="m593.86,325.18l.45,2.65c-.87.18-1.64.27-2.33.27-1.12,0-1.98-.17-2.6-.52s-1.05-.8-1.3-1.36c-.25-.56-.38-1.74-.38-3.54v-10.18h-2.26v-2.33h2.26v-4.38l3.06-1.8v6.18h3.09v2.33h-3.09v10.35c0,.86.05,1.41.16,1.65.11.24.28.44.53.58s.6.22,1.05.22c.34,0,.79-.04,1.35-.12Z"/>
            <path class="cls-4" d="m609.3,322.17l3.18.38c-.5,1.81-1.43,3.22-2.79,4.22-1.36,1-3.09,1.5-5.2,1.5-2.66,0-4.76-.8-6.32-2.39-1.55-1.59-2.33-3.83-2.33-6.71s.79-5.29,2.36-6.93,3.61-2.47,6.12-2.47,4.41.81,5.95,2.42c1.54,1.61,2.31,3.88,2.31,6.8,0,.18,0,.44-.02.8h-13.54c.11,1.94.68,3.43,1.69,4.47s2.28,1.55,3.79,1.55c1.13,0,2.09-.29,2.89-.87.8-.58,1.43-1.5,1.9-2.77Zm-10.1-4.85h10.14c-.14-1.49-.52-2.61-1.16-3.35-.98-1.16-2.25-1.73-3.81-1.73-1.41,0-2.6.46-3.56,1.38-.96.92-1.5,2.16-1.6,3.7Z"/>
            <path class="cls-4" d="m628.12,327.87v-2.23c-1.15,1.76-2.84,2.63-5.08,2.63-1.45,0-2.78-.39-3.99-1.17-1.21-.78-2.15-1.86-2.82-3.26-.67-1.39-1-3-1-4.81s.3-3.37.91-4.81,1.51-2.54,2.72-3.31c1.21-.77,2.56-1.15,4.05-1.15,1.09,0,2.07.23,2.92.68s1.55,1.04,2.09,1.76v-8.77h3.06v24.44h-2.85Zm-9.73-8.83c0,2.27.49,3.96,1.47,5.08.98,1.12,2.14,1.68,3.47,1.68s2.49-.54,3.43-1.61c.94-1.07,1.41-2.71,1.41-4.91,0-2.42-.48-4.2-1.44-5.33-.96-1.13-2.14-1.7-3.54-1.7s-2.51.54-3.43,1.63c-.92,1.09-1.38,2.81-1.38,5.15Z"/>
            <path class="cls-4" d="m645.89,327.87v-24.44h3.4l13.16,19.19v-19.19h3.18v24.44h-3.4l-13.16-19.2v19.2h-3.18Z"/>
            <path class="cls-4" d="m682.66,325.68c-1.14.95-2.24,1.61-3.29,2-1.05.39-2.18.58-3.39.58-1.99,0-3.53-.48-4.6-1.43-1.07-.95-1.61-2.16-1.61-3.64,0-.87.2-1.66.61-2.38.4-.72.93-1.29,1.59-1.73.65-.43,1.39-.76,2.21-.98.6-.15,1.52-.3,2.73-.45,2.48-.29,4.31-.63,5.49-1.03.01-.41.02-.67.02-.78,0-1.22-.29-2.08-.87-2.58-.79-.68-1.95-1.02-3.5-1.02-1.45,0-2.52.25-3.21.74-.69.5-1.2,1.37-1.53,2.63l-3.01-.4c.27-1.26.72-2.27,1.35-3.04.63-.77,1.53-1.37,2.72-1.78,1.18-.42,2.56-.62,4.12-.62s2.81.18,3.78.53,1.68.8,2.14,1.34.78,1.22.96,2.04c.1.51.15,1.43.15,2.77v4c0,2.79.07,4.55.2,5.29s.39,1.45.78,2.12h-3.21c-.32-.62-.52-1.35-.62-2.18Zm-.26-6.7c-1.12.44-2.79.82-5.03,1.13-1.26.18-2.16.38-2.68.6-.53.22-.93.55-1.21.98-.29.43-.43.9-.43,1.43,0,.8.31,1.47.93,2s1.53.8,2.73.8,2.24-.25,3.16-.76c.92-.51,1.6-1.2,2.03-2.08.33-.68.5-1.68.5-3v-1.1Z"/>
            <path class="cls-4" d="m697,325.18l.45,2.65c-.87.18-1.64.27-2.33.27-1.12,0-1.98-.17-2.6-.52s-1.05-.8-1.3-1.36c-.25-.56-.38-1.74-.38-3.54v-10.18h-2.26v-2.33h2.26v-4.38l3.06-1.8v6.18h3.09v2.33h-3.09v10.35c0,.86.05,1.41.16,1.65.11.24.28.44.53.58s.6.22,1.05.22c.34,0,.79-.04,1.35-.12Z"/>
            <path class="cls-4" d="m700.03,306.88v-3.45h3.08v3.45h-3.08Zm0,20.99v-17.7h3.08v17.7h-3.08Z"/>
            <path class="cls-4" d="m706.64,319.02c0-3.28.93-5.71,2.8-7.28,1.56-1.31,3.46-1.97,5.71-1.97,2.5,0,4.53.8,6.12,2.39,1.58,1.59,2.38,3.8,2.38,6.61,0,2.28-.35,4.07-1.05,5.38-.7,1.31-1.72,2.32-3.06,3.04-1.34.72-2.8,1.08-4.38,1.08-2.54,0-4.6-.79-6.16-2.38-1.57-1.59-2.35-3.88-2.35-6.87Zm3.16,0c0,2.27.51,3.96,1.52,5.09s2.29,1.69,3.83,1.69,2.8-.57,3.81-1.7c1.01-1.13,1.52-2.86,1.52-5.18,0-2.19-.51-3.85-1.53-4.98-1.02-1.13-2.29-1.69-3.8-1.69s-2.81.56-3.83,1.68-1.52,2.82-1.52,5.08Z"/>
            <path class="cls-4" d="m727.26,327.87v-17.7h2.77v2.52c1.33-1.94,3.26-2.92,5.78-2.92,1.09,0,2.1.19,3.02.57.92.38,1.6.89,2.06,1.51.45.62.77,1.36.96,2.22.11.56.17,1.53.17,2.92v10.88h-3.08v-10.77c0-1.22-.12-2.14-.36-2.74s-.66-1.09-1.27-1.45-1.33-.54-2.15-.54c-1.31,0-2.44.41-3.39,1.22-.95.81-1.43,2.35-1.43,4.62v9.67h-3.08Z"/>
            <path class="cls-4" d="m745.5,322.58l3.04-.47c.17,1.19.65,2.1,1.43,2.73.78.63,1.87.95,3.27.95s2.46-.28,3.15-.84c.68-.56,1.03-1.22,1.03-1.97,0-.68-.3-1.21-.91-1.6-.42-.27-1.47-.6-3.14-1.02-2.26-.56-3.82-1.04-4.69-1.44-.87-.41-1.53-.97-1.98-1.68-.45-.72-.68-1.51-.68-2.38,0-.79.19-1.52.56-2.19s.87-1.23,1.51-1.68c.48-.34,1.13-.64,1.96-.87.83-.24,1.71-.36,2.66-.36,1.42,0,2.68.2,3.75.6,1.08.4,1.87.94,2.38,1.63.51.68.87,1.6,1.06,2.74l-3.01.4c-.14-.91-.53-1.62-1.19-2.13-.66-.51-1.58-.77-2.78-.77-1.41,0-2.42.23-3.03.68-.6.46-.91.99-.91,1.6,0,.39.13.74.38,1.05.25.32.64.59,1.18.8.31.11,1.21.37,2.72.77,2.18.57,3.69,1.03,4.56,1.39s1.54.89,2.03,1.58c.49.69.74,1.54.74,2.57s-.3,1.94-.9,2.83c-.6.88-1.46,1.57-2.59,2.05-1.13.48-2.4.73-3.83.73-2.36,0-4.16-.48-5.39-1.43-1.24-.96-2.03-2.37-2.37-4.25Z"/>
            <path class="cls-4" d="m533.93,354.12l3-.26c.14,1.17.47,2.13.99,2.89.52.75,1.32,1.36,2.42,1.82,1.09.46,2.32.7,3.69.7,1.21,0,2.28-.18,3.21-.53s1.62-.83,2.07-1.45c.45-.61.68-1.28.68-2.01s-.22-1.38-.66-1.93c-.44-.55-1.16-1.01-2.16-1.38-.64-.25-2.07-.63-4.28-1.14-2.21-.52-3.75-1-4.64-1.46-1.15-.59-2-1.31-2.57-2.18s-.84-1.84-.84-2.92c0-1.18.34-2.29,1.03-3.32.69-1.03,1.69-1.81,3.02-2.34,1.32-.53,2.79-.8,4.41-.8,1.78,0,3.35.28,4.71.84,1.36.56,2.41,1.38,3.14,2.47.73,1.09,1.13,2.32,1.18,3.69l-3.05.22c-.16-1.48-.72-2.6-1.66-3.36-.95-.76-2.34-1.14-4.19-1.14s-3.33.34-4.2,1.03c-.88.69-1.32,1.52-1.32,2.49,0,.84.31,1.53.93,2.08.61.54,2.21,1.1,4.79,1.67,2.59.57,4.36,1.07,5.32,1.49,1.4.63,2.43,1.43,3.1,2.39.67.96,1,2.08,1,3.33s-.37,2.42-1.1,3.52c-.73,1.1-1.78,1.96-3.16,2.57-1.37.61-2.92.92-4.63.92-2.17,0-4-.31-5.47-.93-1.47-.62-2.62-1.55-3.46-2.79-.84-1.24-1.28-2.65-1.32-4.21Z"/>
            <path class="cls-4" d="m568.39,359.55c-1.09.91-2.15,1.55-3.16,1.92-1.01.37-2.1.56-3.25.56-1.91,0-3.38-.46-4.41-1.37s-1.54-2.08-1.54-3.49c0-.83.19-1.59.58-2.28.39-.69.9-1.24,1.53-1.65.63-.42,1.34-.73,2.12-.94.58-.15,1.45-.29,2.62-.43,2.38-.28,4.14-.61,5.26-.99.01-.39.02-.64.02-.75,0-1.17-.28-2-.84-2.48-.75-.65-1.87-.98-3.36-.98-1.39,0-2.41.24-3.07.71-.66.47-1.15,1.31-1.47,2.52l-2.89-.38c.26-1.2.69-2.18,1.3-2.92.6-.74,1.47-1.31,2.61-1.71,1.14-.4,2.45-.6,3.95-.6s2.69.17,3.62.51,1.61.77,2.05,1.29.74,1.17.92,1.96c.1.49.15,1.38.15,2.65v3.84c0,2.68.06,4.37.19,5.08s.37,1.39.75,2.04h-3.08c-.31-.6-.5-1.3-.59-2.09Zm-.25-6.43c-1.07.43-2.68.79-4.82,1.09-1.21.17-2.07.36-2.57.58-.5.21-.89.53-1.16.94-.27.41-.41.87-.41,1.37,0,.77.3,1.41.89,1.92s1.47.77,2.61.77,2.15-.24,3.03-.73c.89-.48,1.53-1.15,1.95-1.99.32-.65.47-1.61.47-2.88v-1.05Z"/>
            <path class="cls-4" d="m582.14,359.07l.43,2.54c-.83.17-1.57.26-2.23.26-1.07,0-1.9-.17-2.49-.5s-1.01-.76-1.25-1.3c-.24-.54-.36-1.67-.36-3.4v-9.77h-2.16v-2.24h2.16v-4.2l2.93-1.73v5.93h2.97v2.24h-2.97v9.93c0,.82.05,1.35.16,1.58.1.23.27.42.51.56s.57.21,1.01.21c.33,0,.76-.04,1.29-.11Z"/>
            <path class="cls-4" d="m596.95,356.18l3.05.37c-.48,1.74-1.37,3.08-2.67,4.04-1.3.96-2.96,1.44-4.98,1.44-2.55,0-4.57-.77-6.06-2.29-1.49-1.53-2.24-3.67-2.24-6.44s.75-5.07,2.26-6.65,3.46-2.37,5.87-2.37,4.23.77,5.71,2.32c1.47,1.55,2.21,3.72,2.21,6.52,0,.17,0,.43-.02.77h-12.98c.11,1.87.65,3.29,1.62,4.28s2.19,1.49,3.64,1.49c1.08,0,2.01-.28,2.77-.83.77-.55,1.37-1.44,1.82-2.65Zm-9.69-4.65h9.72c-.13-1.43-.5-2.5-1.12-3.21-.94-1.11-2.16-1.66-3.66-1.66-1.35,0-2.49.44-3.42,1.33-.92.88-1.43,2.07-1.53,3.55Z"/>
            <path class="cls-4" d="m603.64,361.65v-23.44h2.95v23.44h-2.95Z"/>
            <path class="cls-4" d="m611.1,361.65v-23.44h2.95v23.44h-2.95Z"/>
            <path class="cls-4" d="m618.64,341.52v-3.31h2.95v3.31h-2.95Zm0,20.13v-16.98h2.95v16.98h-2.95Z"/>
            <path class="cls-4" d="m632.52,359.07l.43,2.54c-.83.17-1.57.26-2.23.26-1.07,0-1.9-.17-2.49-.5s-1.01-.76-1.25-1.3c-.24-.54-.36-1.67-.36-3.4v-9.77h-2.16v-2.24h2.16v-4.2l2.93-1.73v5.93h2.97v2.24h-2.97v9.93c0,.82.05,1.35.16,1.58.1.23.27.42.51.56s.57.21,1.01.21c.33,0,.76-.04,1.29-.11Z"/>
            <path class="cls-4" d="m647.33,356.18l3.05.37c-.48,1.74-1.37,3.08-2.67,4.04-1.3.96-2.96,1.44-4.98,1.44-2.55,0-4.57-.77-6.06-2.29-1.49-1.53-2.24-3.67-2.24-6.44s.75-5.07,2.26-6.65c1.51-1.58,3.46-2.37,5.87-2.37s4.23.77,5.71,2.32c1.47,1.55,2.21,3.72,2.21,6.52,0,.17,0,.43-.02.77h-12.98c.11,1.87.65,3.29,1.62,4.28s2.19,1.49,3.64,1.49c1.08,0,2.01-.28,2.77-.83.77-.55,1.37-1.44,1.82-2.65Zm-9.69-4.65h9.72c-.13-1.43-.5-2.5-1.12-3.21-.94-1.11-2.16-1.66-3.66-1.66-1.35,0-2.49.44-3.42,1.33-.92.88-1.43,2.07-1.53,3.55Z"/>
            <path class="cls-4" d="m680.93,353.43l3.18.78c-.67,2.55-1.87,4.49-3.6,5.83-1.73,1.34-3.85,2.01-6.35,2.01s-4.7-.51-6.32-1.54c-1.62-1.03-2.86-2.52-3.7-4.47-.85-1.95-1.27-4.04-1.27-6.28,0-2.44.48-4.57,1.43-6.39s2.32-3.2,4.08-4.14c1.76-.94,3.71-1.41,5.83-1.41,2.4,0,4.43.6,6.07,1.79,1.64,1.19,2.78,2.87,3.43,5.04l-3.13.72c-.56-1.71-1.37-2.95-2.43-3.73-1.06-.78-2.39-1.17-4-1.17-1.85,0-3.39.43-4.63,1.29-1.24.86-2.11,2.02-2.61,3.48-.5,1.45-.75,2.95-.75,4.5,0,1.99.3,3.73.89,5.22s1.52,2.6,2.78,3.33c1.26.74,2.62,1.1,4.08,1.1,1.78,0,3.29-.5,4.52-1.5s2.07-2.49,2.51-4.46Z"/>
            <path class="cls-4" d="m699.57,356.18l3.05.37c-.48,1.74-1.37,3.08-2.67,4.04-1.3.96-2.96,1.44-4.98,1.44-2.55,0-4.57-.77-6.06-2.29-1.49-1.53-2.24-3.67-2.24-6.44s.75-5.07,2.26-6.65,3.46-2.37,5.87-2.37,4.23.77,5.71,2.32c1.47,1.55,2.21,3.72,2.21,6.52,0,.17,0,.43-.02.77h-12.98c.11,1.87.65,3.29,1.62,4.28.97.99,2.19,1.49,3.64,1.49,1.08,0,2.01-.28,2.77-.83.77-.55,1.37-1.44,1.82-2.65Zm-9.69-4.65h9.72c-.13-1.43-.5-2.5-1.12-3.21-.94-1.11-2.16-1.66-3.66-1.66-1.35,0-2.49.44-3.42,1.33-.92.88-1.43,2.07-1.53,3.55Z"/>
            <path class="cls-4" d="m706.33,361.65v-16.98h2.66v2.41c1.28-1.87,3.13-2.8,5.54-2.8,1.05,0,2.01.18,2.89.55.88.37,1.54.85,1.98,1.45.44.6.74,1.31.92,2.13.11.53.16,1.47.16,2.8v10.44h-2.95v-10.33c0-1.17-.11-2.05-.34-2.63s-.64-1.04-1.22-1.39-1.27-.52-2.06-.52c-1.26,0-2.34.39-3.25,1.17-.91.78-1.37,2.25-1.37,4.43v9.27h-2.95Z"/>
            <path class="cls-4" d="m731.44,359.07l.43,2.54c-.83.17-1.57.26-2.23.26-1.07,0-1.9-.17-2.49-.5s-1.01-.76-1.25-1.3c-.24-.54-.36-1.67-.36-3.4v-9.77h-2.16v-2.24h2.16v-4.2l2.93-1.73v5.93h2.97v2.24h-2.97v9.93c0,.82.05,1.35.16,1.58.1.23.27.42.51.56s.57.21,1.01.21c.33,0,.76-.04,1.29-.11Z"/>
            <path class="cls-4" d="m734.29,361.65v-16.98h2.66v2.57c.68-1.2,1.3-2,1.88-2.38.57-.38,1.21-.58,1.89-.58.99,0,2.01.31,3.03.93l-1.02,2.67c-.72-.42-1.44-.62-2.16-.62-.64,0-1.22.19-1.74.57-.51.38-.88.9-1.1,1.57-.33,1.02-.49,2.14-.49,3.36v8.89h-2.95Z"/>
            <path class="cls-4" d="m757.42,356.18l3.05.37c-.48,1.74-1.37,3.08-2.67,4.04-1.3.96-2.96,1.44-4.98,1.44-2.55,0-4.57-.77-6.06-2.29-1.49-1.53-2.24-3.67-2.24-6.44s.75-5.07,2.26-6.65c1.51-1.58,3.46-2.37,5.87-2.37s4.23.77,5.71,2.32c1.47,1.55,2.21,3.72,2.21,6.52,0,.17,0,.43-.02.77h-12.98c.11,1.87.65,3.29,1.62,4.28s2.19,1.49,3.64,1.49c1.08,0,2.01-.28,2.77-.83.77-.55,1.37-1.44,1.82-2.65Zm-9.69-4.65h9.72c-.13-1.43-.5-2.5-1.12-3.21-.94-1.11-2.16-1.66-3.66-1.66-1.35,0-2.49.44-3.42,1.33-.92.88-1.43,2.07-1.53,3.55Z"/>
          </g>
        </g>
        <g>
          <path class="cls-4" d="m202.93,188.17c0-4.43,3.49-7.92,7.92-7.92s7.92,3.49,7.92,7.92-3.65,7.92-7.92,7.92-7.92-3.65-7.92-7.92Zm1.59,24.71c0-3.48,2.69-6.33,6.33-6.33s6.33,2.85,6.33,6.33v70.46c0,3.64-2.85,6.49-6.33,6.49s-6.33-2.85-6.33-6.49v-70.46Z"/>
          <g>
            <path class="cls-4" d="m31.94,310.77v10.27c0,.73.03,1.85.89,2.68.52.49,1.35.83,2.13.83s1.59-.31,2.08-.76c1.04-.91,1.01-2.18,1.01-3.15v-9.88h4.5v9.96c0,1.82-.08,3.72-1.95,5.62-1.46,1.48-3.28,2.16-5.72,2.16-2.73,0-4.68-.94-5.75-2.08-1.51-1.64-1.69-3.85-1.69-5.7v-9.96h4.5Z"/>
            <path class="cls-4" d="m46.61,316.49h4.16v1.46c1.14-1.51,2.68-1.72,3.69-1.72,1.2,0,2.47.29,3.43,1.25.99.99,1.09,1.98,1.09,3.25v7.39h-4.16v-5.88c0-.68.03-1.69-.52-2.26-.39-.42-.91-.49-1.33-.49-.65,0-1.2.23-1.53.55-.42.39-.68,1.14-.68,1.85v6.24h-4.16v-11.63Z"/>
            <path class="cls-4" d="m64.71,309.31c1.3,0,2.34,1.04,2.34,2.34s-1.04,2.34-2.34,2.34-2.34-1.04-2.34-2.34,1.04-2.34,2.34-2.34Zm2.08,7.18v11.63h-4.16v-11.63h4.16Z"/>
            <path class="cls-4" d="m75.04,319.89v8.22h-4.16v-8.22h-1.33v-3.41h1.33v-3.82h4.16v3.82h2.37v3.41h-2.37Z"/>
            <path class="cls-4" d="m92.1,323.07h-8.66c0,.62.24,1.46.73,1.95.26.26.78.57,1.72.57.1,0,.83-.03,1.35-.31.26-.16.55-.42.73-.78h3.98c-.18.65-.55,1.56-1.4,2.39-.86.83-2.21,1.61-4.73,1.61-1.53,0-3.38-.34-4.81-1.77-.76-.75-1.72-2.18-1.72-4.4,0-1.95.73-3.51,1.74-4.5.96-.94,2.47-1.69,4.76-1.69,1.35,0,3.1.29,4.47,1.59,1.64,1.56,1.85,3.59,1.85,4.89v.44Zm-3.82-2.39c-.1-.44-.36-.94-.68-1.25-.55-.55-1.3-.62-1.72-.62-.7,0-1.25.18-1.69.62-.29.31-.55.73-.62,1.25h4.71Z"/>
            <path class="cls-4" d="m108.46,328.11h-4.16v-1.28c-1.17,1.51-2.7,1.66-3.51,1.66-1.66,0-2.99-.55-4.08-1.61-1.17-1.14-1.87-2.78-1.87-4.63,0-1.98.83-3.59,1.9-4.6,1.14-1.09,2.68-1.56,4.11-1.56,1.59,0,2.71.7,3.46,1.51v-8.45h4.16v18.96Zm-4.92-3.85c.55-.49.88-1.28.88-1.98,0-.65-.36-1.43-.78-1.87-.47-.49-1.12-.78-1.9-.78-.88,0-1.48.39-1.85.75-.47.47-.81,1.2-.81,1.98,0,.6.26,1.27.81,1.82.57.57,1.25.78,1.85.78.68,0,1.35-.31,1.79-.7Z"/>
            <path class="cls-4" d="m119.38,328.11v-17.35h4.5l8.3,10.61v-10.61h4.5v17.35h-4.5l-8.3-10.61v10.61h-4.5Z"/>
            <path class="cls-4" d="m149.74,316.49h4.16v11.63h-4.16v-1.28c-.96,1.33-2.47,1.66-3.62,1.66-1.25,0-2.78-.36-4.19-1.85-1.12-1.2-1.66-2.52-1.66-4.27,0-2.18.86-3.72,1.79-4.65.99-.99,2.52-1.64,4.19-1.64,1.87,0,2.99.96,3.48,1.51v-1.12Zm-4.37,3.9c-.57.55-.83,1.3-.83,1.9,0,.68.29,1.4.81,1.9.44.41,1.17.78,1.87.78s1.35-.29,1.87-.81c.36-.36.78-.94.78-1.87,0-.55-.16-1.28-.81-1.9-.39-.36-.99-.75-1.87-.75-.52,0-1.22.18-1.82.75Z"/>
            <path class="cls-4" d="m162.17,319.89v8.22h-4.16v-8.22h-1.33v-3.41h1.33v-3.82h4.16v3.82h2.37v3.41h-2.37Z"/>
            <path class="cls-4" d="m168.99,309.31c1.3,0,2.34,1.04,2.34,2.34s-1.04,2.34-2.34,2.34-2.34-1.04-2.34-2.34,1.04-2.34,2.34-2.34Zm2.08,7.18v11.63h-4.16v-11.63h4.16Z"/>
            <path class="cls-4" d="m186.41,326.58c-1.53,1.51-3.33,1.92-5.2,1.92-1.69,0-3.56-.34-5.18-1.92-1.28-1.25-1.79-2.73-1.79-4.29,0-2.08.94-3.43,1.79-4.27.96-.94,2.65-1.93,5.18-1.93s4.24,1.01,5.2,1.93c.86.83,1.79,2.18,1.79,4.27,0,1.56-.52,3.04-1.79,4.29Zm-7.05-6.19c-.52.49-.81,1.22-.81,1.9s.34,1.38.81,1.85c.49.49,1.17.78,1.87.78s1.35-.29,1.85-.78c.52-.49.81-1.17.81-1.85,0-.62-.29-1.38-.81-1.9-.47-.44-1.2-.75-1.85-.75s-1.4.31-1.87.75Z"/>
            <path class="cls-4" d="m191.4,316.49h4.16v1.46c1.14-1.51,2.68-1.72,3.69-1.72,1.2,0,2.47.29,3.43,1.25.99.99,1.09,1.98,1.09,3.25v7.39h-4.16v-5.88c0-.68.03-1.69-.52-2.26-.39-.42-.91-.49-1.33-.49-.65,0-1.2.23-1.53.55-.42.39-.68,1.14-.68,1.85v6.24h-4.16v-11.63Z"/>
            <path class="cls-4" d="m208.18,324.26c.49.36,1.09.68,1.66.86.52.18,1.17.29,1.61.29.31,0,.81-.08,1.07-.31.18-.18.21-.34.21-.55,0-.18-.03-.36-.21-.52-.26-.24-.68-.31-1.09-.42l-1.09-.26c-.57-.13-1.4-.34-2.03-1.01-.44-.47-.75-1.12-.75-2,0-1.12.44-2.16,1.09-2.84.88-.91,2.44-1.4,4.16-1.4s3.04.47,3.72.75l-1.41,2.65c-.57-.26-1.43-.57-2.18-.57-.42,0-.7.08-.96.23-.24.13-.36.31-.36.57,0,.36.23.55.49.65.39.16.73.16,1.38.34l.76.21c.55.16,1.38.57,1.72.91.57.55.88,1.46.88,2.31,0,1.41-.6,2.34-1.17,2.89-1.35,1.35-3.33,1.46-4.29,1.46-1.04,0-2.68-.13-4.68-1.35l1.48-2.89Z"/>
            <path class="cls-4" d="m30.98,340.24v17.35h-3.38v-17.35h3.38Z"/>
            <path class="cls-4" d="m35.12,346.33h3.17v1.46c.6-.83,1.66-1.82,3.48-1.82.99,0,2.45.29,3.33,1.38.78.96.88,2.08.88,3.17v7.07h-3.17v-6.14c0-.62-.03-1.61-.6-2.21-.49-.52-1.17-.57-1.48-.57-.83,0-1.48.29-1.95.99-.47.73-.49,1.54-.49,2.19v5.75h-3.17v-11.26Z"/>
            <path class="cls-4" d="m55.79,349.01c-.76-.7-1.51-.75-1.85-.75-.75,0-1.22.36-1.22.91,0,.29.13.73,1.01,1.01l.76.23c.88.29,2.21.73,2.86,1.61.34.47.57,1.14.57,1.87,0,1.01-.34,2.03-1.25,2.86-.91.83-2,1.2-3.38,1.2-2.34,0-3.67-1.12-4.37-1.87l1.66-1.92c.62.73,1.56,1.3,2.5,1.3.89,0,1.56-.44,1.56-1.22,0-.7-.57-.99-.99-1.14l-.73-.26c-.81-.29-1.74-.65-2.42-1.35-.52-.55-.86-1.25-.86-2.16,0-1.09.52-2,1.17-2.55.88-.7,2.03-.81,2.94-.81.83,0,2.16.1,3.59,1.2l-1.56,1.85Z"/>
            <path class="cls-4" d="m63.99,349.03v8.56h-3.17v-8.56h-1.25v-2.71h1.25v-3.85h3.17v3.85h2.18v2.71h-2.18Z"/>
            <path class="cls-4" d="m70.07,339.67c1.04,0,1.9.86,1.9,1.9s-.86,1.9-1.9,1.9-1.9-.86-1.9-1.9.86-1.9,1.9-1.9Zm1.59,6.66v11.26h-3.17v-11.26h3.17Z"/>
            <path class="cls-4" d="m78.5,349.03v8.56h-3.17v-8.56h-1.25v-2.71h1.25v-3.85h3.17v3.85h2.18v2.71h-2.18Z"/>
            <path class="cls-4" d="m86.17,346.33v6.37c0,.6.05,1.41.68,1.98.39.34,1.01.57,1.61.57s1.22-.24,1.61-.57c.62-.57.68-1.38.68-1.98v-6.37h3.17v6.89c0,1.01-.13,2.37-1.38,3.46-1.04.91-2.71,1.28-4.08,1.28s-3.04-.36-4.08-1.28c-1.25-1.09-1.38-2.44-1.38-3.46v-6.89h3.17Z"/>
            <path class="cls-4" d="m100.76,349.03v8.56h-3.17v-8.56h-1.25v-2.71h1.25v-3.85h3.17v3.85h2.18v2.71h-2.18Z"/>
            <path class="cls-4" d="m116.31,354.44c-.34.83-1.61,3.51-5.54,3.51-1.82,0-3.2-.52-4.32-1.59-1.25-1.17-1.77-2.63-1.77-4.4,0-2.24.91-3.62,1.72-4.42,1.33-1.3,2.89-1.59,4.24-1.59,2.29,0,3.62.91,4.4,1.85,1.2,1.43,1.35,3.2,1.35,4.42v.26h-8.43c0,.68.18,1.4.55,1.9.34.47,1.04,1.07,2.26,1.07s2.11-.57,2.63-1.48l2.91.47Zm-2.91-3.98c-.26-1.54-1.51-2.26-2.68-2.26s-2.39.76-2.65,2.26h5.33Z"/>
            <path class="cls-4" d="m129.42,349.03v8.56h-3.17v-8.56h-1.2v-2.71h1.2v-3.09c0-1.04.08-2.81,1.48-3.98.68-.57,1.61-.94,2.78-.94.7,0,1.27.13,1.82.39v2.89c-.44-.34-.89-.47-1.43-.47-.42,0-.83.1-1.14.57-.26.42-.34,1.01-.34,1.95v2.68h2.91v2.71h-2.91Z"/>
            <path class="cls-4" d="m144.87,347.55c1.12,1.01,1.9,2.58,1.9,4.42s-.78,3.38-1.9,4.4c-.96.88-2.42,1.59-4.55,1.59s-3.59-.7-4.55-1.59c-1.12-1.01-1.9-2.57-1.9-4.4s.78-3.41,1.9-4.42c.96-.88,2.42-1.59,4.55-1.59s3.59.7,4.55,1.59Zm-1.38,4.42c0-1.77-1.35-3.2-3.17-3.2s-3.17,1.43-3.17,3.2,1.33,3.17,3.17,3.17,3.17-1.46,3.17-3.17Z"/>
            <path class="cls-4" d="m149.86,346.33h3.17v1.69c.49-.96,1.17-1.43,1.4-1.56.49-.31,1.12-.49,1.87-.49.55,0,.99.13,1.35.26l-.42,2.96c-.42-.29-.83-.42-1.48-.42-.6,0-1.48.13-2.11.91-.6.75-.62,1.72-.62,2.5v5.41h-3.17v-11.26Z"/>
            <path class="cls-4" d="m172.52,343.16v14.43h-3.38v-14.43h-3.9v-2.91h11.18v2.91h-3.9Z"/>
            <path class="cls-4" d="m177.64,346.33h3.17v1.69c.49-.96,1.17-1.43,1.4-1.56.49-.31,1.12-.49,1.87-.49.55,0,.99.13,1.35.26l-.42,2.96c-.42-.29-.83-.42-1.48-.42-.6,0-1.48.13-2.11.91-.6.75-.62,1.72-.62,2.5v5.41h-3.17v-11.26Z"/>
            <path class="cls-4" d="m196.03,346.33h3.17v11.26h-3.17v-1.46c-1.14,1.64-2.65,1.82-3.46,1.82-3.46,0-5.75-2.7-5.75-6.01s2.26-5.98,5.59-5.98c.86,0,2.55.16,3.62,1.82v-1.46Zm-5.93,5.62c0,1.79,1.3,3.2,3.12,3.2s3.12-1.4,3.12-3.2-1.3-3.17-3.12-3.17-3.12,1.38-3.12,3.17Z"/>
            <path class="cls-4" d="m204.45,339.67c1.04,0,1.9.86,1.9,1.9s-.86,1.9-1.9,1.9-1.9-.86-1.9-1.9.86-1.9,1.9-1.9Zm1.59,6.66v11.26h-3.17v-11.26h3.17Z"/>
            <path class="cls-4" d="m209.71,346.33h3.17v1.46c.6-.83,1.66-1.82,3.48-1.82.99,0,2.45.29,3.33,1.38.78.96.88,2.08.88,3.17v7.07h-3.17v-6.14c0-.62-.03-1.61-.6-2.21-.49-.52-1.17-.57-1.48-.57-.83,0-1.48.29-1.95.99-.47.73-.49,1.54-.49,2.19v5.75h-3.17v-11.26Z"/>
            <path class="cls-4" d="m225.83,339.67c1.04,0,1.9.86,1.9,1.9s-.86,1.9-1.9,1.9-1.9-.86-1.9-1.9.86-1.9,1.9-1.9Zm1.59,6.66v11.26h-3.17v-11.26h3.17Z"/>
            <path class="cls-4" d="m231.09,346.33h3.17v1.46c.6-.83,1.66-1.82,3.48-1.82.99,0,2.45.29,3.33,1.38.78.96.88,2.08.88,3.17v7.07h-3.17v-6.14c0-.62-.03-1.61-.6-2.21-.49-.52-1.17-.57-1.48-.57-.83,0-1.48.29-1.95.99-.47.73-.49,1.54-.49,2.19v5.75h-3.17v-11.26Z"/>
            <path class="cls-4" d="m254.21,346.33h3.17v10.74c0,1.72-.16,3.51-1.56,4.92-.78.78-2.13,1.59-4.45,1.59-2.18,0-3.48-.65-4.21-1.3-.88-.76-1.56-2.08-1.82-3.36h3.43c.13.52.42,1.04.78,1.35.62.57,1.48.6,1.93.6.91,0,1.51-.31,1.92-.7.73-.7.81-1.59.81-2.5v-1.59c-1.09,1.66-2.6,1.87-3.46,1.87-1.51,0-2.81-.47-3.9-1.53-.83-.83-1.79-2.29-1.79-4.47,0-1.77.65-3.41,1.74-4.47.99-.96,2.37-1.51,3.88-1.51,2.11,0,3.09,1.14,3.54,1.82v-1.46Zm-4.86,3.23c-.52.47-1.01,1.22-1.01,2.39,0,.99.36,1.72.83,2.21.68.73,1.53.99,2.29.99s1.56-.29,2.11-.78c.65-.6,1.01-1.51,1.01-2.42,0-1.07-.47-1.79-.91-2.26-.62-.65-1.35-.91-2.21-.91-1.01,0-1.72.42-2.11.78Z"/>
            <path class="cls-4" d="m276.39,346.33h3.17v11.26h-3.17v-1.46c-1.14,1.64-2.65,1.82-3.46,1.82-3.46,0-5.75-2.7-5.75-6.01s2.26-5.98,5.59-5.98c.86,0,2.55.16,3.62,1.82v-1.46Zm-5.93,5.62c0,1.79,1.3,3.2,3.12,3.2s3.12-1.4,3.12-3.2-1.3-3.17-3.12-3.17-3.12,1.38-3.12,3.17Z"/>
            <path class="cls-4" d="m283.23,346.33h3.17v1.46c.6-.83,1.66-1.82,3.48-1.82.99,0,2.45.29,3.33,1.38.78.96.88,2.08.88,3.17v7.07h-3.17v-6.14c0-.62-.03-1.61-.6-2.21-.49-.52-1.17-.57-1.48-.57-.83,0-1.48.29-1.95.99-.47.73-.49,1.54-.49,2.19v5.75h-3.17v-11.26Z"/>
            <path class="cls-4" d="m306.41,338.63h3.17v18.96h-3.17v-1.46c-1.14,1.64-2.65,1.82-3.46,1.82-3.46,0-5.75-2.7-5.75-6.01s2.26-5.98,5.59-5.98c.86,0,2.55.16,3.62,1.82v-9.16Zm-5.93,13.32c0,1.79,1.3,3.2,3.12,3.2s3.12-1.4,3.12-3.2-1.3-3.17-3.12-3.17-3.12,1.38-3.12,3.17Z"/>
            <path class="cls-4" d="m325.45,340.24c2.39,0,3.62.62,4.42,1.3,1.33,1.12,1.72,2.6,1.72,3.9,0,1.69-.68,3.17-2.03,4.08-.44.31-1.07.6-1.9.75l5.41,7.31h-4.21l-4.63-6.97h-.42v6.97h-3.38v-17.35h5.02Zm-1.64,7.99h.96c.65,0,3.33-.08,3.33-2.63s-2.65-2.6-3.28-2.6h-1.01v5.23Z"/>
            <path class="cls-4" d="m346.59,354.44c-.34.83-1.61,3.51-5.54,3.51-1.82,0-3.2-.52-4.32-1.59-1.25-1.17-1.77-2.63-1.77-4.4,0-2.24.91-3.62,1.72-4.42,1.33-1.3,2.89-1.59,4.24-1.59,2.29,0,3.62.91,4.4,1.85,1.2,1.43,1.35,3.2,1.35,4.42v.26h-8.43c0,.68.18,1.4.55,1.9.34.47,1.04,1.07,2.26,1.07s2.11-.57,2.63-1.48l2.91.47Zm-2.91-3.98c-.26-1.54-1.51-2.26-2.68-2.26s-2.39.76-2.65,2.26h5.33Z"/>
            <path class="cls-4" d="m355.9,349.01c-.76-.7-1.51-.75-1.85-.75-.75,0-1.22.36-1.22.91,0,.29.13.73,1.01,1.01l.76.23c.88.29,2.21.73,2.86,1.61.34.47.57,1.14.57,1.87,0,1.01-.34,2.03-1.25,2.86-.91.83-2,1.2-3.38,1.2-2.34,0-3.67-1.12-4.37-1.87l1.66-1.92c.62.73,1.56,1.3,2.5,1.3.88,0,1.56-.44,1.56-1.22,0-.7-.57-.99-.99-1.14l-.73-.26c-.81-.29-1.74-.65-2.42-1.35-.52-.55-.86-1.25-.86-2.16,0-1.09.52-2,1.17-2.55.88-.7,2.03-.81,2.94-.81.83,0,2.16.1,3.59,1.2l-1.56,1.85Z"/>
            <path class="cls-4" d="m371.97,354.44c-.34.83-1.61,3.51-5.54,3.51-1.82,0-3.2-.52-4.32-1.59-1.25-1.17-1.77-2.63-1.77-4.4,0-2.24.91-3.62,1.72-4.42,1.33-1.3,2.89-1.59,4.24-1.59,2.29,0,3.62.91,4.4,1.85,1.2,1.43,1.35,3.2,1.35,4.42v.26h-8.43c0,.68.18,1.4.55,1.9.34.47,1.04,1.07,2.26,1.07s2.11-.57,2.63-1.48l2.91.47Zm-2.91-3.98c-.26-1.54-1.51-2.26-2.68-2.26s-2.39.76-2.65,2.26h5.33Z"/>
            <path class="cls-4" d="m384.04,346.33h3.17v11.26h-3.17v-1.46c-1.14,1.64-2.65,1.82-3.46,1.82-3.46,0-5.75-2.7-5.75-6.01s2.26-5.98,5.59-5.98c.86,0,2.55.16,3.62,1.82v-1.46Zm-5.93,5.62c0,1.79,1.3,3.2,3.12,3.2s3.12-1.4,3.12-3.2-1.3-3.17-3.12-3.17-3.12,1.38-3.12,3.17Z"/>
            <path class="cls-4" d="m390.88,346.33h3.17v1.69c.49-.96,1.17-1.43,1.4-1.56.49-.31,1.12-.49,1.87-.49.55,0,.99.13,1.35.26l-.42,2.96c-.42-.29-.83-.42-1.48-.42-.6,0-1.48.13-2.11.91-.6.75-.62,1.72-.62,2.5v5.41h-3.17v-11.26Z"/>
            <path class="cls-4" d="m409.09,349.76c-.68-.62-1.51-.99-2.6-.99-2.11,0-3.17,1.53-3.17,3.17,0,1.85,1.38,3.2,3.28,3.2.7,0,1.64-.21,2.5-.99v3.09c-.62.31-1.61.7-2.91.7-1.77,0-3.33-.68-4.34-1.64-.86-.81-1.79-2.21-1.79-4.32,0-1.98.81-3.56,1.95-4.58,1.38-1.22,2.96-1.46,4.06-1.46,1.17,0,2.13.24,3.04.68v3.12Z"/>
            <path class="cls-4" d="m412.13,338.63h3.17v9.16c.6-.83,1.66-1.82,3.48-1.82.99,0,2.45.29,3.33,1.38.78.96.88,2.08.88,3.17v7.07h-3.17v-6.14c0-.62-.03-1.61-.6-2.21-.49-.52-1.17-.57-1.48-.57-.83,0-1.48.29-1.95.99-.47.73-.49,1.54-.49,2.19v5.75h-3.17v-18.96Z"/>
          </g>
          <path id="emblem" class="cls-4" d="m109.86,184.05s.12.04.14.07c-1.92,1.96-4.37,3.31-6.73,3.98-1.75.5-3.51.58-5.31.38-2.77-.31-5.22-1.42-7.51-2.93-1.37-.9-2.73-1.83-4.09-2.75-1.56-1.06-3.28-1.26-5.1-.96-.98.11-.24.58-.09.65,2.44,1.19,4.73,2.62,6.87,4.28,1.46,1.07,4.05,3.57,4.05,3.57l-1.94,1.66s-1.48-1.66-2.13-2.31c-4.26-4.44-8.04-6.39-8.88-6.87-.15-.08-.29-.17-.44-.17s-.29.08-.44.17c-.84.48-4.61,2.43-8.88,6.87-.64.65-2.13,2.31-2.13,2.31l-1.94-1.66s2.6-2.5,4.06-3.57c2.14-1.65,4.44-3.08,6.87-4.28.15-.07.9-.55-.09-.65-1.81-.3-3.54-.1-5.1.96-1.36.93-2.72,1.85-4.09,2.75-2.29,1.51-4.74,2.62-7.51,2.93-1.8.2-3.56.12-5.31-.38-2.36-.67-4.82-2.02-6.73-3.99.02-.03.1-.07.15-.06.16.07.26.12.42.21,2.85,1.46,5.85,1.63,8.93,1.04,2.1-.41,4.06-1.25,6.02-2.09,1.4-.6,2.79-1.26,4.24-1.74,3.75-1.24,7.54-1.22,11.35-.26.06.02.13.03.19.03.06,0,.13-.02.19-.03,3.81-.97,7.61-.98,11.35.26,1.45.48,2.83,1.14,4.24,1.74,1.96.84,3.91,1.68,6.02,2.09,3.08.59,6.08.42,8.93-1.04.16-.08.26-.13.42-.21Zm8.99-8.16c-1.63,1.25-2.68,1.67-4.03,2.13-2.03.7-4.22.84-6.35.95-2.81.15-5.51.27-8.28.72-.01,0-.03,0-.04,0-.17.03-.25-.05-.2-.11,0,0,.03-.02.04-.03,2.47-.9,4.14-2.82,5.4-5.22.87-1.66,2.3-4.91,2.7-5.44,0-.01,0-.12-.03-.14-.19.06-2.9,2.37-4.13,3.52-1.53,1.42-2.97,2.94-4.5,4.36-2.39,2.28-5.83,3.28-7.07,3.61-.03,0-.08.03-.1.04-.04.05-.06.09-.06.11,0,0,0,.01,0,.02.02,0,.04,0,.06.01.97.22,3.75.83,5.18,1.21,2.2.59,4.41,1.08,6.68,1.24,2.47.17,4.93-.09,7.22-.94,2.61-.97,5.83-3.27,7.66-6.02,0,0,0-.02,0-.02-.08-.04-.17-.01-.19,0Zm8.4-12.89c-.08.1-1.45,1.9-4.82,4.2-1.63,1.14-3.15,1.86-4.95,2.7-2.24,1.04-4.17,1.99-6.08,3.57-.12.1-.23.18-.35.27-.07.05-.13-.03-.06-.12.09-.11,2.9-2.98,3.74-9.07.29-2.12.34-4.42,1.02-6.47.02-.06-.02-.13-.04-.17,0,0-.02,0-.03.01-2.06,2.36-3.78,6.02-4.58,8.31-.57,1.62-1.11,3.25-1.69,4.87-.8,2.19-1.83,4.25-3.52,5.92-.02.03-.15.16-.15.16,0,0-.02.04-.03.1,0,0,0,.02.01.02.24-.04.4-.06.55-.1,1.88-.39,3.74-.84,5.63-1.15,3.16-.53,5.91-1.65,8.46-3.6,2.55-1.96,4.71-4.24,6.12-7.16.37-.76.71-1.5.94-2.33-.05-.02-.12-.01-.17.02Zm3.68-14.48c-.81,2.58-2.27,4.67-4.41,6.92-1.68,1.73-4.9,5-6.39,7.27-.04.06-.15.04-.11-.08.72-1.97,1.02-5.46.59-8.17-.37-2.31-1.38-4.83-1.63-7.65,0-.01,0-.02,0-.03-.01-.04-.08-.12-.12-.13,0,0-.03.05-.1.27-.48,1.64-1.09,3.7-1.19,5.61-.12,2.3.31,5.26.12,7.63-.22,2.74-.41,5.45-1.66,7.93,0,.01,0,.03-.01.04-.03.07.04.19.04.19,0,0,.01,0,.02,0,1.01-.64,3.88-2.33,5.77-3.6,2.36-1.58,4.45-3.45,6.08-5.81,2.04-2.95,3.22-6.5,3.16-10.11,0-.12-.01-.34-.02-.36-.03-.01-.14.07-.14.09Zm-6.09,1.56s-.04.05-.05.05c-.06.02-.09-.05-.09-.07.09-.73.1-1.63.05-2.32-.2-2.71-1.83-4.95-3.26-7.2-.75-1.17-2.04-3.23-2.59-4.61,0-.01-.11-.08-.15-.07-.01.24.04,1.04.09,1.55.4,3.87,1.63,7.67,2.91,11.34.85,2.46,1.28,4.57,1.02,7.17-.03.22-.04.24.06.31,0,0,0,0,.01,0,.87-1.26,2.57-3.03,3.62-4.3,1.13-1.38,6.85-7.89,4.03-16.97-.17-.55-.37-1.02-.44-1.12-.04,0-.12.11-.13.14.02,6.53-3.14,9.33-4.46,13.79-.25.85-.45,1.64-.62,2.3Zm-4.92-20.29c-1.04-.89-2.58-2.49-3.48-3.87,0-.01-.01-.02-.02-.03-.01-.01-.03-.02-.04-.03-.06-.04-.13-.04-.15-.03-.04,0-.08,0-.07,0,.06.27.95,3.15,1.53,4.49.84,1.94,2.18,3.56,3.45,5.23.09.12.18.24.27.36,1.27,1.7,3.29,5.33,3.78,7.19.01.05.13.1.13.08.18-.66,1-3.25,1.6-4.99.13-.36,1.2-3.86,1.42-5.37.61-4.29-.8-9.87-3.31-12.91-.04.01-.08.13-.07.15.05.14.08.25.12.4.06.19.11.38.15.57.65,2.8.43,4.77.11,7.15-.26,1.9-.62,3.77-.52,5.69.02.32.21,2.67.18,2.76-.03.11-.13.02-.14-.03,0-.02-.31-.87-.61-1.59-.13-.31-.26-.61-.36-.82-1.01-2-2.31-3.03-3.97-4.39Zm-2.76-17.38c.8.78,1.43,1.66,1.87,2.69.69,1.62.89,4.06,1.34,5.9.27,1.12.44,1.91.83,3.18.04.11-.08.16-.14.06,0-.01-.02-.03-.03-.04-1.29-1.75-2.9-2.84-5.18-4.29-1.36-.89-2.39-1.7-3.37-3.03-.17-.23-.35-.45-.52-.68-.01-.02-.12-.06-.15-.04,0,.05.02.15.04.28.29,1.47,1.28,4.2,2.97,5.81,1.22,1.16,2.58,2.19,3.88,3.26,2.31,1.94,4,4.03,4.54,4.72,0,0,.02.03.02.03,0,0,.1.07.1.03,0,0,0-.02,0-.03,0,0,0,0,0,0-.03-.34-.04-.88-.04-1.51,0-1.42.06-3.31.13-4.62.02-.53.04-1.06.04-1.59,0-1.57-.18-3.13-.84-4.62-1.08-2.42-2.67-4.35-5.07-5.54-.14-.07-.33-.14-.45-.17,0,0-.02.07.01.17,0,0,0,.02.02.02Zm-9.91-4.58c1.39,1.23,2.5,2.69,3.54,4.21,1,1.46,1.98,2.95,3.34,4.12.9.9,3.5,2.93,4.16,3.44,0,0,.02.02.03.02.02,0,.06,0,.06,0,0,0,0-.02,0-.03-.14-.75-1.32-6.24-4.75-8.96-1.85-1.6-4.3-2.58-6.69-3.23-.02.05,0,.16.02.16.12.1.2.17.31.27Zm-54,75.05c2.28-.16,4.48-.65,6.68-1.24,1.43-.38,4.22-.99,5.18-1.21.02,0,.04,0,.06-.01,0,0,.01,0,0-.02,0-.02-.03-.06-.06-.11-.01-.02-.07-.04-.1-.04-1.24-.32-4.68-1.33-7.07-3.61-1.53-1.42-2.97-2.94-4.5-4.36-1.23-1.14-3.95-3.45-4.13-3.52-.03.02-.04.13-.03.14.4.53,1.83,3.78,2.7,5.44,1.26,2.4,2.94,4.31,5.4,5.22.01,0,.03.02.04.03.06.06-.02.13-.2.11-.01,0-.03,0-.04,0-2.77-.45-5.47-.57-8.28-.72-2.12-.11-4.31-.25-6.35-.95-1.35-.46-2.4-.88-4.03-2.13-.02,0-.11-.04-.19,0,0,0,0,.01,0,.02,1.84,2.75,5.05,5.05,7.66,6.02,2.3.86,4.75,1.11,7.22.94Zm-2.14-5.66c.16.03.31.06.55.1,0,0,.01-.01.01-.02,0-.06-.03-.1-.03-.1,0,0-.13-.13-.15-.16-1.69-1.67-2.72-3.72-3.52-5.92-.59-1.62-1.13-3.25-1.69-4.87-.8-2.29-2.52-5.96-4.58-8.31,0,0-.02-.02-.03-.01-.02.03-.06.1-.04.17.69,2.05.73,4.34,1.02,6.47.84,6.09,3.65,8.96,3.74,9.07.07.09,0,.17-.06.12-.12-.09-.23-.17-.35-.27-1.91-1.58-3.84-2.53-6.08-3.57-1.8-.83-3.31-1.56-4.95-2.7-3.37-2.31-4.74-4.11-4.82-4.2-.05-.04-.13-.04-.17-.02.23.83.57,1.57.94,2.33,1.41,2.92,3.57,5.2,6.12,7.16,2.54,1.95,5.3,3.07,8.46,3.6,1.89.31,3.75.76,5.63,1.15Zm-15.57-12.5c1.89,1.26,4.76,2.96,5.77,3.6,0,0,.02,0,.02,0,0,0,.07-.12.04-.19,0-.01,0-.03-.01-.04-1.26-2.48-1.44-5.19-1.66-7.93-.19-2.37.24-5.33.12-7.63-.1-1.91-.71-3.96-1.19-5.61-.07-.22-.09-.26-.1-.27-.04,0-.1.09-.12.13,0,.01,0,.02,0,.03-.25,2.82-1.26,5.34-1.63,7.65-.43,2.71-.12,6.2.59,8.17.04.12-.07.14-.11.08-1.49-2.27-4.71-5.54-6.39-7.27-2.14-2.25-3.6-4.34-4.41-6.92,0-.02-.12-.1-.14-.09-.01.03-.02.24-.03.36-.06,3.61,1.12,7.16,3.16,10.11,1.63,2.36,3.72,4.23,6.08,5.81Zm-.99-8.48s0,0,.01,0c.09-.07.08-.09.06-.31-.26-2.6.16-4.71,1.02-7.17,1.28-3.68,2.51-7.47,2.91-11.34.05-.52.1-1.31.09-1.56-.03-.01-.14.05-.15.07-.55,1.38-1.85,3.44-2.59,4.61-1.43,2.25-3.07,4.49-3.26,7.2-.05.69-.04,1.59.05,2.32,0,.02-.03.09-.09.07,0,0-.04-.02-.05-.05-.17-.66-.37-1.45-.62-2.3-1.32-4.47-4.47-7.27-4.46-13.79,0-.03-.08-.14-.13-.14-.07.1-.27.58-.44,1.12-2.81,9.07,2.9,15.59,4.03,16.97,1.05,1.28,2.75,3.04,3.62,4.3Zm-4.09-18.04c.61,1.74,1.43,4.32,1.6,4.99,0,.02.12-.03.13-.08.49-1.86,2.51-5.49,3.78-7.19.09-.12.18-.24.27-.36,1.26-1.67,2.61-3.29,3.45-5.23.58-1.34,1.48-4.22,1.54-4.49,0,0-.03-.01-.07,0-.02,0-.09,0-.15.03-.01,0-.03.02-.04.03,0,0-.01.01-.02.03-.9,1.39-2.44,2.98-3.48,3.87-1.67,1.36-2.97,2.4-3.97,4.39-.11.21-.24.51-.36.82-.31.72-.61,1.58-.61,1.59-.01.06-.11.14-.14.03-.03-.09.17-2.44.18-2.76.1-1.91-.27-3.79-.53-5.69-.32-2.38-.54-4.35.11-7.15.04-.19.1-.38.15-.57.04-.14.07-.25.12-.4,0-.02-.03-.14-.07-.15-2.51,3.04-3.92,8.62-3.31,12.91.22,1.51,1.29,5.01,1.42,5.37Zm3.61-9.45c0,.64-.01,1.17-.04,1.51,0,0,0,0,0,0,0,0,0,.02,0,.03,0,.04.1-.03.1-.03,0,0,.02-.02.02-.03.54-.69,2.23-2.78,4.54-4.72,1.3-1.07,2.66-2.1,3.88-3.26,1.69-1.61,2.67-4.34,2.97-5.81.02-.13.04-.23.04-.28-.03-.01-.14.02-.15.04-.17.23-.35.45-.52.68-.98,1.33-2.02,2.14-3.37,3.03-2.28,1.44-3.89,2.53-5.18,4.29,0,.01-.02.03-.03.04-.06.11-.17.06-.14-.06.39-1.27.56-2.06.83-3.18.45-1.84.65-4.28,1.34-5.9.44-1.03,1.06-1.9,1.86-2.69,0,0,.02-.01.02-.02.03-.1.02-.17.01-.17-.12.03-.31.1-.45.17-2.39,1.19-3.99,3.12-5.07,5.54-.66,1.49-.84,3.05-.84,4.62,0,.53.02,1.06.04,1.59.06,1.31.13,3.2.13,4.62Zm4.95-9.12s.03.01.05,0c0,0,.02-.01.03-.02.65-.51,3.26-2.53,4.16-3.44,1.36-1.18,2.34-2.66,3.34-4.12,1.04-1.53,2.15-2.98,3.54-4.21.11-.1.2-.17.31-.27.01,0,.04-.12.02-.16-2.38.66-4.84,1.64-6.69,3.23-3.44,2.72-4.62,8.21-4.75,8.96,0,.01,0,.03,0,.03Zm38.74,29.93c.27-.41-.4-.66-.58.04-.16.65.31.36.58-.04Zm7.33-16.95c-.26-.14-1.33,1.17-1.16,1.38.08.08,1.26-1.32,1.16-1.38Zm.23-.23c.16.08.87-.3.74-.41-.13-.11-.97-.49-.98-.26-.02.38.08.58.24.66Zm12.91,11.32c-.34.01-.7.5-.6.51.24.01.43.19.62.14.36-.08.31-.66-.02-.65Zm-4.68-12.19c-.29,0-.36.32-.08.47.12.06.52,0,.7-.11.19-.12.42-.27.37-.57-.02-.18-.44-.68-.22-.88.23-.21.47.12.7.03.28-.11.25-.27.26-.51.01-.33-.12-.76-.5-.76-.29,0-.78.76-.8.81-.04.08-.12.36,0,.65.17.4.1.86-.44.87Zm6.34.05c0,.18.5,1.4.55,1.74.05.33.16,1.34.43,1.23.17-.07.15-.68.12-.92-.11-.7-.25-1.3-.51-2.08-.14-.42-.73-1.77-.92-1.73-.17.04.29.99.36,1.3.05.2-.02.28-.03.46Zm-3.35-16.35c.31.12.31-.47-.22-.9-.53-.43-1.23-.22-1.04,0,.17.19.99.8,1.26.91Zm-14.43-4.14c-.63-.41-.1-.97-.61-1.34-.35-.26-1.34,0-1.58.31-.42.55.55.37.9.52.39.17,1.24.9,1.39.75.15-.15-.03-.18-.1-.24Zm3.82-1.92c-.85-.39-4.04-.37-3.95.46.07.71,1.84.04,2.3,0,.46-.04,2.4-.08,1.65-.46Zm-9.33,37.1c-.04-.16-.32-.13-.25.01.07.15-.08.29.06.48.19.2.59.17.79,0,.12-.13.04-.36-.05-.41-.15-.08-.51.07-.55-.09Zm-1.23-6.34c.26,0,.25-.2.41-.19.15,0,.03.2.29.2s.54-.68-.31-.68c-.69,0-.6.66-.39.67Zm1.1.7c-.53-.14-.42.17-.75.2-.54.06-.06-.4-.32-.61-.12-.09-.43.37-.46.66-.01.14-.02.61.21.62.23.01,1.42.15,1.82.24.46.11-.02-.99-.51-1.11Zm-5.89,6.35c.16,0,.28-.58.18-.86-.1-.28-.63-.07-.67.06-.05.13.33.8.49.8Zm-7.72-.06c.02-.25,0-.98-.17-1.12-.17-.14-.15.12-.28.11-.1-.01-.09-.35-.21-.35-.12,0,.04.58.17.91.13.34.45.89.48.44Zm-.19-1.76c.04-.09.3-1.3.26-1.76-.04-.46-.29-.9-.35-.87-.08.04.04.32.05.77.02.67-.29,1.23-.29,1.45,0,.21.2.68.33.41Zm-20.62-4.28c0-9.79,3.81-19,10.73-25.91,6.92-6.92,16.12-10.73,25.91-10.73s19,3.81,25.91,10.73c6.92,6.92,10.73,16.12,10.73,25.91s-3.81,19-10.73,25.91c-6.92,6.92-16.12,10.73-25.91,10.73s-19-3.81-25.91-10.73c-6.92-6.92-10.73-16.12-10.73-25.91Zm11.29,24.25l3.98-3.98c-.78-.83-1.52-1.7-2.2-2.61-.31-.12-.62-.29-.84-.56-.34-.42-.52-1.05-.68-1.05-.16,0-.01.4-.38.45-.49.07-1.19-1.15-1.46-1.6-.32-.53-.85-.53-1.11-1.02-.07-.14-.25-.58-.42-.32-.27.44-1.21-.95-1.45-.86-.25.1-.03.39-.17.51-.27.24-1.06-1.07-1.35-.93-.28.13-.34.29-.36.64-.01.36.43,1.28.27,1.36-.22.1-1.36-2.8-1.11-2.93.14-.07.12.13.28.04.16-.1-.11-.3-.19-.61-.08-.33-.36-.34-.39-.7-.02-.36.49-.24.49-.42,0-.18.04-.38.19-.5.17-.15.57,0,.65-.5.07-.43.29-.03.34.29.05.37,1.01.47,1.06.21.03-.16-.39-.16-.39-.3,0-.28.53-.01.89.02.16.01.44-.24.8-.06.39.2.63.3.89.34-.87-2.64-1.37-5.45-1.45-8.37h-5.61c.19,8.82,3.62,17.1,9.71,23.46Zm23.13-32.48c.04.06-.37.43-.58.79.65-.24,1.32-.4,2.02-.47v-5.62c-3.15.18-6.01,1.44-8.23,3.42l3.97,3.97c.46-.37.95-.7,1.49-.97.14-.07.28-.13.42-.19.27-.47.87-1,.92-.93Zm-13.86,20.96c0,.11,0,.22-.03.33.29.36.59.71.9,1.05l3.98-3.98c-1.87-2.07-3.18-4.67-3.67-7.53-.12.03-.23.02-.29-.1-.08-.14.04-.28.21-.42-.06-.42-.1-.85-.12-1.28h-2.65c.03.42.2,1.03-.08,1.24-.23.17-.55,0-.76.03-.51.07-.62.68-.49,1.1.09.28.21.5.16.8-.05.28-.2.51.25.74.41.22,1.08,1.06,1.02,1.21-.07.19-.48-.17-.51.16-.02.21.6-.06.57.65-.02.41.08.86.2,1.14.24.59.53.97.5,1.63-.02.55-.12,1.15.12,1.66.25.53.68.96.68,1.59Zm-3.31-9.46c-.33-.37.22-1.44.3-1.65.09-.22.58-.51.73-.84h-2.36c.05,1.23.2,2.44.46,3.63.57.21,1.65-.25.87-1.14Zm-1.48,15.15s-.04.02-.06.02c.21.24.43.48.65.72l.45-.45c-.42-.27-.81-.43-1.05-.29Zm9.63-28.54l-3.96-3.96c-3.27,3.52-5.33,8.18-5.52,13.3h2.78c.46-.75.31-1.32.46-1.75.15-.41.39-.8.62-1.17.2-.33.44-.7.87-.7.91,0,1.13-.48,1.7-.74.57-.26,1.59-.42,1.47-.72-.08-.2-2.12.59-2.16.44-.08-.27.64-.24.95-.52.06-.06.12-.09.17-.12.66-1.49,1.54-2.86,2.62-4.05Zm-.71,3.71c.05-.02.11-.05.16-.08.68-.39,1.57-.31,1.96-.15.49.21,1.12.76,1.4.98.12.09.18-.08.76-.17.24-.04.3.21.64.26.14.02.25.03.36.02l-3.46-3.45c-.7.79-1.32,1.66-1.82,2.6Zm-3.89,4.27c-.44-.05-.88.14-1.12.52-.17.26-.21.56-.16.84h2.01c.02-.38.05-.76.1-1.13-.26-.13-.57-.21-.83-.23Zm5.72,11.15l3.97-3.97c-.32-.39-.61-.82-.85-1.27,0,0,0,0,0,0-.06.07-.12.15-.15.22-.08.18.02.77-.22,1.02-.32.33-1.17-.72-1.44-.81-.37-.12-.54.29-.52.4.05.3-.01.42-.14.45-.13.03-.8-.43-.5-.54.35-.13-.09-.43-.24-.55-.26-.2-.66-.01-.85-.28-.2-.28-.58-.49-.7-.52-.08-.02-.47-.19-.73-.05-.2.11-.42-.11-.57-.26-.08-.08-.17-.17-.25-.27.47,2.44,1.6,4.64,3.19,6.42Zm3.97-6.86s0-.07,0-.11c0,0,0-.02,0-.03,0-.03,0-.05,0-.08,0-.01,0-.02,0-.03,0-.02,0-.03,0-.05,0,0,0-.02,0-.03,0,0,0-.02,0-.03,0-.04.01-.07.02-.11h0s.02-.07.03-.1c0-.01,0-.02,0-.03,0-.02.01-.04.02-.06,0,0,0-.02.01-.03,0-.02.02-.04.03-.06,0,0,0-.02.01-.02.01-.02.03-.05.04-.06.05-.06.12-.08.2-.07.14.02.31.11.48.12.12,0,.24-.03.35-.16.05-.06.09-.13.12-.2.03-.07.05-.14.06-.19,0-.03,0-.05-.01-.07-.03-.06-.11-.08-.27-.02-.03.01-.06.02-.1.03-.07.02-.13.03-.19.03-.03,0-.06,0-.09,0-.09-.01-.17-.05-.22-.13-.02-.03-.04-.06-.05-.09-.02-.05-.04-.09-.07-.12-.1-.14-.24-.22-.4-.31-.08-.05-.15-.09-.23-.16-.04-.03-.07-.07-.11-.11-.03-.03-.06-.06-.08-.09-.01-.01-.02-.02-.03-.03-.02-.02-.04-.04-.06-.05-.01-.01-.03-.02-.04-.04-.02-.01-.03-.03-.05-.04-.02-.01-.03-.02-.05-.04-.01,0-.03-.02-.04-.03-.02-.01-.04-.02-.06-.03-.01,0-.02-.01-.04-.02-.02,0-.04-.02-.06-.03,0,0-.02,0-.03,0-.02,0-.05-.02-.07-.02,0,0,0,0-.01,0-.19-.04-.38.01-.57.2,0,0,0,0,0,0-.03.03-.06.06-.09.1,0,0,0,0,0,.01-.03.04-.06.08-.09.12,0,0,0,0,0,.01-.03.05-.06.1-.09.15-.06.11-.12.24-.18.39-.46,1.19-.98.83-.9,1.25,0,.05.14.08.32.1.07,0,.16,0,.25,0s.18,0,.28,0c.1,0,.19-.01.29-.03.05,0,.09-.01.14-.02.03,0,.05,0,.08-.01.03,0,.05,0,.08-.02.02,0,.05,0,.07-.01.03,0,.06-.02.08-.02.02,0,.03,0,.05-.01.04-.01.08-.03.12-.04.06-.03.12-.05.18-.07,0,0,0,0,0,0,.06-.02.12-.03.17-.04.12-.02.23-.02.31,0,.06.02.19.08.28.21.08.11.15.3.17.45Zm5.36-17.26v-5.61c-5.13.19-9.78,2.25-13.3,5.52l3.97,3.96c2.5-2.26,5.76-3.69,9.34-3.88Zm0-7.18v-5.61c-7.1.2-13.55,3.06-18.37,7.63l3.96,3.96c3.81-3.55,8.85-5.79,14.41-5.98Zm-19.48,3.12c-4.56,4.82-7.43,11.27-7.62,18.37h5.61c.19-5.56,2.43-10.6,5.98-14.41l-3.96-3.96Zm-7.62,19.94c.08,2.91.61,5.71,1.52,8.33.03,0,.06,0,.1,0,.57-.03,1.33,0,1.69-.29.55-.43.04-1.95.39-2.58.43-.79,1.49-2.65,1.81-2.66.28-.01.27.2.42.23-.17-.99-.28-2-.31-3.03h-5.61Zm27.11,28.67c-7.53-.2-14.37-3.24-19.48-8.08l-3.98,3.98c6.37,6.09,14.64,9.52,23.46,9.71v-5.61Zm0-7.17c-4.98-.17-9.66-1.97-13.46-5.12.09.1.16.2.22.3.26.45,1.16,1.35.58,1.71-.47.3-1.26.1-1.7.09-.49,0-1.19.72-1.61.79-.53.09-.83.05-1.33-.15-.12-.05-.28-.15-.45-.27l-.63.63c4.82,4.56,11.27,7.43,18.37,7.62v-5.61Zm0-1.97c-.79.06-1.98.04-2.27-.16-.59-.41-1.29-.81-1.37-1.12-.14-.56-.91-.98-.91-1.51,0-.58.81-.77.59-1.37-.17-.47.29-1.06,1.13-1.47-2.46-.61-4.69-1.81-6.51-3.46l-3.97,3.97c3.65,3.39,8.32,5.33,13.31,5.51v-.4Zm1.21-7.5c.6-.1,1.23-.27,1.77-.33.59-.06-.02.78.33.81.42.04,2.14.34,2.26-.06.1-.32.12-.46.49-.54.7-.15,1.25-.13,1.84-.58.21-.16.65-.22.78-.46.13-.24-.09-1.38-.52-1.2-.21.09-.46.39-.9.61-.4.2-.68.29-.97-.09-.26-.35.15-.62.36-.85.33-.36.63-.73.99-.73.14,0,.9-.38.83-.72-.08-.45-.96.04-1.17-.14-.14-.13,0-.45-.11-.5-.1-.05-.43.4-.18.64.13.12-.21.47-.59.22-.29-.19-.37.88-.34,1.07.03.2.43.14.16.49-.27.35-.37.09-.57.27-.24.21-.29.29,0,.6.23.24-.14.7-.23.27-.06-.29-.66-.2-.77-.52-.12-.33-.61-.3-1.2-.61-.45-.23-.39.45.37.63.65.15.62.23.43.63-.15.33-.12-.26-.89-.46-.5-.13-.52-.4-.91-.39-.4,0-.27.38-.68.28-.32-.07-.36.35-.66.47-.35.15-.33.79-.7.97-.54.26-1.64.06-1.59-.47.05-.53.07-.93.38-1.12.27-.16.72.31,1.1.15.39-.17.29-.59.06-.86-.07-.09-.36-.23-.35-.33,0-.11.57-.16.85-.35.29-.19.59-.7.74-.81.16-.12.46-.15.49-.26.04-.14-.22-.4-.19-.58s.09-.31.22-.3c.14.01.3.4.21.5-.1.11.07.29.26.21.19-.08.85-.33,1.04-.38.26-.07-.06-.66.02-.76.08-.1.16.03.26-.07.1-.1-.21-.2-.16-.41.04-.16.73-.35.54-.47-.19-.12-.45.23-.6.3-.34.15-.51-.22-.5-.51,0-.14.19-.63.03-.72-.23-.13-.27.45-.3.57-.05.17-.2.39.05.86.14.25.07,1.11-.2,1.21-.28.1-.41-.44-.54-.66-.02-.04-.05-.07-.07-.08,0,0,0,0,0,0-.01,0-.02,0-.03,0h0s-.02,0-.04.02c0,0,0,0,0,0-.01.01-.03.03-.04.05-.02.03-.06.09-.09.15-.02.04-.06.12-.12.27-.03.1-.09.15-.2.18-.29.03-.58.05-.87.05-.11,0-.23,0-.34,0,.05.18.1.37.16.49.16.29.45.53.4.75-.05.22-.96.41-1.03.26-.09-.2.23-.6.2-.78-.05-.33-.21-.52-.19-.75-1.6-.16-3.07-.8-4.24-1.77l-3.97,3.97c1.96,1.74,4.42,2.93,7.15,3.31.38-.23.54-.65.85-.43.48.36,1.07-.12,1.45-.19Zm.35,9.47v5.61c2.27-.06,4.48-.4,6.58-.98-.44-.37-.64-.98-1.18-1.16-.93-.32-1.18-.89-.68-1.73.27-.45.17-.63-.15-1.1-.39-.58-.89-.85-1.26-1.01-1.08.2-2.19.33-3.31.37Zm2.69-1.85c-.18-.2-.56-.21-.82-.14-.91.25-.61-.48-1.87-.29v.71c.91-.03,1.81-.13,2.69-.28Zm20.77,4.92l-3.98-3.98c-2.05,1.95-4.38,3.6-6.93,4.9-.84.63-1.86,1.09-2.64,1.44-.32.15-.68.34-1.04.34-.12,0-.22-.04-.32-.1-2.7.9-5.57,1.43-8.55,1.51v5.61c8.82-.19,17.1-3.62,23.46-9.71Zm-7.85-40.56s-.02.05-.05.06c.92,1,1.75,2.08,2.49,3.23.09-.11.15-.21.27-.07.2.23-.21.64.38.53.35-.06.28.39,0,.63.18.33.36.66.52.99.21.09.36.21.4.34.09.39.27.83.32,1.27.28.71.53,1.43.74,2.17.29-.25.61-.11.65.3s-.1.86-.28,1.23c.25,1.21.41,2.46.45,3.73h5.61c-.1-3.63-.92-7.22-2.37-10.52-.11.09-.26.1-.45.34-.28.36-.74-.09-.99-.4-.47-.58-1.58-2.21-2.07-2.29-.42-.07-.73-.61-1.16-.7-.44-.09-.98-.34-1.05-.8-.07-.47-.25-.67-.73-.74-.55-.08-.93-.3-1.32-.71l-1.34,1.34s.02.05.01.08Zm3.56,34.05l.31.31c4.56-4.82,7.43-11.27,7.62-18.37h-5.61c-.19,5.56-2.43,10.6-5.98,14.41l2.02,2.02s.03-.06.04-.08c.17-.35.1-.82.12-1.14.02-.21.79-.16.84.19.05.3.2.51.47,1.25.19.53.29,1.02.16,1.42Zm-4.26,3.5c-.15.36-.9,1-.77,1.21,1.51-.96,2.93-2.07,4.23-3.29l-3.96-3.96c-.28.26-.56.51-.85.75-.07.45,0,.81.55.98.6.19,1.61.8,1.39,1.39-.24.53-.82,1.33-1.11,1.85-.24.45.7.64.52,1.07Zm.93-23.2s-.02.05-.04.07h4.13c-.02-.6-.07-1.19-.14-1.77-.03.06-.07.12-.1.18-.31.64-.35.25-.33-.02.03-.36.17-.69.3-1.05-.03-.19-.07-.38-.1-.57-.12.18-.3.3-.58.44-.18.09-.35.52-.42.69-.08.2-.53-.05-.91.13-.65.32-1.33.36-.85,1.04.31.43-.73.31-.95.86Zm-1.43-13.23l-3.96,3.96c.68.76,1.29,1.58,1.81,2.46.47.07,1.1.26,1.51.79.29.37,1.13,1.12,1,1.46-.08.21.1.46.29.59.29.2.5.2.66,0,.29-.37.33-.88.72-1.2.47-.39,1.45.74,1.45.95,0,.21-.25.26-.32.62-.1.5-.53,1.1-.04,1.27.71.24.8-.04,1.15-.54.16-.23.12-.6.29-.83.11-.14.27-.21.41-.3-.27-1.11-.62-2.19-1.06-3.23-.11-.1-.23-.19-.38-.24-.26-.08-.11-.31-.45-.42-.38-.12-.53-.23-.57-.91-.03-.54.46.18.58.08.03-.02.05-.05.07-.09-.86-1.62-1.92-3.11-3.15-4.44Zm-4.81,5.38c-.19,0-.34-.04-.48-.09l-1.31,1.31c.25.07.53-.03.84.11.35.15.18-.97.71-.87.54.1.68.45.23.62-.36.12.09.42-.35.57-.4.14.32.49.32.64,0,.22-.54.3.26.55.8.25,0-.68.12-.81.15-.16.58.25.7.07.04-.07.12-.18.22-.31-.38-.63-.8-1.23-1.27-1.79Zm-2.04,20.82c0,.28-.27.06-.35.15-.08.09,2.21,1.16,2.56,1.22.25.04.71.22,1.54.05.56-.11.71.15.97.14.37-.01.61-.51.82-.82.57-.81.46-.92.61-1.04.19-.16.75,1.08.68,1.86-.01.12-.03.24-.04.35l.06.06c3.27-3.52,5.33-8.18,5.52-13.3h-4.26c.15.24.4.56.67,1.11.22.44.34,1.15.7,1.18.58.06,1.18.54,1.2.94.03.85-2.6,1.05-2.95.95-.29-.09-.48-.11-.5.35-.02.52-.95.52-1.32.83-.41.35-.46.98-.73,1.43-.17.27-1.14,1.18-1.4,1.37-.63.44-1.83.46-1.28.76.39.21,1.27.28,1.16.08-.13-.24.07-.26.22-.06.12.15.53-.14.52-.41,0-.25-.06-.66.17-.68.38-.02.78-.45.97-.41.21.04.5.52.29,1.97-.22,1.45-.91,2.46-1.18,2.92-.3.49-.6.12-1-.09-.51-.26-1.28-.25-1.81-.43-.28-.09-1.84-.68-1.83-.47Zm26.72-11.33h-5.61c-.2,7.53-3.24,14.37-8.08,19.48l3.98,3.98c6.09-6.37,9.52-14.64,9.71-23.46Zm-9.71-25.03l-4.15,4.15c.38.66,1.1,1.5,2.1,2.53.41.42.85.84,1.22,1.21.35.36,2.62,3.17,2.18,3.58-.03.03-.07.06-.1.09,1.76,3.7,2.74,7.78,2.85,11.9h5.61c-.19-8.82-3.62-17.1-9.71-23.46Zm-24.57-5.21c4.69.12,9.18,1.33,13.21,3.5.38-.06.75-.11.99-.22.5-.23,1.48.3,1.95.57.43.25.77.62,1.24.89.49.27,1.27,1.06,1.44,1.85.17.79.67.74.42,1.05-.12.16.07.22.3.36l3.9-3.9c-6.37-6.09-14.64-9.52-23.46-9.71v5.61Zm0,7.18c4.76.17,9.14,1.83,12.69,4.54-.4-.53-.81-1.08-1-1.28-.34-.37-1.63-.82-1.5-1.03.13-.21,1.27.7,1.47.54.24-.19-.58-1.24-.51-1.28.08-.06,1.05.88,1.53,1.72.2.29.72.15,1.13.43.36.25.39.66.69.92.05.04.69.41.32.37-.11-.01-.27-.24-.4-.12-.08.07.05.47.27.9l1.86-1.86c-.27-.55-.8-1.27-1.18-1.36-.38-.09-.62.23-.88.45-.26.22-.59.29-.64.15-.05-.17.05-.57.03-.75-.03-.21-.19-.38-.25-.59-.13-.49.06-1.03-.23-1.35-.33-.35-.54-.89-.8-1.3-.28-.44-.78-1.13-.81-1.71-3.63-1.83-7.64-2.86-11.81-2.97v5.61Zm0,7.18c3.58.18,6.84,1.62,9.34,3.88l3.97-3.96c-3.52-3.27-8.18-5.33-13.3-5.52v5.61Zm0,7.19c.53.05,1.06.16,1.57.32.13-.33.47-.49.74-.68.32-.22.56-.47.51.13-.04.42-.22.68-.44.85.55.24,1.07.54,1.56.9.11.08.21.16.31.25l.54-.54s0-.04,0-.06c0-.31.45-.67.96-.89l1.75-1.75s-.08-.02-.13-.02c-.23-.03-.57.46-.8.32-.26-.15.77-1.06,1.23-.88.06.02.13.05.2.08l.22-.22c-2.21-1.97-5.08-3.24-8.23-3.42v5.62Zm-.78,1.53c-.66,0-1.29.1-1.91.29-.08.09-.14.16-.1.23.15.23.62-.25.69.19.05.32-.52.08-.47.32.04.19.43.11.44.36,0,.23-.24.7-.43.82-.25.16-1.6.34-1.72.65-.11.27-.23.52-.44.74-.23.24-1.31.88-1.31,1.05,0,.39.52-.11.66-.26.23-.24.55-.24.9-.44.48-.27.66.68.15.71-.32.02-.59.92-1.09.75-.13-.04-.48-.26-.56-.04-.08.24.74.28,1,.45.66.44-.5.41-.69.52-.18.12-.09.37.16.27.24-.1.57-.35.72.06.2.56-.92,2.59-1.24,2.37-.18-.12-.36.05-.53.12.22.46.5.89.82,1.28.22-.36.57-.88.71-.88.21,0,.14-.17.22-.32.1-.18.34,0,.36-.23.02-.24.63-.59.7-.94.04-.19-.19-.38-.1-.54.12-.19.2-.22.32-.26.12-.04.42.25.51.12.09-.13.52-.03.86.18.15.1.45-.01.63.24.25.35-.01.38.03.46.04.08.15-.04.22.02.14.14-.65.6-.56.86.09.25-.67,1.5-.88,1.7-.29.26-.76-.03-.95.02-.2.06-.24.23-.55.15-.24-.06-.53.04-.79.17,1.12.99,2.59,1.59,4.2,1.59.35,0,.69-.03,1.02-.09.21-.27.29-.59.34-.93.03-.18,0-.42.09-.58.08-.14.6-.78.81-.77.18,0,.31.17.57.09.51-.16.83-.02.83.2,0,.31-.64.22-.62.39.02.12.49.3.64.13.29-.33.25-.75.17-.85-.2-.26-.19-.36.1-.26.18.06.18-.65.35-.93.23-.37-.43-.11-.71-.07-.26.04-.48-.52-.49-.72,0-.14.5.5.75.52.29.01.63-.32.63-.56,0-.24-.55-.28-.63-.58-.05-.16.45,0,.41-.16-.03-.14.05-.48-.26-.61-.31-.13-.6-1.13-.85-1.2-.22-.06-.41.24-.54.35-.13.11-.35-.08-.24-.18.16-.15.53-.47.61-.72.13-.42.67.02.58-.57-.1-.64-.65-.52-.4-.82.26-.31.07-.82-.46-.72-.24.05-.5-.35-.52-.69-.02-.19-.56-.16-.54-.36.04-.41-.57-.45-.94-.42-.37.03-1.1-.55-1.18-.69-.08-.14-.6.12-.43-.42.17-.54.68.1.9-.06.23-.17.16-.34.12-.47-.04,0-.08,0-.12,0Zm-24.25-18.96l3.98,3.98c5.11-4.85,11.95-7.89,19.48-8.08v-5.61c-8.82.19-17.1,3.62-23.46,9.71Zm-10.82,24.57h5.61c.2-7.53,3.24-14.37,8.08-19.48l-3.98-3.98c-6.09,6.36-9.52,14.64-9.71,23.46Z"/>
          <g>
            <path class="cls-4" d="m230.15,213.67c0-3.32,2.69-5.86,5.86-5.86h8.39v-14.25c0-3.64,2.85-6.33,6.33-6.33s6.33,2.69,6.33,6.33v14.25h20.9c3.17,0,5.86,2.53,5.86,5.86s-2.69,5.86-5.86,5.86h-20.9v35.78c0,14.73,8.39,22.64,20.9,22.64,3.17,0,5.86,2.69,5.86,5.86,0,3.33-2.69,6.02-5.86,6.02-19.63,0-33.56-13.3-33.56-34.52v-35.78h-8.39c-3.17,0-5.86-2.69-5.86-5.86Z"/>
            <path class="cls-4" d="m355.94,277.47c-7.45,7.92-17.74,12.67-29.61,12.67-23.27,0-41.01-18.53-41.01-41.96s17.74-41.96,41.01-41.96c11.87,0,22.17,4.9,29.61,12.66v-6.02c0-3.48,2.85-6.33,6.33-6.33s6.33,2.85,6.33,6.33v70.46c0,3.64-2.69,6.49-6.33,6.49s-6.33-2.85-6.33-6.49v-5.86Zm0-28.02v-2.53c-.64-16.47-13.14-28.98-28.82-28.98s-28.98,13.14-28.98,30.24,12.83,30.24,28.98,30.24,28.18-12.51,28.82-28.98Z"/>
            <path class="cls-4" d="m384.26,240.43c0-20.43,12.98-34.2,32.62-34.2,3.16,0,5.86,2.53,5.86,5.86s-2.69,5.86-5.86,5.86c-11.72,0-19.96,7.76-19.96,22.48v42.91c0,3.64-2.85,6.49-6.33,6.49s-6.33-2.85-6.33-6.49v-42.91Z"/>
            <path class="cls-4" d="m27.56,216.96c0-6.18,4.91-11.09,11.09-11.09s11.09,4.91,11.09,11.09v36.43c0,10.3,6.34,15.84,14.26,15.84s14.26-5.54,14.26-15.84v-36.43c0-6.18,4.91-11.09,11.09-11.09s11.09,4.91,11.09,11.09v35.64c0,22.33-16,37.22-36.43,37.22s-36.43-14.89-36.43-37.22v-35.64Z"/>
            <path class="cls-4" d="m113.19,243.09c0-22.33,16-37.22,36.43-37.22s36.43,14.89,36.43,37.22v35.64c0,6.18-4.91,11.09-11.09,11.09s-11.09-4.91-11.09-11.09v-36.43c0-10.3-6.34-15.84-14.26-15.84s-14.26,5.54-14.26,15.84v36.43c0,6.18-4.91,11.09-11.09,11.09s-11.09-4.91-11.09-11.09v-35.64Z"/>
          </g>
          <rect class="cls-4" y="107.39" width="1.73" height="249.94"/>
        </g>
      </g>
    </g>
  </g>
</svg>