<?xml version="1.0" encoding="UTF-8"?> <svg xmlns="http://www.w3.org/2000/svg" xmlns:xlink="http://www.w3.org/1999/xlink" version="1.1" id="Layer_1" x="0px" y="0px" viewBox="0 0 985.4 679.7" style="enable-background:new 0 0 985.4 679.7;" xml:space="preserve"> <style type="text/css"> .st0{fill:#231F20;} </style> <path class="st0" d="M734.3,20.6v294.8c0,122-71.8,225.5-188.1,248.3c41.4-54.5,64-125.9,64-203.4V20.6h-231v339.7 c0,77.5,22.6,148.9,64,203.4c-116.3-22.8-188.1-126.3-188.1-248.3V20.6H24v302.2c0,99.6,33.2,186,98.7,251 c56.2,55.8,130.4,87.7,206.6,87.7h1.8c50.7-0.4,100-6.9,140.2-30.2c5.2-3,11.1-4.5,17.1-4.5h12.5c6-0.1,11.9,1.5,17.1,4.5 c40.3,23.3,89.5,29.8,140.2,30.2h1.8c76.3,0,150.4-31.9,206.6-87.7c65.5-65,98.7-151.4,98.7-251V20.6H734.3z M335.9,607.8h-1.6 c-60.6,0-118.8-24.7-164-69.5C115.8,484.2,82.5,407,82.5,322.9V79.2h114v236.2c0,159.9,87.7,250.3,207.8,287.5 C390,605.8,373,607.8,335.9,607.8z M494.7,544.8c-36.8-44.9-57-116.6-57-184.4V79.2h114v281.2C551.7,428.2,531.5,499.9,494.7,544.8z M906.9,322.9c0,84.1-33.3,161.3-87.8,215.4c-45.2,44.8-103.4,69.5-164,69.5h-1.6c-37.1,0-54.1-2-68.4-4.9 c120.1-37.2,207.8-127.6,207.8-287.5V79.2h114V322.9z"></path> </svg> 